SplineFontDB: 3.0
FontName: FiraMath-Light
FullName: Fira Math Light
FamilyName: Fira Math
Weight: Light
Copyright: 
Version: 
ItalicAngle: 0
UnderlinePosition: -100
UnderlineWidth: 50
Ascent: 800
Descent: 200
InvalidEm: 0
LayerCount: 2
Layer: 0 0 "Back" 1
Layer: 1 0 "Fore" 0
XUID: [1021 620 891379711 1439]
OS2Version: 0
OS2_WeightWidthSlopeOnly: 0
OS2_UseTypoMetrics: 1
CreationTime: 1542519042
OS2TypoAscent: 0
OS2TypoAOffset: 1
OS2TypoDescent: 0
OS2TypoDOffset: 1
OS2TypoLinegap: 0
OS2WinAscent: 0
OS2WinAOffset: 1
OS2WinDescent: 0
OS2WinDOffset: 1
HheadAscent: 0
HheadAOffset: 1
HheadDescent: 0
HheadDOffset: 1
OS2Vendor: 'PfEd'
DEI: 91125
MATH:ScriptPercentScaleDown: 80
MATH:ScriptScriptPercentScaleDown: 60
MATH:DelimitedSubFormulaMinHeight: 1500
MATH:DisplayOperatorMinHeight: 1500
MATH:MathLeading: 150 
MATH:AxisHeight: 280 
MATH:AccentBaseHeight: 527 
MATH:FlattenedAccentBaseHeight: 689 
MATH:SubscriptShiftDown: 350 
MATH:SubscriptTopMax: 527 
MATH:SubscriptBaselineDropMin: 250 
MATH:SuperscriptShiftUp: 400 
MATH:SuperscriptShiftUpCramped: 270 
MATH:SuperscriptBottomMin: 130 
MATH:SuperscriptBaselineDropMax: 360 
MATH:SubSuperscriptGapMin: 200 
MATH:SuperscriptBottomMaxWithSubscript: 527 
MATH:SpaceAfterScript: 41 
MATH:UpperLimitGapMin: 150 
MATH:UpperLimitBaselineRiseMin: 150 
MATH:LowerLimitGapMin: 150 
MATH:LowerLimitBaselineDropMin: 600 
MATH:StackTopShiftUp: 450 
MATH:StackTopDisplayStyleShiftUp: 580 
MATH:StackBottomShiftDown: 480 
MATH:StackBottomDisplayStyleShiftDown: 700 
MATH:StackGapMin: 200 
MATH:StackDisplayStyleGapMin: 500 
MATH:StretchStackTopShiftUp: 300 
MATH:StretchStackBottomShiftDown: 600 
MATH:StretchStackGapAboveMin: 150 
MATH:StretchStackGapBelowMin: 150 
MATH:FractionNumeratorShiftUp: 450 
MATH:FractionNumeratorDisplayStyleShiftUp: 580 
MATH:FractionDenominatorShiftDown: 480 
MATH:FractionDenominatorDisplayStyleShiftDown: 700 
MATH:FractionNumeratorGapMin: 80 
MATH:FractionNumeratorDisplayStyleGapMin: 200 
MATH:FractionRuleThickness: 53 

StartChar: uni0021
Encoding: 33 33 1
Width: 240
Flags: W
LayerCount: 2
Fore
SplineSet
150 685 m 1
 146 218 l 1
 93 218 l 1
 88 685 l 1
 150 685 l 1
120 84 m 0
 148 84 168 63 168 37 c 0
 168 10 148 -11 120 -11 c 0
 93 -11 72 10 72 37 c 0
 72 63 93 84 120 84 c 0
EndSplineSet
EndChar

StartChar: uni0022
Encoding: 34 34 2
Width: 362
Flags: W
LayerCount: 2
Fore
SplineSet
80 434 m 1
 71 685 l 1
 133 685 l 1
 124 434 l 1
 80 434 l 1
238 434 m 1
 229 685 l 1
 291 685 l 1
 282 434 l 1
 238 434 l 1
EndSplineSet
EndChar

StartChar: uni0023
Encoding: 35 35 3
Width: 503
Flags: W
LayerCount: 2
Fore
SplineSet
488 452 m 1
 410 452 l 1
 380 226 l 1
 451 226 l 1
 451 180 l 1
 374 180 l 1
 350 0 l 1
 298 0 l 1
 322 180 l 1
 139 180 l 1
 115 0 l 1
 63 0 l 1
 87 180 l 1
 15 180 l 1
 15 226 l 1
 93 226 l 1
 123 452 l 1
 52 452 l 1
 52 499 l 1
 129 499 l 1
 151 665 l 1
 203 665 l 1
 181 499 l 1
 364 499 l 1
 386 665 l 1
 438 665 l 1
 416 499 l 1
 488 499 l 1
 488 452 l 1
328 226 m 1
 358 452 l 1
 175 452 l 1
 145 226 l 1
 328 226 l 1
EndSplineSet
EndChar

StartChar: uni0024
Encoding: 36 36 4
Width: 526
Flags: W
LayerCount: 2
Fore
SplineSet
472 182 m 0
 472 79 401 5 289 -9 c 1
 289 -151 l 1
 238 -151 l 1
 238 -11 l 1
 154 -8 90 23 39 72 c 1
 74 109 l 1
 119 67 173 39 250 39 c 0
 344 39 412 90 412 180 c 0
 412 260 373 292 254 329 c 0
 122 371 65 417 65 511 c 0
 65 600 134 666 238 674 c 1
 238 819 l 1
 289 819 l 1
 289 674 l 1
 360 668 406 642 451 601 c 1
 416 564 l 1
 369 608 323 625 261 625 c 0
 181 625 125 583 125 513 c 0
 125 445 160 415 279 379 c 0
 399 341 472 299 472 182 c 0
EndSplineSet
EndChar

StartChar: uni0025
Encoding: 37 37 5
Width: 793
Flags: W
LayerCount: 2
Fore
SplineSet
610 703 m 1
 653 676 l 1
 189 -24 l 1
 147 4 l 1
 610 703 l 1
203 676 m 0
 291 676 352 613 352 514 c 0
 352 415 293 351 203 351 c 0
 115 351 53 414 53 513 c 0
 53 612 113 676 203 676 c 0
203 634 m 0
 132 634 107 577 107 513 c 0
 107 451 132 393 203 393 c 0
 274 393 298 450 298 514 c 0
 298 576 274 634 203 634 c 0
590 314 m 0
 678 314 740 252 740 153 c 0
 740 53 681 -11 590 -11 c 0
 503 -11 441 52 441 151 c 0
 441 251 500 314 590 314 c 0
590 272 m 0
 520 272 495 215 495 151 c 0
 495 89 520 31 590 31 c 0
 662 31 686 88 686 153 c 0
 686 214 662 272 590 272 c 0
EndSplineSet
EndChar

StartChar: uni0026
Encoding: 38 38 6
Width: 722
Flags: W
LayerCount: 2
Fore
SplineSet
301 696 m 0
 399 696 467 634 467 548 c 0
 467 467 409 417 314 364 c 1
 519 172 l 1
 547 229 569 289 585 362 c 1
 640 346 l 1
 618 262 590 195 555 137 c 1
 679 23 l 1
 636 -11 l 1
 524 94 l 1
 471 31 404 -11 300 -11 c 0
 181 -11 90 61 90 171 c 0
 90 261 145 318 234 370 c 1
 169 432 133 474 133 544 c 0
 133 630 198 696 301 696 c 0
301 651 m 0
 232 651 191 603 191 545 c 0
 191 495 210 463 280 396 c 1
 366 443 410 486 410 546 c 0
 410 613 363 651 301 651 c 0
269 338 m 1
 191 291 150 242 150 173 c 0
 150 91 215 37 305 37 c 0
 388 37 442 71 488 127 c 1
 269 338 l 1
EndSplineSet
EndChar

StartChar: uni0027
Encoding: 39 39 7
Width: 204
Flags: W
LayerCount: 2
Fore
SplineSet
80 434 m 1
 71 685 l 1
 133 685 l 1
 124 434 l 1
 80 434 l 1
EndSplineSet
EndChar

StartChar: uni0028
Encoding: 40 40 8
Width: 324
Flags: W
LayerCount: 2
Fore
SplineSet
233 837 m 1
 270 813 l 1
 181 681 114 568 114 350 c 0
 114 133 181 19 270 -113 c 1
 233 -137 l 1
 136 -1 54 117 54 350 c 0
 54 583 136 701 233 837 c 1
EndSplineSet
EndChar

StartChar: uni0029
Encoding: 41 41 9
Width: 324
Flags: W
LayerCount: 2
Fore
SplineSet
91 837 m 1
 188 701 270 583 270 350 c 0
 270 117 188 -1 91 -137 c 1
 54 -113 l 1
 143 19 210 133 210 350 c 0
 210 568 143 681 54 813 c 1
 91 837 l 1
EndSplineSet
EndChar

StartChar: uni002A
Encoding: 42 42 10
Width: 436
Flags: W
LayerCount: 2
Fore
SplineSet
402 582 m 1
 250 542 l 1
 349 420 l 1
 303 386 l 1
 218 518 l 1
 133 386 l 1
 87 419 l 1
 186 541 l 1
 34 582 l 1
 51 634 l 1
 198 577 l 1
 189 736 l 1
 246 736 l 1
 238 577 l 1
 384 634 l 1
 402 582 l 1
EndSplineSet
EndChar

StartChar: uni002B
Encoding: 43 43 11
Width: 493
Flags: W
LayerCount: 2
Fore
SplineSet
274 508 m 1
 274 356 l 1
 424 356 l 1
 424 306 l 1
 274 306 l 1
 274 154 l 1
 219 154 l 1
 219 306 l 1
 69 306 l 1
 69 356 l 1
 219 356 l 1
 219 508 l 1
 274 508 l 1
EndSplineSet
EndChar

StartChar: uni002C
Encoding: 44 44 12
Width: 207
Flags: W
LayerCount: 2
Fore
SplineSet
103 84 m 0
 132 84 151 63 151 37 c 0
 151 20 145 2 136 -18 c 2
 80 -151 l 1
 38 -151 l 1
 78 -4 l 1
 64 4 55 19 55 37 c 0
 55 63 76 84 103 84 c 0
EndSplineSet
EndChar

StartChar: uni002D
Encoding: 45 45 13
Width: 401
Flags: W
LayerCount: 2
Fore
SplineSet
68 288 m 1
 68 338 l 1
 333 338 l 1
 333 288 l 1
 68 288 l 1
EndSplineSet
EndChar

StartChar: uni002E
Encoding: 46 46 14
Width: 207
Flags: W
LayerCount: 2
Fore
SplineSet
103 84 m 0
 132 84 151 63 151 37 c 0
 151 10 132 -11 103 -11 c 0
 76 -11 55 10 55 37 c 0
 55 63 76 84 103 84 c 0
EndSplineSet
EndChar

StartChar: uni002F
Encoding: 47 47 15
Width: 520
Flags: W
LayerCount: 2
Fore
SplineSet
351 803 m 1
 401 790 l 1
 169 -100 l 1
 119 -87 l 1
 351 803 l 1
EndSplineSet
EndChar

StartChar: uni0030
Encoding: 48 48 16
Width: 550
Flags: W
LayerCount: 2
Fore
SplineSet
275 676 m 0
 412 676 484 558 484 332 c 0
 484 107 411 -11 275 -11 c 0
 138 -11 66 108 66 333 c 0
 66 558 138 676 275 676 c 0
275 628 m 0
 180 628 126 538 126 333 c 0
 126 128 179 37 275 37 c 0
 371 37 423 127 423 332 c 0
 423 537 371 628 275 628 c 0
EndSplineSet
EndChar

StartChar: uni0031
Encoding: 49 49 17
Width: 413
Flags: W
LayerCount: 2
Fore
SplineSet
292 665 m 1
 292 0 l 1
 234 0 l 1
 234 601 l 1
 70 499 l 1
 43 542 l 1
 242 665 l 1
 292 665 l 1
EndSplineSet
EndChar

StartChar: uni0032
Encoding: 50 50 18
Width: 479
Flags: W
LayerCount: 2
Fore
SplineSet
225 676 m 0
 339 676 408 601 408 501 c 0
 408 369 334 286 111 51 c 1
 426 51 l 1
 418 0 l 1
 43 0 l 1
 43 49 l 1
 290 312 348 381 348 498 c 0
 348 577 298 627 222 627 c 0
 158 627 114 600 73 551 c 1
 33 581 l 1
 86 645 145 676 225 676 c 0
EndSplineSet
EndChar

StartChar: uni0033
Encoding: 51 51 19
Width: 486
Flags: W
LayerCount: 2
Fore
SplineSet
221 676 m 0
 337 676 404 603 404 510 c 0
 404 420 347 367 273 354 c 1
 356 350 423 293 423 188 c 0
 423 72 340 -11 211 -11 c 0
 133 -11 70 18 20 75 c 1
 57 108 l 1
 104 57 151 38 209 38 c 0
 307 38 363 99 363 187 c 0
 363 288 303 327 213 327 c 2
 169 327 l 1
 177 374 l 1
 209 374 l 2
 279 374 346 416 346 507 c 0
 346 581 295 627 218 627 c 0
 162 627 118 609 70 565 c 1
 39 601 l 1
 91 651 148 676 221 676 c 0
EndSplineSet
EndChar

StartChar: uni0034
Encoding: 52 52 20
Width: 518
Flags: W
LayerCount: 2
Fore
SplineSet
483 223 m 1
 483 175 l 1
 393 175 l 1
 393 0 l 1
 336 0 l 1
 336 175 l 1
 45 175 l 1
 45 218 l 1
 248 676 l 1
 297 656 l 1
 107 223 l 1
 336 223 l 1
 343 418 l 1
 393 418 l 1
 393 223 l 1
 483 223 l 1
EndSplineSet
EndChar

StartChar: uni0035
Encoding: 53 53 21
Width: 487
Flags: W
LayerCount: 2
Fore
SplineSet
414 665 m 1
 405 617 l 1
 135 617 l 1
 135 390 l 1
 167 408 203 421 249 421 c 0
 363 421 436 343 436 214 c 0
 436 83 353 -11 222 -11 c 0
 141 -11 82 19 34 69 c 1
 70 104 l 1
 112 60 157 38 222 38 c 0
 316 38 375 106 375 215 c 0
 375 326 317 374 236 374 c 0
 191 374 162 363 125 342 c 1
 79 342 l 1
 79 665 l 1
 414 665 l 1
EndSplineSet
EndChar

StartChar: uni0036
Encoding: 54 54 22
Width: 524
Flags: W
LayerCount: 2
Fore
SplineSet
296 433 m 0
 392 433 473 366 473 224 c 0
 473 78 389 -11 277 -11 c 0
 122 -11 66 125 66 300 c 0
 66 532 157 676 306 676 c 0
 357 676 395 661 430 637 c 1
 405 597 l 1
 374 617 343 628 305 628 c 0
 194 628 129 506 125 335 c 1
 167 396 224 433 296 433 c 0
277 37 m 0
 367 37 414 114 414 222 c 0
 414 338 360 385 288 385 c 0
 219 385 163 341 125 275 c 1
 129 127 171 37 277 37 c 0
EndSplineSet
EndChar

StartChar: uni0037
Encoding: 55 55 23
Width: 437
Flags: W
LayerCount: 2
Fore
SplineSet
401 665 m 1
 401 620 l 1
 139 -8 l 1
 85 10 l 1
 341 616 l 1
 30 616 l 1
 30 665 l 1
 401 665 l 1
EndSplineSet
EndChar

StartChar: uni0038
Encoding: 56 56 24
Width: 538
Flags: W
LayerCount: 2
Fore
SplineSet
337 352 m 1
 436 312 485 262 485 173 c 0
 485 62 395 -11 267 -11 c 0
 137 -11 53 64 53 172 c 0
 53 260 105 321 196 357 c 1
 118 392 82 436 82 510 c 0
 82 617 173 676 269 676 c 0
 364 676 457 621 457 511 c 0
 457 440 418 394 337 352 c 1
140 509 m 0
 140 444 174 413 263 380 c 2
 294 369 l 1
 367 408 399 447 399 509 c 0
 399 586 346 630 269 630 c 0
 195 630 140 587 140 509 c 0
268 38 m 0
 361 38 424 87 424 173 c 0
 424 254 381 287 276 326 c 2
 242 339 l 1
 153 304 114 252 114 172 c 0
 114 85 176 38 268 38 c 0
EndSplineSet
EndChar

StartChar: uni0039
Encoding: 57 57 25
Width: 518
Flags: W
LayerCount: 2
Fore
SplineSet
255 676 m 0
 393 676 457 573 457 408 c 0
 457 145 343 48 123 -19 c 1
 108 26 l 1
 281 79 388 164 398 341 c 1
 359 284 303 248 234 248 c 0
 131 248 53 328 53 458 c 0
 53 594 141 676 255 676 c 0
244 296 m 0
 310 296 357 334 398 396 c 1
 399 553 357 628 257 628 c 0
 168 628 113 567 113 457 c 0
 113 352 165 296 244 296 c 0
EndSplineSet
EndChar

StartChar: uni003A
Encoding: 58 58 26
Width: 207
Flags: W
LayerCount: 2
Fore
SplineSet
103 475 m 0
 132 475 151 454 151 427 c 0
 151 401 132 380 103 380 c 0
 76 380 55 401 55 427 c 0
 55 454 76 475 103 475 c 0
103 84 m 0
 132 84 151 63 151 37 c 0
 151 10 132 -11 103 -11 c 0
 76 -11 55 10 55 37 c 0
 55 63 76 84 103 84 c 0
EndSplineSet
EndChar

StartChar: uni003B
Encoding: 59 59 27
Width: 207
Flags: W
LayerCount: 2
Fore
SplineSet
103 475 m 0
 132 475 151 454 151 427 c 0
 151 401 132 380 103 380 c 0
 76 380 55 401 55 427 c 0
 55 454 76 475 103 475 c 0
103 84 m 0
 132 84 151 63 151 37 c 0
 151 20 145 2 136 -18 c 2
 80 -151 l 1
 38 -151 l 1
 78 -4 l 1
 64 4 55 19 55 37 c 0
 55 63 76 84 103 84 c 0
EndSplineSet
EndChar

StartChar: uni003C
Encoding: 60 60 28
Width: 497
Flags: W
LayerCount: 2
Fore
SplineSet
412 529 m 1
 433 480 l 1
 115 333 l 1
 433 183 l 1
 412 135 l 1
 64 306 l 1
 64 360 l 1
 412 529 l 1
EndSplineSet
EndChar

StartChar: uni003D
Encoding: 61 61 29
Width: 493
Flags: W
LayerCount: 2
Fore
SplineSet
69 393 m 1
 69 444 l 1
 424 444 l 1
 424 393 l 1
 69 393 l 1
69 218 m 1
 69 269 l 1
 424 269 l 1
 424 218 l 1
 69 218 l 1
EndSplineSet
EndChar

StartChar: uni003E
Encoding: 62 62 30
Width: 497
Flags: W
LayerCount: 2
Fore
SplineSet
85 529 m 1
 433 360 l 1
 433 306 l 1
 85 135 l 1
 64 183 l 1
 381 333 l 1
 64 480 l 1
 85 529 l 1
EndSplineSet
EndChar

StartChar: uni003F
Encoding: 63 63 31
Width: 447
Flags: W
LayerCount: 2
Fore
SplineSet
234 696 m 0
 345 696 407 628 407 550 c 0
 407 397 224 417 224 273 c 2
 224 218 l 1
 167 218 l 1
 167 277 l 2
 167 445 346 425 346 547 c 0
 346 608 301 646 231 646 c 0
 171 646 126 623 81 572 c 1
 41 604 l 1
 95 666 155 696 234 696 c 0
198 84 m 0
 226 84 246 63 246 37 c 0
 246 10 226 -11 198 -11 c 0
 170 -11 150 10 150 37 c 0
 150 63 170 84 198 84 c 0
EndSplineSet
EndChar

StartChar: uni0040
Encoding: 64 64 32
Width: 1020
Flags: W
LayerCount: 2
Fore
SplineSet
526 696 m 0
 796 696 935 514 935 308 c 0
 935 109 858 12 754 12 c 0
 683 12 644 63 632 122 c 1
 605 59 558 14 484 14 c 0
 388 14 316 93 316 232 c 0
 316 403 408 484 525 484 c 0
 577 484 625 471 670 448 c 1
 670 190 l 2
 670 97 702 59 753 59 c 0
 821 59 876 120 876 306 c 0
 876 500 753 646 526 646 c 0
 294 646 144 470 144 239 c 0
 144 0 292 -156 525 -156 c 0
 601 -156 660 -142 714 -122 c 1
 730 -169 l 1
 670 -190 614 -205 524 -205 c 0
 268 -205 85 -36 85 239 c 0
 85 496 262 696 526 696 c 0
490 60 m 0
 560 60 600 118 616 166 c 1
 616 419 l 1
 589 432 562 439 527 439 c 0
 430 439 374 365 374 232 c 0
 374 118 420 60 490 60 c 0
EndSplineSet
EndChar

StartChar: uni0041
Encoding: 65 65 33
Width: 565
Flags: W
LayerCount: 2
Fore
SplineSet
485 0 m 1
 425 187 l 1
 137 187 l 1
 77 0 l 1
 16 0 l 1
 245 685 l 1
 320 685 l 1
 548 0 l 1
 485 0 l 1
153 238 m 1
 409 238 l 1
 282 636 l 1
 153 238 l 1
EndSplineSet
EndChar

StartChar: uni0042
Encoding: 66 66 34
Width: 598
Flags: W
LayerCount: 2
Fore
SplineSet
386 363 m 1
 469 354 544 308 544 190 c 0
 544 59 448 0 298 0 c 2
 111 0 l 1
 111 685 l 1
 264 685 l 2
 420 685 512 630 512 514 c 0
 512 426 458 376 386 363 c 1
270 635 m 2
 171 635 l 1
 171 384 l 1
 309 384 l 2
 392 384 451 430 451 510 c 0
 451 602 385 635 270 635 c 2
298 50 m 2
 409 50 482 88 482 190 c 0
 482 294 409 336 316 336 c 2
 171 336 l 1
 171 50 l 1
 298 50 l 2
EndSplineSet
EndChar

StartChar: uni0043
Encoding: 67 67 35
Width: 550
Flags: W
LayerCount: 2
Fore
SplineSet
343 696 m 0
 424 696 470 673 519 633 c 1
 487 593 l 1
 441 629 403 645 347 645 c 0
 228 645 129 561 129 343 c 0
 129 135 224 42 344 42 c 0
 415 42 456 67 496 99 c 1
 527 60 l 1
 486 21 427 -11 342 -11 c 0
 184 -11 66 112 66 343 c 0
 66 577 191 696 343 696 c 0
EndSplineSet
EndChar

StartChar: uni0044
Encoding: 68 68 36
Width: 632
Flags: W
LayerCount: 2
Fore
SplineSet
247 685 m 2
 406 685 566 630 566 348 c 0
 566 64 399 0 258 0 c 2
 111 0 l 1
 111 685 l 1
 247 685 l 2
255 635 m 2
 171 635 l 1
 171 50 l 1
 262 50 l 2
 380 50 503 102 503 348 c 0
 503 599 375 635 255 635 c 2
EndSplineSet
EndChar

StartChar: uni0045
Encoding: 69 69 37
Width: 512
Flags: W
LayerCount: 2
Fore
SplineSet
459 685 m 1
 452 635 l 1
 171 635 l 1
 171 380 l 1
 414 380 l 1
 414 330 l 1
 171 330 l 1
 171 50 l 1
 466 50 l 1
 466 0 l 1
 111 0 l 1
 111 685 l 1
 459 685 l 1
EndSplineSet
EndChar

StartChar: uni0046
Encoding: 70 70 38
Width: 481
Flags: W
LayerCount: 2
Fore
SplineSet
111 0 m 1
 111 685 l 1
 453 685 l 1
 446 635 l 1
 171 635 l 1
 171 368 l 1
 408 368 l 1
 408 318 l 1
 171 318 l 1
 171 0 l 1
 111 0 l 1
EndSplineSet
EndChar

StartChar: uni0047
Encoding: 71 71 39
Width: 618
Flags: W
LayerCount: 2
Fore
SplineSet
352 696 m 0
 432 696 484 673 540 628 c 1
 504 590 l 1
 456 628 413 645 352 645 c 0
 242 645 129 563 129 345 c 0
 129 135 214 40 349 40 c 0
 405 40 450 52 493 76 c 1
 493 319 l 1
 359 319 l 1
 352 369 l 1
 552 369 l 1
 552 45 l 1
 491 10 423 -11 349 -11 c 0
 179 -11 66 108 66 345 c 0
 66 581 205 696 352 696 c 0
EndSplineSet
EndChar

StartChar: uni0048
Encoding: 72 72 40
Width: 670
Flags: W
LayerCount: 2
Fore
SplineSet
499 0 m 1
 499 335 l 1
 171 335 l 1
 171 0 l 1
 111 0 l 1
 111 685 l 1
 171 685 l 1
 171 386 l 1
 499 386 l 1
 499 685 l 1
 559 685 l 1
 559 0 l 1
 499 0 l 1
EndSplineSet
EndChar

StartChar: uni0049
Encoding: 73 73 41
Width: 282
Flags: W
LayerCount: 2
Fore
SplineSet
171 685 m 1
 171 0 l 1
 111 0 l 1
 111 685 l 1
 171 685 l 1
EndSplineSet
EndChar

StartChar: uni004A
Encoding: 74 74 42
Width: 291
Flags: W
LayerCount: 2
Fore
SplineSet
185 685 m 1
 185 92 l 2
 185 -30 141 -76 29 -119 c 1
 13 -75 l 1
 104 -35 125 2 125 95 c 2
 125 685 l 1
 185 685 l 1
EndSplineSet
EndChar

StartChar: uni004B
Encoding: 75 75 43
Width: 547
Flags: W
LayerCount: 2
Fore
SplineSet
171 685 m 1
 171 0 l 1
 111 0 l 1
 111 685 l 1
 171 685 l 1
530 685 m 1
 246 370 l 1
 547 0 l 1
 474 0 l 1
 175 367 l 1
 461 685 l 1
 530 685 l 1
EndSplineSet
EndChar

StartChar: uni004C
Encoding: 76 76 44
Width: 477
Flags: W
LayerCount: 2
Fore
SplineSet
171 685 m 1
 171 54 l 1
 457 54 l 1
 449 0 l 1
 111 0 l 1
 111 685 l 1
 171 685 l 1
EndSplineSet
EndChar

StartChar: uni004D
Encoding: 77 77 45
Width: 770
Flags: W
LayerCount: 2
Fore
SplineSet
635 685 m 1
 701 0 l 1
 643 0 l 1
 612 328 l 2
 601 438 590 564 586 626 c 1
 414 81 l 1
 357 81 l 1
 179 626 l 1
 176 558 165 435 156 330 c 2
 126 0 l 1
 69 0 l 1
 134 685 l 1
 217 685 l 1
 387 152 l 1
 551 685 l 1
 635 685 l 1
EndSplineSet
EndChar

StartChar: uni004E
Encoding: 78 78 46
Width: 673
Flags: W
LayerCount: 2
Fore
SplineSet
562 685 m 1
 562 0 l 1
 483 0 l 1
 160 619 l 1
 163 572 168 506 168 383 c 2
 168 0 l 1
 111 0 l 1
 111 685 l 1
 188 685 l 1
 513 66 l 1
 511 95 505 180 505 269 c 2
 505 685 l 1
 562 685 l 1
EndSplineSet
EndChar

StartChar: uni004F
Encoding: 79 79 47
Width: 691
Flags: W
LayerCount: 2
Fore
SplineSet
345 696 m 0
 512 696 625 573 625 342 c 0
 625 117 515 -11 345 -11 c 0
 180 -11 66 113 66 341 c 0
 66 567 181 696 345 696 c 0
345 645 m 0
 216 645 129 549 129 341 c 0
 129 136 218 40 345 40 c 0
 479 40 562 136 562 342 c 0
 562 550 477 645 345 645 c 0
EndSplineSet
EndChar

StartChar: uni0050
Encoding: 80 80 48
Width: 570
Flags: W
LayerCount: 2
Fore
SplineSet
272 685 m 2
 431 685 525 622 525 480 c 0
 525 326 418 267 269 267 c 2
 171 267 l 1
 171 0 l 1
 111 0 l 1
 111 685 l 1
 272 685 l 2
269 316 m 2
 383 316 462 353 462 479 c 0
 462 595 391 636 271 636 c 2
 171 636 l 1
 171 316 l 1
 269 316 l 2
EndSplineSet
EndChar

StartChar: uni0051
Encoding: 81 81 49
Width: 690
Flags: W
LayerCount: 2
Fore
SplineSet
452 24 m 1
 527 23 596 1 649 -42 c 1
 609 -93 l 1
 535 -27 467 -9 345 -9 c 0
 180 -9 66 113 66 341 c 0
 66 567 181 696 345 696 c 0
 512 696 625 573 625 342 c 0
 625 153 553 61 452 24 c 1
129 341 m 0
 129 136 218 40 345 40 c 0
 479 40 562 136 562 342 c 0
 562 550 477 645 345 645 c 0
 216 645 129 549 129 341 c 0
EndSplineSet
EndChar

StartChar: uni0052
Encoding: 82 82 50
Width: 590
Flags: W
LayerCount: 2
Fore
SplineSet
485 0 m 1
 308 307 l 1
 171 307 l 1
 171 0 l 1
 111 0 l 1
 111 685 l 1
 277 685 l 2
 442 685 521 620 521 499 c 0
 521 397 465 343 368 318 c 1
 556 0 l 1
 485 0 l 1
171 356 m 1
 285 356 l 2
 394 356 457 399 457 499 c 0
 457 590 406 636 275 636 c 2
 171 636 l 1
 171 356 l 1
EndSplineSet
EndChar

StartChar: uni0053
Encoding: 83 83 51
Width: 539
Flags: W
LayerCount: 2
Fore
SplineSet
267 696 m 0
 356 696 410 668 464 620 c 1
 429 582 l 1
 378 626 332 645 269 645 c 0
 185 645 127 601 127 529 c 0
 127 459 164 427 287 390 c 0
 410 352 485 308 485 187 c 0
 485 70 396 -11 258 -11 c 0
 164 -11 95 22 39 75 c 1
 73 113 l 1
 124 69 177 40 257 40 c 0
 353 40 424 93 424 185 c 0
 424 268 383 302 261 340 c 0
 125 382 66 429 66 528 c 0
 66 625 147 696 267 696 c 0
EndSplineSet
EndChar

StartChar: uni0054
Encoding: 84 84 52
Width: 495
Flags: W
LayerCount: 2
Fore
SplineSet
485 685 m 1
 478 632 l 1
 277 632 l 1
 277 0 l 1
 218 0 l 1
 218 632 l 1
 15 632 l 1
 15 685 l 1
 485 685 l 1
EndSplineSet
EndChar

StartChar: uni0055
Encoding: 85 85 53
Width: 652
Flags: W
LayerCount: 2
Fore
SplineSet
551 685 m 1
 551 214 l 2
 551 82 476 -11 326 -11 c 0
 174 -11 101 82 101 214 c 2
 101 685 l 1
 161 685 l 1
 161 219 l 2
 161 108 211 41 326 41 c 0
 441 41 490 109 490 219 c 2
 490 685 l 1
 551 685 l 1
EndSplineSet
EndChar

StartChar: uni0056
Encoding: 86 86 54
Width: 546
Flags: W
LayerCount: 2
Fore
SplineSet
530 685 m 1
 307 0 l 1
 240 0 l 1
 16 685 l 1
 81 685 l 1
 274 62 l 1
 468 685 l 1
 530 685 l 1
EndSplineSet
EndChar

StartChar: uni0057
Encoding: 87 87 55
Width: 810
Flags: W
LayerCount: 2
Fore
SplineSet
779 685 m 1
 629 0 l 1
 554 0 l 1
 404 618 l 1
 254 0 l 1
 181 0 l 1
 30 685 l 1
 91 685 l 1
 221 56 l 1
 371 685 l 1
 438 685 l 1
 591 56 l 1
 722 685 l 1
 779 685 l 1
EndSplineSet
EndChar

StartChar: uni0058
Encoding: 88 88 56
Width: 514
Flags: W
LayerCount: 2
Fore
SplineSet
290 371 m 1
 504 0 l 1
 436 0 l 1
 254 329 l 1
 75 0 l 1
 10 0 l 1
 219 368 l 1
 31 685 l 1
 99 685 l 1
 255 408 l 1
 411 685 l 1
 476 685 l 1
 290 371 l 1
EndSplineSet
EndChar

StartChar: uni0059
Encoding: 89 89 57
Width: 523
Flags: W
LayerCount: 2
Fore
SplineSet
509 685 m 1
 292 268 l 1
 292 0 l 1
 232 0 l 1
 232 267 l 1
 13 685 l 1
 80 685 l 1
 264 321 l 1
 445 685 l 1
 509 685 l 1
EndSplineSet
EndChar

StartChar: uni005A
Encoding: 90 90 58
Width: 516
Flags: W
LayerCount: 2
Fore
SplineSet
468 685 m 1
 468 636 l 1
 104 53 l 1
 462 53 l 1
 454 0 l 1
 35 0 l 1
 35 50 l 1
 402 633 l 1
 73 633 l 1
 73 685 l 1
 468 685 l 1
EndSplineSet
EndChar

StartChar: uni005B
Encoding: 91 91 59
Width: 317
Flags: W
LayerCount: 2
Fore
SplineSet
251 807 m 1
 251 758 l 1
 139 758 l 1
 139 -64 l 1
 251 -64 l 1
 251 -112 l 1
 84 -112 l 1
 84 807 l 1
 251 807 l 1
EndSplineSet
EndChar

StartChar: uni005C
Encoding: 92 92 60
Width: 520
Flags: W
LayerCount: 2
Fore
SplineSet
169 803 m 1
 401 -87 l 1
 350 -100 l 1
 119 791 l 1
 169 803 l 1
EndSplineSet
EndChar

StartChar: uni005D
Encoding: 93 93 61
Width: 317
Flags: W
LayerCount: 2
Fore
SplineSet
233 807 m 1
 233 -112 l 1
 66 -112 l 1
 66 -64 l 1
 178 -64 l 1
 178 758 l 1
 66 758 l 1
 66 807 l 1
 233 807 l 1
EndSplineSet
EndChar

StartChar: uni005E
Encoding: 94 94 62
Width: 531
Flags: W
LayerCount: 2
Fore
SplineSet
290 832 m 1
 474 527 l 1
 409 527 l 1
 265 775 l 1
 122 527 l 1
 56 527 l 1
 241 832 l 1
 290 832 l 1
EndSplineSet
EndChar

StartChar: uni005F
Encoding: 95 95 63
Width: 520
Flags: W
LayerCount: 2
Fore
SplineSet
29 -122 m 1
 29 -71 l 1
 492 -71 l 1
 492 -122 l 1
 29 -122 l 1
EndSplineSet
EndChar

StartChar: uni0060
Encoding: 96 96 64
Width: 274
Flags: W
LayerCount: 2
Fore
SplineSet
56 782 m 1
 244 679 l 1
 226 645 l 1
 30 730 l 1
 56 782 l 1
EndSplineSet
EndChar

StartChar: uni0061
Encoding: 97 97 65
Width: 531
Flags: W
LayerCount: 2
Fore
SplineSet
426 116 m 2
 426 58 442 41 470 30 c 1
 457 -11 l 1
 411 -1 384 22 376 76 c 1
 338 18 283 -11 213 -11 c 0
 112 -11 51 52 51 145 c 0
 51 255 134 314 268 314 c 2
 368 314 l 1
 368 365 l 2
 368 448 334 485 247 485 c 0
 205 485 157 474 105 455 c 1
 90 499 l 1
 148 522 200 534 255 534 c 0
 374 534 426 475 426 368 c 2
 426 116 l 2
223 36 m 0
 290 36 336 69 368 130 c 1
 368 272 l 1
 277 272 l 2
 172 272 113 231 113 148 c 0
 113 76 154 36 223 36 c 0
EndSplineSet
EndChar

StartChar: uni0062
Encoding: 98 98 66
Width: 574
Flags: W
LayerCount: 2
Fore
SplineSet
320 534 m 0
 439 534 510 438 510 264 c 0
 510 96 438 -11 312 -11 c 0
 246 -11 195 22 161 66 c 1
 155 0 l 1
 105 0 l 1
 105 736 l 1
 163 743 l 1
 163 451 l 1
 200 501 252 534 320 534 c 0
301 37 m 0
 393 37 449 112 449 264 c 0
 449 418 397 486 308 486 c 0
 240 486 198 446 163 396 c 1
 163 119 l 1
 196 71 242 37 301 37 c 0
EndSplineSet
EndChar

StartChar: uni0063
Encoding: 99 99 67
Width: 469
Flags: W
LayerCount: 2
Fore
SplineSet
285 534 m 0
 344 534 389 519 433 481 c 1
 404 443 l 1
 370 470 336 484 288 484 c 0
 193 484 126 410 126 259 c 0
 126 109 192 40 287 40 c 0
 336 40 371 56 408 84 c 1
 436 45 l 1
 395 10 345 -11 286 -11 c 0
 152 -11 64 88 64 258 c 0
 64 426 151 534 285 534 c 0
EndSplineSet
EndChar

StartChar: uni0064
Encoding: 100 100 68
Width: 579
Flags: W
LayerCount: 2
Fore
SplineSet
416 743 m 1
 474 736 l 1
 474 0 l 1
 424 0 l 1
 417 80 l 1
 386 28 336 -11 260 -11 c 0
 138 -11 64 93 64 259 c 0
 64 420 141 534 269 534 c 0
 340 534 386 500 416 463 c 1
 416 743 l 1
269 37 m 0
 338 37 380 72 416 134 c 1
 416 407 l 1
 385 451 343 486 279 486 c 0
 187 486 125 407 126 260 c 0
 126 114 181 37 269 37 c 0
EndSplineSet
EndChar

StartChar: uni0065
Encoding: 101 101 69
Width: 535
Flags: W
LayerCount: 2
Fore
SplineSet
477 281 m 0
 477 265 476 249 475 239 c 1
 126 239 l 1
 133 97 199 38 289 38 c 0
 346 38 384 56 430 90 c 1
 457 53 l 1
 408 13 355 -11 286 -11 c 0
 148 -11 64 89 64 257 c 0
 64 424 145 534 273 534 c 0
 409 534 477 435 477 281 c 0
420 284 m 1
 420 299 l 2
 420 413 374 486 275 486 c 0
 194 486 132 425 125 284 c 1
 420 284 l 1
EndSplineSet
EndChar

StartChar: uni0066
Encoding: 102 102 70
Width: 321
Flags: W
LayerCount: 2
Fore
SplineSet
260 695 m 0
 201 695 170 669 170 607 c 2
 170 523 l 1
 308 523 l 1
 300 476 l 1
 170 476 l 1
 170 0 l 1
 112 0 l 1
 112 476 l 1
 21 476 l 1
 21 523 l 1
 112 523 l 1
 112 609 l 2
 112 691 166 743 257 743 c 0
 302 743 340 733 379 715 c 1
 359 672 l 1
 325 687 293 695 260 695 c 0
EndSplineSet
EndChar

StartChar: uni0067
Encoding: 103 103 71
Width: 506
Flags: W
LayerCount: 2
Fore
SplineSet
477 568 m 1
 495 512 l 1
 459 502 413 498 350 497 c 1
 405 471 439 427 439 355 c 0
 439 253 368 183 250 183 c 0
 225 183 202 186 182 193 c 1
 157 179 142 157 142 133 c 0
 142 102 162 79 225 79 c 2
 310 79 l 2
 414 79 478 23 478 -55 c 0
 478 -149 404 -205 251 -205 c 0
 93 -205 33 -159 33 -55 c 1
 87 -55 l 1
 88 -128 126 -157 251 -157 c 0
 373 -157 419 -120 419 -58 c 0
 419 -2 375 29 301 29 c 2
 216 29 l 2
 129 29 87 71 87 121 c 0
 87 156 108 187 144 210 c 1
 84 241 56 287 56 357 c 0
 56 462 133 534 248 534 c 0
 388 532 426 547 477 568 c 1
248 489 m 0
 159 489 116 434 116 357 c 0
 116 273 168 225 248 225 c 0
 333 225 380 273 380 356 c 0
 380 438 337 489 248 489 c 0
EndSplineSet
EndChar

StartChar: uni0068
Encoding: 104 104 72
Width: 581
Flags: W
LayerCount: 2
Fore
SplineSet
336 534 m 0
 430 534 481 473 481 374 c 2
 481 0 l 1
 423 0 l 1
 423 366 l 2
 423 451 388 487 325 487 c 0
 254 487 205 443 163 379 c 1
 163 0 l 1
 105 0 l 1
 105 736 l 1
 163 743 l 1
 163 437 l 1
 206 496 262 534 336 534 c 0
EndSplineSet
EndChar

StartChar: uni0069
Encoding: 105 105 73
Width: 267
Flags: W
LayerCount: 2
Fore
SplineSet
133 753 m 0
 160 753 177 734 177 711 c 0
 177 688 160 669 133 669 c 0
 107 669 90 688 90 711 c 0
 90 734 107 753 133 753 c 0
163 523 m 1
 163 0 l 1
 105 0 l 1
 105 523 l 1
 163 523 l 1
EndSplineSet
EndChar

StartChar: uni006A
Encoding: 106 106 74
Width: 268
Flags: W
LayerCount: 2
Fore
SplineSet
134 753 m 0
 161 753 178 734 178 711 c 0
 178 688 161 669 134 669 c 0
 108 669 91 688 91 711 c 0
 91 734 108 753 134 753 c 0
164 523 m 1
 164 19 l 2
 164 -121 118 -159 23 -203 c 1
 6 -161 l 1
 75 -127 106 -99 106 17 c 2
 106 523 l 1
 164 523 l 1
EndSplineSet
EndChar

StartChar: uni006B
Encoding: 107 107 75
Width: 487
Flags: W
LayerCount: 2
Fore
SplineSet
163 743 m 1
 163 0 l 1
 105 0 l 1
 105 736 l 1
 163 743 l 1
456 523 m 1
 236 289 l 1
 479 0 l 1
 409 0 l 1
 169 286 l 1
 388 523 l 1
 456 523 l 1
EndSplineSet
EndChar

StartChar: uni006C
Encoding: 108 108 76
Width: 290
Flags: W
LayerCount: 2
Fore
SplineSet
192 -11 m 0
 137 -11 99 21 99 88 c 2
 99 736 l 1
 157 743 l 1
 157 90 l 2
 157 56 171 39 199 39 c 0
 212 39 225 41 236 46 c 1
 251 3 l 1
 235 -5 214 -11 192 -11 c 0
EndSplineSet
EndChar

StartChar: uni006D
Encoding: 109 109 77
Width: 849
Flags: W
LayerCount: 2
Fore
SplineSet
614 534 m 0
 699 534 750 473 750 374 c 2
 750 0 l 1
 692 0 l 1
 692 366 l 2
 692 451 657 487 603 487 c 0
 540 487 496 443 456 379 c 1
 456 0 l 1
 398 0 l 1
 398 366 l 2
 398 451 364 487 310 487 c 0
 247 487 202 443 163 379 c 1
 163 0 l 1
 105 0 l 1
 105 523 l 1
 155 523 l 1
 160 436 l 1
 200 495 253 534 321 534 c 0
 387 534 434 495 450 430 c 1
 490 492 545 534 614 534 c 0
EndSplineSet
EndChar

StartChar: uni006E
Encoding: 110 110 78
Width: 581
Flags: W
LayerCount: 2
Fore
SplineSet
336 534 m 0
 431 534 481 475 481 374 c 2
 481 0 l 1
 423 0 l 1
 423 366 l 2
 423 452 389 487 325 487 c 0
 254 487 205 443 163 379 c 1
 163 0 l 1
 105 0 l 1
 105 523 l 1
 155 523 l 1
 160 435 l 1
 202 494 261 534 336 534 c 0
EndSplineSet
EndChar

StartChar: uni006F
Encoding: 111 111 79
Width: 571
Flags: W
LayerCount: 2
Fore
SplineSet
286 534 m 0
 425 534 507 434 507 263 c 0
 507 94 423 -11 285 -11 c 0
 146 -11 64 93 64 261 c 0
 64 429 149 534 286 534 c 0
286 485 m 0
 187 485 126 411 126 261 c 0
 126 114 185 38 285 38 c 0
 385 38 446 113 446 263 c 0
 446 410 387 485 286 485 c 0
EndSplineSet
EndChar

StartChar: uni0070
Encoding: 112 112 80
Width: 574
Flags: W
LayerCount: 2
Fore
SplineSet
320 534 m 0
 449 534 510 433 510 264 c 0
 510 99 442 -11 312 -11 c 0
 246 -11 196 19 163 61 c 1
 163 -197 l 1
 105 -205 l 1
 105 523 l 1
 155 523 l 1
 159 446 l 1
 197 500 252 534 320 534 c 0
301 38 m 0
 397 38 449 114 449 264 c 0
 449 413 401 486 310 486 c 0
 243 486 199 446 163 396 c 1
 163 117 l 1
 196 69 242 38 301 38 c 0
EndSplineSet
EndChar

StartChar: uni0071
Encoding: 113 113 81
Width: 579
Flags: W
LayerCount: 2
Fore
SplineSet
424 523 m 1
 474 523 l 1
 474 -205 l 1
 416 -197 l 1
 416 76 l 1
 385 26 334 -11 260 -11 c 0
 138 -11 64 93 64 259 c 0
 64 420 141 534 270 534 c 0
 344 534 389 498 420 460 c 1
 424 523 l 1
270 37 m 0
 339 37 381 72 416 133 c 1
 416 408 l 1
 385 452 343 486 280 486 c 0
 187 486 125 407 126 260 c 0
 126 114 181 37 270 37 c 0
EndSplineSet
EndChar

StartChar: uni0072
Encoding: 114 114 82
Width: 372
Flags: W
LayerCount: 2
Fore
SplineSet
307 534 m 0
 328 534 346 532 359 528 c 1
 348 473 l 1
 334 477 320 479 302 479 c 0
 230 479 191 427 163 320 c 1
 163 0 l 1
 105 0 l 1
 105 523 l 1
 155 523 l 1
 160 406 l 1
 187 492 235 534 307 534 c 0
EndSplineSet
EndChar

StartChar: uni0073
Encoding: 115 115 83
Width: 458
Flags: W
LayerCount: 2
Fore
SplineSet
231 534 m 0
 298 534 349 514 398 476 c 1
 371 438 l 1
 325 470 286 486 233 486 c 0
 164 486 117 452 117 398 c 0
 117 346 151 324 244 299 c 0
 359 269 412 230 412 141 c 0
 412 44 328 -11 223 -11 c 0
 138 -11 81 18 36 56 c 1
 68 93 l 1
 113 58 158 38 223 38 c 0
 298 38 351 74 351 138 c 0
 351 201 322 224 214 254 c 0
 102 283 57 324 57 397 c 0
 57 477 132 534 231 534 c 0
EndSplineSet
EndChar

StartChar: uni0074
Encoding: 116 116 84
Width: 344
Flags: W
LayerCount: 2
Fore
SplineSet
321 62 m 1
 344 22 l 1
 312 1 276 -11 234 -11 c 0
 155 -11 106 36 106 127 c 2
 106 476 l 1
 18 476 l 1
 18 523 l 1
 106 523 l 1
 106 648 l 1
 164 655 l 1
 164 523 l 1
 299 523 l 1
 292 476 l 1
 164 476 l 1
 164 130 l 2
 164 69 188 39 241 39 c 0
 270 39 295 47 321 62 c 1
EndSplineSet
EndChar

StartChar: uni0075
Encoding: 117 117 85
Width: 576
Flags: W
LayerCount: 2
Fore
SplineSet
471 523 m 1
 471 0 l 1
 422 0 l 1
 418 93 l 1
 382 31 328 -11 247 -11 c 0
 154 -11 99 46 99 149 c 2
 99 523 l 1
 157 523 l 1
 157 155 l 2
 157 72 192 37 261 37 c 0
 329 37 377 82 413 144 c 1
 413 523 l 1
 471 523 l 1
EndSplineSet
EndChar

StartChar: uni0076
Encoding: 118 118 86
Width: 470
Flags: W
LayerCount: 2
Fore
SplineSet
455 523 m 1
 274 0 l 1
 202 0 l 1
 15 523 l 1
 79 523 l 1
 239 51 l 1
 393 523 l 1
 455 523 l 1
EndSplineSet
EndChar

StartChar: uni0077
Encoding: 119 119 87
Width: 698
Flags: W
LayerCount: 2
Fore
SplineSet
673 523 m 1
 545 0 l 1
 467 0 l 1
 351 469 l 1
 233 0 l 1
 156 0 l 1
 25 523 l 1
 85 523 l 1
 197 45 l 1
 319 523 l 1
 385 523 l 1
 505 44 l 1
 616 523 l 1
 673 523 l 1
EndSplineSet
EndChar

StartChar: uni0078
Encoding: 120 120 88
Width: 459
Flags: W
LayerCount: 2
Fore
SplineSet
264 280 m 1
 448 0 l 1
 378 0 l 1
 227 243 l 1
 77 0 l 1
 10 0 l 1
 194 278 l 1
 34 523 l 1
 102 523 l 1
 230 314 l 1
 359 523 l 1
 425 523 l 1
 264 280 l 1
EndSplineSet
EndChar

StartChar: uni0079
Encoding: 121 121 89
Width: 468
Flags: W
LayerCount: 2
Fore
SplineSet
452 523 m 1
 273 -2 l 2
 234 -116 187 -179 59 -204 c 1
 53 -159 l 1
 158 -133 184 -92 217 0 c 1
 197 0 l 1
 15 523 l 1
 78 523 l 1
 236 43 l 1
 391 523 l 1
 452 523 l 1
EndSplineSet
EndChar

StartChar: uni007A
Encoding: 122 122 90
Width: 417
Flags: W
LayerCount: 2
Fore
SplineSet
388 523 m 1
 388 478 l 1
 96 50 l 1
 386 50 l 1
 380 0 l 1
 28 0 l 1
 28 45 l 1
 320 473 l 1
 52 473 l 1
 52 523 l 1
 388 523 l 1
EndSplineSet
EndChar

StartChar: uni007B
Encoding: 123 123 91
Width: 326
Flags: W
LayerCount: 2
Fore
SplineSet
262 828 m 1
 262 783 l 1
 199 783 175 759 175 705 c 2
 175 451 l 2
 175 382 149 362 99 349 c 1
 149 336 175 317 175 247 c 2
 175 -6 l 2
 175 -60 199 -84 262 -84 c 1
 262 -129 l 1
 164 -129 120 -92 120 -4 c 2
 120 251 l 2
 120 305 94 324 44 324 c 1
 44 374 l 1
 94 374 120 394 120 448 c 2
 120 703 l 2
 120 791 164 828 262 828 c 1
EndSplineSet
EndChar

StartChar: uni007C
Encoding: 124 124 92
Width: 407
Flags: W
LayerCount: 2
Fore
SplineSet
230 804 m 1
 230 -100 l 1
 176 -100 l 1
 176 804 l 1
 230 804 l 1
EndSplineSet
EndChar

StartChar: uni007D
Encoding: 125 125 93
Width: 326
Flags: W
LayerCount: 2
Fore
SplineSet
64 828 m 1
 161 828 206 791 206 703 c 2
 206 448 l 2
 206 394 232 374 282 374 c 1
 282 324 l 1
 232 324 206 305 206 251 c 2
 206 -4 l 2
 206 -92 161 -129 64 -129 c 1
 64 -84 l 1
 127 -84 151 -60 151 -6 c 2
 151 247 l 2
 151 317 177 336 227 349 c 1
 177 362 151 382 151 451 c 2
 151 705 l 2
 151 759 127 783 64 783 c 1
 64 828 l 1
EndSplineSet
EndChar

StartChar: uni007E
Encoding: 126 126 94
Width: 472
Flags: W
LayerCount: 2
Fore
SplineSet
312 264 m 0
 248 264 203 322 158 322 c 0
 125 322 106 300 88 275 c 1
 51 295 l 1
 75 333 105 371 162 371 c 0
 227 371 270 313 316 313 c 0
 348 313 366 332 384 357 c 1
 420 337 l 1
 397 299 367 264 312 264 c 0
EndSplineSet
EndChar

StartChar: uni00A1
Encoding: 161 161 96
Width: 240
Flags: W
LayerCount: 2
Fore
SplineSet
120 475 m 0
 148 475 168 454 168 427 c 0
 168 401 148 380 120 380 c 0
 92 380 72 401 72 427 c 0
 72 454 92 475 120 475 c 0
147 249 m 1
 152 -197 l 1
 90 -197 l 1
 95 249 l 1
 147 249 l 1
EndSplineSet
EndChar

StartChar: uni00A2
Encoding: 162 162 97
Width: 469
Flags: W
LayerCount: 2
Fore
SplineSet
436 45 m 1
 401 15 359 -5 311 -10 c 1
 311 -150 l 1
 260 -150 l 1
 260 -10 l 1
 141 2 64 99 64 258 c 0
 64 416 141 521 261 533 c 1
 261 680 l 1
 311 680 l 1
 311 533 l 1
 358 529 396 513 433 481 c 1
 404 443 l 1
 370 470 336 484 288 484 c 0
 193 484 126 410 126 259 c 0
 126 109 192 40 287 40 c 0
 336 40 371 56 408 84 c 1
 436 45 l 1
EndSplineSet
EndChar

StartChar: uni00A3
Encoding: 163 163 98
Width: 509
Flags: W
LayerCount: 2
Fore
SplineSet
192 171 m 2
 192 105 174 76 125 51 c 1
 453 51 l 1
 446 0 l 1
 51 0 l 1
 51 48 l 1
 114 76 134 100 134 170 c 2
 134 331 l 1
 69 331 l 1
 69 374 l 1
 134 374 l 1
 134 500 l 2
 134 599 193 676 306 676 c 0
 374 676 424 652 468 601 c 1
 429 570 l 1
 396 608 362 627 308 627 c 0
 232 627 192 576 192 499 c 2
 192 374 l 1
 406 374 l 1
 406 331 l 1
 192 331 l 1
 192 171 l 2
EndSplineSet
EndChar

StartChar: uni00A4
Encoding: 164 164 99
Width: 560
Flags: W
LayerCount: 2
Fore
SplineSet
473 341 m 0
 473 293 459 249 432 215 c 1
 511 138 l 1
 475 102 l 1
 396 181 l 1
 365 159 326 146 280 146 c 0
 235 146 195 160 165 183 c 1
 84 102 l 1
 49 138 l 1
 130 217 l 1
 104 251 90 294 90 341 c 0
 90 387 104 430 129 463 c 1
 49 543 l 1
 85 579 l 1
 165 499 l 1
 196 522 235 535 280 535 c 0
 326 535 365 522 396 500 c 1
 476 579 l 1
 511 543 l 1
 433 465 l 1
 459 431 473 388 473 341 c 0
281 193 m 0
 372 193 417 253 417 341 c 0
 417 429 372 489 281 489 c 0
 192 489 146 429 146 341 c 0
 146 253 192 193 281 193 c 0
EndSplineSet
EndChar

StartChar: uni00A5
Encoding: 165 165 100
Width: 512
Flags: W
LayerCount: 2
Fore
SplineSet
499 665 m 1
 304 338 l 1
 422 338 l 1
 422 295 l 1
 286 295 l 1
 286 192 l 1
 422 192 l 1
 422 149 l 1
 286 149 l 1
 286 0 l 1
 227 0 l 1
 227 149 l 1
 91 149 l 1
 91 192 l 1
 227 192 l 1
 227 295 l 1
 91 295 l 1
 91 338 l 1
 208 338 l 1
 13 665 l 1
 79 665 l 1
 258 353 l 1
 436 665 l 1
 499 665 l 1
EndSplineSet
EndChar

StartChar: uni00A6
Encoding: 166 166 101
Width: 407
Flags: W
LayerCount: 2
Fore
SplineSet
230 804 m 1
 230 443 l 1
 176 443 l 1
 176 804 l 1
 230 804 l 1
230 262 m 1
 230 -100 l 1
 176 -100 l 1
 176 262 l 1
 230 262 l 1
EndSplineSet
EndChar

StartChar: uni00A7
Encoding: 167 167 102
Width: 532
Flags: W
LayerCount: 2
Fore
SplineSet
372 167 m 1
 409 143 426 113 426 68 c 0
 426 -16 352 -68 251 -68 c 0
 183 -68 132 -49 88 -21 c 1
 113 20 l 1
 154 -7 197 -20 253 -20 c 0
 323 -20 367 14 367 63 c 0
 367 114 346 134 243 170 c 0
 131 207 84 238 84 317 c 0
 84 366 113 409 163 441 c 1
 125 466 109 495 109 540 c 0
 109 623 181 675 276 675 c 0
 346 675 392 654 434 626 c 1
 410 587 l 1
 367 614 329 627 276 627 c 0
 208 627 167 591 167 543 c 0
 167 493 190 471 297 435 c 0
 404 399 449 362 449 289 c 0
 449 239 422 200 372 167 c 1
141 323 m 0
 141 268 165 248 260 215 c 0
 289 205 314 196 335 186 c 1
 375 216 392 246 392 282 c 0
 392 333 373 358 274 392 c 0
 245 402 220 412 199 422 c 1
 160 392 141 358 141 323 c 0
EndSplineSet
EndChar

StartChar: uni00A8
Encoding: 168 168 103
Width: 329
Flags: W
LayerCount: 2
Fore
SplineSet
70 742 m 0
 93 742 110 724 110 702 c 0
 110 680 93 663 70 663 c 0
 47 663 30 680 30 702 c 0
 30 724 47 742 70 742 c 0
259 742 m 0
 282 742 299 724 299 702 c 0
 299 680 282 663 259 663 c 0
 236 663 219 680 219 702 c 0
 219 724 236 742 259 742 c 0
EndSplineSet
EndChar

StartChar: uni00A9
Encoding: 169 169 104
Width: 810
Flags: W
LayerCount: 2
Fore
SplineSet
405 736 m 0
 572 736 702 612 702 435 c 0
 702 259 572 134 405 134 c 0
 238 134 108 258 108 435 c 0
 108 611 238 736 405 736 c 0
406 697 m 0
 260 697 153 590 153 435 c 0
 153 278 260 173 406 173 c 0
 551 173 657 280 657 435 c 0
 657 591 551 697 406 697 c 0
406 616 m 0
 451 616 480 603 509 581 c 1
 485 548 l 1
 462 565 440 573 408 573 c 0
 361 573 310 540 310 436 c 0
 310 340 352 298 409 298 c 0
 446 298 470 311 493 327 c 1
 515 294 l 1
 490 273 456 254 407 254 c 0
 320 254 259 319 259 436 c 0
 259 559 332 616 406 616 c 0
EndSplineSet
EndChar

StartChar: uni00AA
Encoding: 170 170 105
Width: 500
Flags: W
LayerCount: 2
Fore
SplineSet
255 521 m 2
 331 521 l 1
 331 555 l 2
 331 614 306 639 238 639 c 0
 204 639 166 631 125 617 c 1
 110 659 l 1
 157 676 200 685 244 685 c 0
 344 685 388 642 388 559 c 2
 388 375 l 2
 388 332 400 321 421 313 c 1
 409 274 l 1
 371 281 348 298 340 337 c 1
 309 294 265 274 210 274 c 0
 128 274 79 321 79 392 c 0
 79 476 147 521 255 521 c 2
221 319 m 0
 271 319 307 343 331 385 c 1
 331 481 l 1
 263 481 l 2
 184 481 139 454 139 395 c 0
 139 345 170 319 221 319 c 0
80 51 m 1
 435 51 l 1
 435 0 l 1
 80 0 l 1
 80 51 l 1
EndSplineSet
EndChar

StartChar: uni00AB
Encoding: 171 171 106
Width: 555
Flags: W
LayerCount: 2
Fore
SplineSet
235 520 m 1
 271 495 l 1
 134 288 l 1
 271 80 l 1
 235 56 l 1
 71 268 l 1
 71 307 l 1
 235 520 l 1
448 520 m 1
 484 495 l 1
 347 288 l 1
 484 80 l 1
 448 56 l 1
 285 268 l 1
 285 307 l 1
 448 520 l 1
EndSplineSet
EndChar

StartChar: uni00AC
Encoding: 172 172 107
Width: 499
Flags: W
LayerCount: 2
Fore
SplineSet
430 347 m 1
 430 168 l 1
 375 168 l 1
 375 296 l 1
 69 296 l 1
 69 347 l 1
 430 347 l 1
EndSplineSet
EndChar

StartChar: uni00AD
Encoding: 173 173 108
Width: 401
Flags: W
LayerCount: 2
Fore
SplineSet
68 288 m 1
 68 338 l 1
 333 338 l 1
 333 288 l 1
 68 288 l 1
EndSplineSet
EndChar

StartChar: uni00AE
Encoding: 174 174 109
Width: 639
Flags: W
LayerCount: 2
Fore
SplineSet
319 737 m 0
 455 737 560 633 560 497 c 0
 560 364 455 257 319 257 c 0
 185 257 80 360 80 495 c 0
 80 628 185 737 319 737 c 0
319 293 m 0
 433 293 520 381 520 497 c 0
 520 615 434 700 319 700 c 0
 207 700 120 611 120 495 c 0
 120 378 207 293 319 293 c 0
419 555 m 0
 419 515 393 492 355 482 c 1
 429 364 l 1
 379 364 l 1
 315 475 l 1
 278 475 l 1
 278 364 l 1
 236 364 l 1
 236 636 l 1
 305 636 l 2
 382 636 419 609 419 555 c 0
278 601 m 1
 278 510 l 1
 317 510 l 2
 353 510 376 522 376 555 c 0
 376 590 353 601 311 601 c 2
 278 601 l 1
EndSplineSet
EndChar

StartChar: uni00AF
Encoding: 175 175 110
Width: 301
Flags: W
LayerCount: 2
Fore
SplineSet
271 676 m 1
 30 676 l 1
 30 723 l 1
 271 723 l 1
 271 676 l 1
EndSplineSet
EndChar

StartChar: uni00B0
Encoding: 176 176 111
Width: 521
Flags: W
LayerCount: 2
Fore
SplineSet
219 395 m 0
 143 395 69 450 69 546 c 0
 69 640 143 696 219 696 c 0
 300 696 370 640 370 545 c 0
 370 452 300 395 219 395 c 0
219 439 m 0
 277 439 318 478 318 545 c 0
 318 613 277 652 219 652 c 0
 165 652 120 614 120 546 c 0
 120 478 165 439 219 439 c 0
EndSplineSet
EndChar

StartChar: uni00B1
Encoding: 177 177 112
Width: 493
Flags: W
LayerCount: 2
Fore
SplineSet
274 518 m 1
 274 366 l 1
 424 366 l 1
 424 316 l 1
 274 316 l 1
 274 164 l 1
 220 164 l 1
 220 316 l 1
 70 316 l 1
 70 366 l 1
 220 366 l 1
 220 518 l 1
 274 518 l 1
69 0 m 1
 69 51 l 1
 424 51 l 1
 424 0 l 1
 69 0 l 1
EndSplineSet
EndChar

StartChar: uni00B2
Encoding: 178 178 113
Width: 400
Flags: W
LayerCount: 2
Fore
SplineSet
197 743 m 0
 275 743 322 694 322 630 c 0
 322 553 277 504 135 366 c 1
 334 366 l 1
 327 323 l 1
 75 323 l 1
 75 364 l 1
 233 521 269 562 269 626 c 0
 269 674 239 700 193 700 c 0
 153 700 126 684 101 655 c 1
 66 681 l 1
 102 723 143 743 197 743 c 0
EndSplineSet
EndChar

StartChar: uni00B3
Encoding: 179 179 114
Width: 400
Flags: W
LayerCount: 2
Fore
SplineSet
199 744 m 0
 277 744 325 700 325 640 c 0
 325 587 290 553 239 543 c 1
 293 540 336 505 336 440 c 0
 336 368 281 315 192 315 c 0
 138 315 96 335 63 371 c 1
 94 399 l 1
 124 368 155 357 189 357 c 0
 250 357 283 391 283 441 c 0
 283 499 247 521 192 521 c 2
 162 521 l 1
 169 560 l 1
 189 560 l 2
 232 560 273 583 273 635 c 0
 273 678 242 703 196 703 c 0
 160 703 133 692 101 665 c 1
 74 696 l 1
 110 727 148 744 199 744 c 0
EndSplineSet
EndChar

StartChar: uni00B4
Encoding: 180 180 115
Width: 274
Flags: W
LayerCount: 2
Fore
SplineSet
218 782 m 1
 244 730 l 1
 49 645 l 1
 30 679 l 1
 218 782 l 1
EndSplineSet
EndChar

StartChar: uni00B5
Encoding: 181 181 116
Width: 584
Flags: W
LayerCount: 2
Fore
SplineSet
498 -2 m 1
 444 -9 l 1
 428 31 423 57 419 102 c 1
 385 42 335 -11 260 -11 c 0
 204 -11 172 12 152 52 c 1
 159 10 162 -25 162 -80 c 2
 162 -197 l 1
 105 -203 l 1
 105 523 l 1
 163 523 l 1
 163 150 l 2
 163 69 208 40 261 40 c 0
 323 40 373 80 412 157 c 1
 412 523 l 1
 470 523 l 1
 470 177 l 2
 470 99 482 45 498 -2 c 1
EndSplineSet
EndChar

StartChar: uni00B6
Encoding: 182 182 117
Width: 708
Flags: W
LayerCount: 2
Fore
SplineSet
333 685 m 2
 557 685 l 1
 557 -197 l 1
 503 -206 l 1
 503 637 l 1
 375 637 l 1
 375 -197 l 1
 321 -206 l 1
 321 294 l 1
 161 300 101 385 101 490 c 0
 101 615 187 685 333 685 c 2
EndSplineSet
EndChar

StartChar: uni00B7
Encoding: 183 183 118
Width: 207
Flags: W
LayerCount: 2
Fore
SplineSet
103 366 m 0
 132 366 151 345 151 319 c 0
 151 292 132 271 103 271 c 0
 76 271 55 292 55 319 c 0
 55 345 76 366 103 366 c 0
EndSplineSet
EndChar

StartChar: uni00B8
Encoding: 184 184 119
Width: 245
Flags: W
LayerCount: 2
Fore
SplineSet
123 16 m 1
 123 -64 l 1
 188 -69 215 -99 215 -140 c 0
 215 -197 167 -227 110 -227 c 0
 75 -227 48 -218 30 -206 c 1
 48 -170 l 1
 64 -179 83 -185 109 -185 c 0
 139 -185 164 -172 164 -140 c 0
 164 -111 138 -96 75 -96 c 1
 85 16 l 1
 123 16 l 1
EndSplineSet
EndChar

StartChar: uni00B9
Encoding: 185 185 120
Width: 400
Flags: W
LayerCount: 2
Fore
SplineSet
258 737 m 1
 258 323 l 1
 207 323 l 1
 207 682 l 1
 104 622 l 1
 81 658 l 1
 214 737 l 1
 258 737 l 1
EndSplineSet
EndChar

StartChar: uni00BA
Encoding: 186 186 121
Width: 500
Flags: W
LayerCount: 2
Fore
SplineSet
249 685 m 0
 362 685 430 611 430 481 c 0
 430 353 361 274 248 274 c 0
 135 274 68 352 68 479 c 0
 68 606 137 685 249 685 c 0
250 639 m 0
 174 639 128 587 128 479 c 0
 128 374 173 320 249 320 c 0
 325 320 370 373 370 481 c 0
 370 587 327 639 250 639 c 0
71 0 m 1
 71 51 l 1
 426 51 l 1
 426 0 l 1
 71 0 l 1
EndSplineSet
EndChar

StartChar: uni00BB
Encoding: 187 187 122
Width: 546
Flags: W
LayerCount: 2
Fore
SplineSet
107 520 m 1
 271 307 l 1
 271 268 l 1
 107 56 l 1
 71 80 l 1
 209 288 l 1
 71 495 l 1
 107 520 l 1
311 520 m 1
 474 307 l 1
 474 268 l 1
 311 56 l 1
 275 80 l 1
 412 288 l 1
 275 495 l 1
 311 520 l 1
EndSplineSet
EndChar

StartChar: uni00BC
Encoding: 188 188 123
Width: 914
Flags: W
LayerCount: 2
Fore
SplineSet
641 747 m 1
 681 728 l 1
 274 -71 l 1
 233 -51 l 1
 641 747 l 1
258 271 m 1
 207 271 l 1
 207 630 l 1
 104 570 l 1
 81 606 l 1
 214 685 l 1
 258 685 l 1
 258 271 l 1
861 145 m 1
 861 103 l 1
 805 103 l 1
 805 0 l 1
 755 0 l 1
 755 103 l 1
 566 103 l 1
 566 140 l 1
 696 421 l 1
 740 404 l 1
 620 145 l 1
 755 145 l 1
 760 260 l 1
 805 260 l 1
 805 145 l 1
 861 145 l 1
EndSplineSet
EndChar

StartChar: uni00BD
Encoding: 189 189 124
Width: 914
Flags: W
LayerCount: 2
Fore
SplineSet
641 747 m 1
 681 728 l 1
 274 -71 l 1
 233 -51 l 1
 641 747 l 1
258 685 m 1
 258 271 l 1
 207 271 l 1
 207 630 l 1
 104 570 l 1
 81 606 l 1
 214 685 l 1
 258 685 l 1
711 420 m 0
 789 420 836 371 836 307 c 0
 836 230 791 181 649 43 c 1
 848 43 l 1
 841 0 l 1
 589 0 l 1
 589 41 l 1
 747 198 783 239 783 303 c 0
 783 351 753 377 707 377 c 0
 667 377 640 361 615 332 c 1
 580 358 l 1
 616 400 657 420 711 420 c 0
EndSplineSet
EndChar

StartChar: uni00BE
Encoding: 190 190 125
Width: 914
Flags: W
LayerCount: 2
Fore
SplineSet
641 747 m 1
 681 728 l 1
 274 -71 l 1
 233 -51 l 1
 641 747 l 1
336 388 m 0
 336 316 281 263 192 263 c 0
 138 263 96 283 63 319 c 1
 94 347 l 1
 124 316 155 305 189 305 c 0
 250 305 283 339 283 389 c 0
 283 447 247 469 192 469 c 2
 162 469 l 1
 169 508 l 1
 189 508 l 2
 232 508 273 531 273 583 c 0
 273 626 242 651 196 651 c 0
 160 651 133 640 101 613 c 1
 74 644 l 1
 110 675 148 692 199 692 c 0
 277 692 325 648 325 588 c 0
 325 535 290 501 239 491 c 1
 293 488 336 453 336 388 c 0
861 145 m 1
 861 103 l 1
 805 103 l 1
 805 0 l 1
 755 0 l 1
 755 103 l 1
 566 103 l 1
 566 140 l 1
 696 421 l 1
 740 404 l 1
 620 145 l 1
 755 145 l 1
 760 260 l 1
 805 260 l 1
 805 145 l 1
 861 145 l 1
EndSplineSet
EndChar

StartChar: uni00BF
Encoding: 191 191 126
Width: 447
Flags: W
LayerCount: 2
Fore
SplineSet
250 380 m 0
 221 380 202 401 202 427 c 0
 202 454 221 475 250 475 c 0
 277 475 297 454 297 427 c 0
 297 401 277 380 250 380 c 0
213 -206 m 0
 103 -206 41 -137 41 -64 c 0
 41 89 223 72 223 204 c 2
 223 249 l 1
 280 249 l 1
 280 200 l 2
 280 44 102 59 102 -62 c 0
 102 -118 146 -157 216 -157 c 0
 276 -157 321 -133 366 -82 c 1
 407 -114 l 1
 352 -176 292 -206 213 -206 c 0
EndSplineSet
EndChar

StartChar: uni00C0
Encoding: 192 192 127
Width: 565
Flags: W
LayerCount: 2
Fore
SplineSet
197 888 m 1
 385 792 l 1
 369 758 l 1
 171 836 l 1
 197 888 l 1
485 0 m 1
 425 187 l 1
 137 187 l 1
 77 0 l 1
 16 0 l 1
 245 685 l 1
 320 685 l 1
 548 0 l 1
 485 0 l 1
153 238 m 1
 409 238 l 1
 282 636 l 1
 153 238 l 1
EndSplineSet
EndChar

StartChar: uni00C1
Encoding: 193 193 128
Width: 565
Flags: W
LayerCount: 2
Fore
SplineSet
389 836 m 1
 191 758 l 1
 175 792 l 1
 363 888 l 1
 389 836 l 1
485 0 m 1
 425 187 l 1
 137 187 l 1
 77 0 l 1
 16 0 l 1
 245 685 l 1
 320 685 l 1
 548 0 l 1
 485 0 l 1
154 238 m 1
 409 238 l 1
 282 636 l 1
 154 238 l 1
EndSplineSet
EndChar

StartChar: uni00C2
Encoding: 194 194 129
Width: 565
Flags: W
LayerCount: 2
Fore
SplineSet
160 762 m 1
 134 792 l 1
 264 894 l 1
 300 894 l 1
 429 792 l 1
 403 762 l 1
 282 842 l 1
 160 762 l 1
485 0 m 1
 425 187 l 1
 137 187 l 1
 77 0 l 1
 16 0 l 1
 245 685 l 1
 320 685 l 1
 548 0 l 1
 485 0 l 1
153 238 m 1
 409 238 l 1
 282 636 l 1
 153 238 l 1
EndSplineSet
EndChar

StartChar: uni00C3
Encoding: 195 195 130
Width: 565
Flags: W
LayerCount: 2
Fore
SplineSet
341 792 m 0
 314 792 290 805 271 818 c 0
 254 830 240 838 224 838 c 0
 201 838 186 825 168 798 c 1
 132 816 l 1
 154 856 184 884 224 884 c 0
 249 884 270 873 290 859 c 0
 307 848 323 839 341 839 c 0
 362 839 377 851 397 882 c 1
 433 864 l 1
 409 814 377 792 341 792 c 0
485 0 m 1
 425 187 l 1
 137 187 l 1
 77 0 l 1
 16 0 l 1
 245 685 l 1
 320 685 l 1
 548 0 l 1
 485 0 l 1
153 238 m 1
 409 238 l 1
 282 636 l 1
 153 238 l 1
EndSplineSet
EndChar

StartChar: uni00C4
Encoding: 196 196 131
Width: 565
Flags: W
LayerCount: 2
Fore
SplineSet
188 868 m 0
 211 868 228 850 228 828 c 0
 228 806 211 789 188 789 c 0
 165 789 148 806 148 828 c 0
 148 850 165 868 188 868 c 0
377 868 m 0
 400 868 417 850 417 828 c 0
 417 806 400 789 377 789 c 0
 354 789 337 806 337 828 c 0
 337 850 354 868 377 868 c 0
485 0 m 1
 425 187 l 1
 137 187 l 1
 77 0 l 1
 16 0 l 1
 245 685 l 1
 320 685 l 1
 548 0 l 1
 485 0 l 1
153 238 m 1
 409 238 l 1
 282 636 l 1
 153 238 l 1
EndSplineSet
EndChar

StartChar: uni00C5
Encoding: 197 197 132
Width: 565
Flags: W
LayerCount: 2
Fore
SplineSet
283 947 m 0
 341 947 381 907 381 853 c 0
 381 798 341 759 283 759 c 0
 224 759 184 798 184 853 c 0
 184 907 224 947 283 947 c 0
283 911 m 0
 247 911 227 889 227 853 c 0
 227 816 247 795 283 795 c 0
 317 795 338 816 338 853 c 0
 338 889 318 911 283 911 c 0
485 0 m 1
 425 187 l 1
 137 187 l 1
 77 0 l 1
 16 0 l 1
 245 685 l 1
 320 685 l 1
 548 0 l 1
 485 0 l 1
153 238 m 1
 409 238 l 1
 282 636 l 1
 153 238 l 1
EndSplineSet
EndChar

StartChar: uni00C6
Encoding: 198 198 133
Width: 784
Flags: W
LayerCount: 2
Fore
SplineSet
509 50 m 1
 737 50 l 1
 737 0 l 1
 461 0 l 1
 415 184 l 1
 130 184 l 1
 60 0 l 1
 0 0 l 1
 267 685 l 1
 690 685 l 1
 683 635 l 1
 358 635 l 1
 424 379 l 1
 682 379 l 1
 682 330 l 1
 437 330 l 1
 509 50 l 1
149 235 m 1
 402 235 l 1
 302 637 l 1
 149 235 l 1
EndSplineSet
EndChar

StartChar: uni00C7
Encoding: 199 199 134
Width: 550
Flags: W
LayerCount: 2
Fore
SplineSet
359 -64 m 1
 424 -69 451 -99 451 -140 c 0
 451 -197 403 -227 346 -227 c 0
 311 -227 284 -218 266 -206 c 1
 284 -170 l 1
 300 -179 319 -185 345 -185 c 0
 375 -185 400 -172 400 -140 c 0
 400 -111 374 -96 311 -96 c 1
 319 -10 l 1
 173 2 66 124 66 343 c 0
 66 577 191 696 343 696 c 0
 424 696 470 673 519 633 c 1
 487 593 l 1
 441 629 403 645 347 645 c 0
 228 645 129 561 129 343 c 0
 129 135 224 42 344 42 c 0
 415 42 456 67 496 99 c 1
 527 60 l 1
 489 24 435 -7 359 -11 c 1
 359 -64 l 1
EndSplineSet
EndChar

StartChar: uni00C8
Encoding: 200 200 135
Width: 512
Flags: W
LayerCount: 2
Fore
SplineSet
203 888 m 1
 391 792 l 1
 375 758 l 1
 177 836 l 1
 203 888 l 1
459 685 m 1
 452 635 l 1
 171 635 l 1
 171 380 l 1
 414 380 l 1
 414 330 l 1
 171 330 l 1
 171 50 l 1
 466 50 l 1
 466 0 l 1
 111 0 l 1
 111 685 l 1
 459 685 l 1
EndSplineSet
EndChar

StartChar: uni00C9
Encoding: 201 201 136
Width: 512
Flags: W
LayerCount: 2
Fore
SplineSet
370 888 m 1
 396 836 l 1
 198 758 l 1
 182 792 l 1
 370 888 l 1
459 685 m 1
 452 635 l 1
 171 635 l 1
 171 380 l 1
 414 380 l 1
 414 330 l 1
 171 330 l 1
 171 50 l 1
 466 50 l 1
 466 0 l 1
 111 0 l 1
 111 685 l 1
 459 685 l 1
EndSplineSet
EndChar

StartChar: uni00CA
Encoding: 202 202 137
Width: 512
Flags: W
LayerCount: 2
Fore
SplineSet
167 762 m 1
 141 792 l 1
 271 894 l 1
 307 894 l 1
 436 792 l 1
 410 762 l 1
 289 842 l 1
 167 762 l 1
459 685 m 1
 452 635 l 1
 171 635 l 1
 171 380 l 1
 414 380 l 1
 414 330 l 1
 171 330 l 1
 171 50 l 1
 466 50 l 1
 466 0 l 1
 111 0 l 1
 111 685 l 1
 459 685 l 1
EndSplineSet
EndChar

StartChar: uni00CB
Encoding: 203 203 138
Width: 512
Flags: W
LayerCount: 2
Fore
SplineSet
194 868 m 0
 217 868 234 850 234 828 c 0
 234 806 217 789 194 789 c 0
 171 789 154 806 154 828 c 0
 154 850 171 868 194 868 c 0
383 868 m 0
 406 868 423 850 423 828 c 0
 423 806 406 789 383 789 c 0
 360 789 343 806 343 828 c 0
 343 850 360 868 383 868 c 0
459 685 m 1
 452 635 l 1
 171 635 l 1
 171 380 l 1
 414 380 l 1
 414 330 l 1
 171 330 l 1
 171 50 l 1
 466 50 l 1
 466 0 l 1
 111 0 l 1
 111 685 l 1
 459 685 l 1
EndSplineSet
EndChar

StartChar: uni00CC
Encoding: 204 204 139
Width: 282
Flags: W
LayerCount: 2
Fore
SplineSet
55 888 m 1
 243 792 l 1
 227 758 l 1
 29 836 l 1
 55 888 l 1
171 685 m 1
 171 0 l 1
 111 0 l 1
 111 685 l 1
 171 685 l 1
EndSplineSet
EndChar

StartChar: uni00CD
Encoding: 205 205 140
Width: 282
Flags: W
LayerCount: 2
Fore
SplineSet
221 888 m 1
 247 836 l 1
 49 758 l 1
 33 792 l 1
 221 888 l 1
171 685 m 1
 171 0 l 1
 111 0 l 1
 111 685 l 1
 171 685 l 1
EndSplineSet
EndChar

StartChar: uni00CE
Encoding: 206 206 141
Width: 282
Flags: W
LayerCount: 2
Fore
SplineSet
18 762 m 1
 -8 792 l 1
 122 894 l 1
 158 894 l 1
 287 792 l 1
 261 762 l 1
 140 842 l 1
 18 762 l 1
171 685 m 1
 171 0 l 1
 111 0 l 1
 111 685 l 1
 171 685 l 1
EndSplineSet
EndChar

StartChar: uni00CF
Encoding: 207 207 142
Width: 282
Flags: W
LayerCount: 2
Fore
SplineSet
45 868 m 0
 68 868 85 850 85 828 c 0
 85 806 68 789 45 789 c 0
 22 789 5 806 5 828 c 0
 5 850 22 868 45 868 c 0
234 868 m 0
 257 868 274 850 274 828 c 0
 274 806 257 789 234 789 c 0
 211 789 194 806 194 828 c 0
 194 850 211 868 234 868 c 0
171 685 m 1
 171 0 l 1
 111 0 l 1
 111 685 l 1
 171 685 l 1
EndSplineSet
EndChar

StartChar: uni00D0
Encoding: 208 208 143
Width: 637
Flags: W
LayerCount: 2
Fore
SplineSet
252 685 m 2
 411 685 571 630 571 348 c 0
 571 64 404 0 263 0 c 2
 116 0 l 1
 116 328 l 1
 23 328 l 1
 23 376 l 1
 116 376 l 1
 116 685 l 1
 252 685 l 2
266 50 m 2
 385 50 508 102 508 348 c 0
 508 599 380 635 259 635 c 2
 176 635 l 1
 176 376 l 1
 351 376 l 1
 351 328 l 1
 176 328 l 1
 176 50 l 1
 266 50 l 2
EndSplineSet
EndChar

StartChar: uni00D1
Encoding: 209 209 144
Width: 673
Flags: W
LayerCount: 2
Fore
SplineSet
404 792 m 0
 377 792 353 805 334 818 c 0
 317 830 303 838 287 838 c 0
 264 838 249 825 231 798 c 1
 195 816 l 1
 217 856 247 884 287 884 c 0
 312 884 333 873 353 859 c 0
 370 848 386 839 404 839 c 0
 425 839 440 851 460 882 c 1
 496 864 l 1
 472 814 440 792 404 792 c 0
562 685 m 1
 562 0 l 1
 483 0 l 1
 160 619 l 1
 163 572 168 506 168 383 c 2
 168 0 l 1
 111 0 l 1
 111 685 l 1
 188 685 l 1
 513 66 l 1
 511 95 505 180 505 269 c 2
 505 685 l 1
 562 685 l 1
EndSplineSet
EndChar

StartChar: uni00D2
Encoding: 210 210 145
Width: 691
Flags: W
LayerCount: 2
Fore
SplineSet
260 888 m 1
 448 792 l 1
 432 758 l 1
 234 836 l 1
 260 888 l 1
345 696 m 0
 512 696 625 573 625 342 c 0
 625 117 515 -11 345 -11 c 0
 180 -11 66 113 66 341 c 0
 66 567 181 696 345 696 c 0
345 645 m 0
 216 645 129 549 129 341 c 0
 129 136 218 40 345 40 c 0
 479 40 562 136 562 342 c 0
 562 550 477 645 345 645 c 0
EndSplineSet
EndChar

StartChar: uni00D3
Encoding: 211 211 146
Width: 691
Flags: W
LayerCount: 2
Fore
SplineSet
426 888 m 1
 452 836 l 1
 254 758 l 1
 238 792 l 1
 426 888 l 1
345 696 m 0
 512 696 625 573 625 342 c 0
 625 117 515 -11 345 -11 c 0
 180 -11 66 113 66 341 c 0
 66 567 181 696 345 696 c 0
345 645 m 0
 216 645 129 549 129 341 c 0
 129 136 218 40 345 40 c 0
 479 40 562 136 562 342 c 0
 562 550 477 645 345 645 c 0
EndSplineSet
EndChar

StartChar: uni00D4
Encoding: 212 212 147
Width: 691
Flags: W
LayerCount: 2
Fore
SplineSet
223 762 m 1
 197 792 l 1
 327 894 l 1
 363 894 l 1
 492 792 l 1
 466 762 l 1
 345 842 l 1
 223 762 l 1
345 696 m 0
 512 696 625 573 625 342 c 0
 625 117 515 -11 345 -11 c 0
 180 -11 66 113 66 341 c 0
 66 567 181 696 345 696 c 0
345 645 m 0
 216 645 129 549 129 341 c 0
 129 136 218 40 345 40 c 0
 479 40 562 136 562 342 c 0
 562 550 477 645 345 645 c 0
EndSplineSet
EndChar

StartChar: uni00D5
Encoding: 213 213 148
Width: 691
Flags: W
LayerCount: 2
Fore
SplineSet
404 792 m 0
 377 792 353 805 334 818 c 0
 317 830 303 838 287 838 c 0
 264 838 249 825 231 798 c 1
 195 816 l 1
 217 856 247 884 287 884 c 0
 312 884 333 873 353 859 c 0
 370 848 386 839 404 839 c 0
 425 839 440 851 460 882 c 1
 496 864 l 1
 472 814 440 792 404 792 c 0
345 696 m 0
 512 696 625 573 625 342 c 0
 625 117 515 -11 345 -11 c 0
 180 -11 66 113 66 341 c 0
 66 567 181 696 345 696 c 0
345 645 m 0
 216 645 129 549 129 341 c 0
 129 136 218 40 345 40 c 0
 479 40 562 136 562 342 c 0
 562 550 477 645 345 645 c 0
EndSplineSet
EndChar

StartChar: uni00D6
Encoding: 214 214 149
Width: 691
Flags: W
LayerCount: 2
Fore
SplineSet
250 868 m 0
 273 868 290 850 290 828 c 0
 290 806 273 789 250 789 c 0
 227 789 210 806 210 828 c 0
 210 850 227 868 250 868 c 0
439 868 m 0
 462 868 479 850 479 828 c 0
 479 806 462 789 439 789 c 0
 416 789 399 806 399 828 c 0
 399 850 416 868 439 868 c 0
345 696 m 0
 512 696 625 573 625 342 c 0
 625 117 515 -11 345 -11 c 0
 180 -11 66 113 66 341 c 0
 66 567 181 696 345 696 c 0
345 645 m 0
 216 645 129 549 129 341 c 0
 129 136 218 40 345 40 c 0
 479 40 562 136 562 342 c 0
 562 550 477 645 345 645 c 0
EndSplineSet
EndChar

StartChar: uni00D7
Encoding: 215 215 150
Width: 493
Flags: W
LayerCount: 2
Fore
SplineSet
371 471 m 1
 409 434 l 1
 284 308 l 1
 409 180 l 1
 371 144 l 1
 248 272 l 1
 122 144 l 1
 85 180 l 1
 208 306 l 1
 85 434 l 1
 122 471 l 1
 245 342 l 1
 371 471 l 1
EndSplineSet
EndChar

StartChar: uni00D8
Encoding: 216 216 151
Width: 691
Flags: W
LayerCount: 2
Fore
SplineSet
469 669 m 1
 565 621 625 510 625 342 c 0
 625 117 515 -11 345 -11 c 0
 318 -11 292 -8 267 -1 c 1
 235 -120 l 1
 182 -105 l 1
 221 17 l 1
 125 66 66 176 66 341 c 0
 66 567 181 696 345 696 c 0
 372 696 397 693 421 687 c 1
 456 810 l 1
 509 796 l 1
 469 669 l 1
129 341 m 0
 129 195 172 107 241 66 c 1
 410 636 l 1
 390 642 368 645 345 645 c 0
 216 645 129 549 129 341 c 0
345 40 m 0
 479 40 562 136 562 342 c 0
 562 492 520 581 448 621 c 1
 279 49 l 1
 299 43 322 40 345 40 c 0
EndSplineSet
EndChar

StartChar: uni00D9
Encoding: 217 217 152
Width: 652
Flags: W
LayerCount: 2
Fore
SplineSet
240 888 m 1
 428 792 l 1
 412 758 l 1
 214 836 l 1
 240 888 l 1
551 685 m 1
 551 214 l 2
 551 82 476 -11 326 -11 c 0
 174 -11 101 82 101 214 c 2
 101 685 l 1
 161 685 l 1
 161 219 l 2
 161 108 211 41 326 41 c 0
 441 41 490 109 490 219 c 2
 490 685 l 1
 551 685 l 1
EndSplineSet
EndChar

StartChar: uni00DA
Encoding: 218 218 153
Width: 652
Flags: W
LayerCount: 2
Fore
SplineSet
407 888 m 1
 433 836 l 1
 235 758 l 1
 219 792 l 1
 407 888 l 1
551 685 m 1
 551 214 l 2
 551 82 476 -11 326 -11 c 0
 174 -11 101 82 101 214 c 2
 101 685 l 1
 161 685 l 1
 161 219 l 2
 161 108 211 41 326 41 c 0
 441 41 490 109 490 219 c 2
 490 685 l 1
 551 685 l 1
EndSplineSet
EndChar

StartChar: uni00DB
Encoding: 219 219 154
Width: 652
Flags: W
LayerCount: 2
Fore
SplineSet
204 762 m 1
 178 792 l 1
 308 894 l 1
 344 894 l 1
 473 792 l 1
 447 762 l 1
 326 842 l 1
 204 762 l 1
551 685 m 1
 551 214 l 2
 551 82 476 -11 326 -11 c 0
 174 -11 101 82 101 214 c 2
 101 685 l 1
 161 685 l 1
 161 219 l 2
 161 108 211 41 326 41 c 0
 441 41 490 109 490 219 c 2
 490 685 l 1
 551 685 l 1
EndSplineSet
EndChar

StartChar: uni00DC
Encoding: 220 220 155
Width: 652
Flags: W
LayerCount: 2
Fore
SplineSet
231 868 m 0
 254 868 271 850 271 828 c 0
 271 806 254 789 231 789 c 0
 208 789 191 806 191 828 c 0
 191 850 208 868 231 868 c 0
420 868 m 0
 443 868 460 850 460 828 c 0
 460 806 443 789 420 789 c 0
 397 789 380 806 380 828 c 0
 380 850 397 868 420 868 c 0
551 685 m 1
 551 214 l 2
 551 82 476 -11 326 -11 c 0
 174 -11 101 82 101 214 c 2
 101 685 l 1
 161 685 l 1
 161 219 l 2
 161 108 211 41 326 41 c 0
 441 41 490 109 490 219 c 2
 490 685 l 1
 551 685 l 1
EndSplineSet
EndChar

StartChar: uni00DD
Encoding: 221 221 156
Width: 523
Flags: W
LayerCount: 2
Fore
SplineSet
342 888 m 1
 368 836 l 1
 170 758 l 1
 154 792 l 1
 342 888 l 1
509 685 m 1
 292 268 l 1
 292 0 l 1
 232 0 l 1
 232 267 l 1
 13 685 l 1
 80 685 l 1
 264 321 l 1
 445 685 l 1
 509 685 l 1
EndSplineSet
EndChar

StartChar: uni00DE
Encoding: 222 222 157
Width: 570
Flags: W
LayerCount: 2
Fore
SplineSet
272 563 m 2
 431 563 525 500 525 356 c 0
 525 196 418 136 269 136 c 2
 171 136 l 1
 171 0 l 1
 111 0 l 1
 111 685 l 1
 171 685 l 1
 171 563 l 1
 272 563 l 2
269 186 m 2
 383 186 462 222 462 355 c 0
 462 473 391 513 271 513 c 2
 171 513 l 1
 171 186 l 1
 269 186 l 2
EndSplineSet
EndChar

StartChar: uni00DF
Encoding: 223 223 158
Width: 581
Flags: W
LayerCount: 2
Fore
SplineSet
292 743 m 0
 391 743 457 686 457 609 c 0
 457 501 340 490 340 424 c 0
 340 338 532 331 532 155 c 0
 532 55 463 -11 370 -11 c 0
 326 -11 298 -1 273 12 c 1
 292 53 l 1
 309 45 330 38 365 38 c 0
 429 38 473 79 473 156 c 0
 473 307 284 305 284 421 c 0
 284 508 400 511 400 606 c 0
 400 663 355 696 292 696 c 0
 215 696 163 647 163 538 c 2
 163 0 l 1
 105 0 l 1
 105 540 l 2
 105 671 179 743 292 743 c 0
EndSplineSet
EndChar

StartChar: uni00E0
Encoding: 224 224 159
Width: 531
Flags: W
LayerCount: 2
Fore
SplineSet
176 782 m 1
 364 679 l 1
 346 645 l 1
 150 730 l 1
 176 782 l 1
426 116 m 2
 426 58 442 41 470 30 c 1
 457 -11 l 1
 411 -1 384 22 376 76 c 1
 338 18 283 -11 213 -11 c 0
 112 -11 51 52 51 145 c 0
 51 255 134 314 268 314 c 2
 368 314 l 1
 368 365 l 2
 368 448 334 485 247 485 c 0
 205 485 157 474 105 455 c 1
 90 499 l 1
 148 522 200 534 255 534 c 0
 374 534 426 475 426 368 c 2
 426 116 l 2
223 36 m 0
 290 36 336 69 368 130 c 1
 368 272 l 1
 277 272 l 2
 172 272 113 231 113 148 c 0
 113 76 154 36 223 36 c 0
EndSplineSet
EndChar

StartChar: uni00E1
Encoding: 225 225 160
Width: 531
Flags: W
LayerCount: 2
Fore
SplineSet
354 730 m 1
 159 645 l 1
 140 679 l 1
 328 782 l 1
 354 730 l 1
426 116 m 2
 426 58 442 41 470 30 c 1
 457 -11 l 1
 411 -2 384 21 376 77 c 1
 339 17 283 -11 213 -11 c 0
 112 -11 51 52 51 145 c 0
 51 255 134 314 268 314 c 2
 368 314 l 1
 368 365 l 2
 368 448 334 485 247 485 c 0
 205 485 157 474 105 455 c 1
 90 499 l 1
 148 522 200 534 255 534 c 0
 374 534 426 475 426 368 c 2
 426 116 l 2
223 36 m 0
 289 36 335 69 368 128 c 1
 368 272 l 1
 277 272 l 2
 172 272 113 231 113 148 c 0
 113 76 154 36 223 36 c 0
EndSplineSet
EndChar

StartChar: uni00E2
Encoding: 226 226 161
Width: 531
Flags: W
LayerCount: 2
Fore
SplineSet
131 643 m 1
 105 674 l 1
 234 779 l 1
 270 779 l 1
 400 674 l 1
 374 643 l 1
 252 728 l 1
 131 643 l 1
426 116 m 2
 426 58 442 41 470 30 c 1
 457 -11 l 1
 411 -1 384 22 376 76 c 1
 338 18 283 -11 213 -11 c 0
 112 -11 51 52 51 145 c 0
 51 255 134 314 268 314 c 2
 368 314 l 1
 368 365 l 2
 368 448 334 485 247 485 c 0
 205 485 157 474 105 455 c 1
 90 499 l 1
 148 522 200 534 255 534 c 0
 374 534 426 475 426 368 c 2
 426 116 l 2
223 36 m 0
 290 36 336 69 368 130 c 1
 368 272 l 1
 277 272 l 2
 172 272 113 231 113 148 c 0
 113 76 154 36 223 36 c 0
EndSplineSet
EndChar

StartChar: uni00E3
Encoding: 227 227 162
Width: 531
Flags: W
LayerCount: 2
Fore
SplineSet
312 666 m 0
 285 666 261 679 242 692 c 0
 225 704 211 712 195 712 c 0
 172 712 157 699 139 672 c 1
 103 690 l 1
 125 730 155 758 195 758 c 0
 220 758 241 747 261 733 c 0
 278 722 294 713 312 713 c 0
 333 713 348 725 368 756 c 1
 404 738 l 1
 380 688 348 666 312 666 c 0
426 116 m 2
 426 58 442 41 470 30 c 1
 457 -11 l 1
 411 -1 384 22 376 76 c 1
 338 18 283 -11 213 -11 c 0
 112 -11 51 52 51 145 c 0
 51 255 134 314 268 314 c 2
 368 314 l 1
 368 365 l 2
 368 448 334 485 247 485 c 0
 205 485 157 474 105 455 c 1
 90 499 l 1
 148 522 200 534 255 534 c 0
 374 534 426 475 426 368 c 2
 426 116 l 2
223 36 m 0
 290 36 336 69 368 130 c 1
 368 272 l 1
 277 272 l 2
 172 272 113 231 113 148 c 0
 113 76 154 36 223 36 c 0
EndSplineSet
EndChar

StartChar: uni00E4
Encoding: 228 228 163
Width: 531
Flags: W
LayerCount: 2
Fore
SplineSet
158 742 m 0
 181 742 198 724 198 702 c 0
 198 680 181 663 158 663 c 0
 135 663 118 680 118 702 c 0
 118 724 135 742 158 742 c 0
347 742 m 0
 370 742 387 724 387 702 c 0
 387 680 370 663 347 663 c 0
 324 663 307 680 307 702 c 0
 307 724 324 742 347 742 c 0
426 116 m 2
 426 58 442 41 470 30 c 1
 457 -11 l 1
 411 -1 384 22 376 76 c 1
 338 18 283 -11 213 -11 c 0
 112 -11 51 52 51 145 c 0
 51 255 134 314 268 314 c 2
 368 314 l 1
 368 365 l 2
 368 448 334 485 247 485 c 0
 205 485 157 474 105 455 c 1
 90 499 l 1
 148 522 200 534 255 534 c 0
 374 534 426 475 426 368 c 2
 426 116 l 2
223 36 m 0
 290 36 336 69 368 130 c 1
 368 272 l 1
 277 272 l 2
 172 272 113 231 113 148 c 0
 113 76 154 36 223 36 c 0
EndSplineSet
EndChar

StartChar: uni00E5
Encoding: 229 229 164
Width: 531
Flags: W
LayerCount: 2
Fore
SplineSet
254 821 m 0
 312 821 352 781 352 727 c 0
 352 672 312 633 254 633 c 0
 195 633 155 672 155 727 c 0
 155 781 195 821 254 821 c 0
254 785 m 0
 218 785 198 763 198 727 c 0
 198 690 218 669 254 669 c 0
 288 669 309 690 309 727 c 0
 309 763 289 785 254 785 c 0
426 116 m 2
 426 58 442 41 470 30 c 1
 457 -11 l 1
 411 -1 384 22 376 76 c 1
 338 18 283 -11 213 -11 c 0
 112 -11 51 52 51 145 c 0
 51 255 134 314 268 314 c 2
 368 314 l 1
 368 365 l 2
 368 448 334 485 247 485 c 0
 205 485 157 474 105 455 c 1
 90 499 l 1
 148 522 200 534 255 534 c 0
 374 534 426 475 426 368 c 2
 426 116 l 2
223 36 m 0
 290 36 336 69 368 130 c 1
 368 272 l 1
 277 272 l 2
 172 272 113 231 113 148 c 0
 113 76 154 36 223 36 c 0
EndSplineSet
EndChar

StartChar: uni00E6
Encoding: 230 230 165
Width: 840
Flags: W
LayerCount: 2
Fore
SplineSet
783 281 m 0
 783 265 782 249 781 239 c 1
 432 239 l 1
 438 97 504 38 594 38 c 0
 651 38 690 56 735 90 c 1
 763 53 l 1
 714 13 661 -11 591 -11 c 0
 507 -11 442 27 405 96 c 1
 351 19 293 -11 215 -11 c 0
 113 -11 51 52 51 145 c 0
 51 255 136 315 270 315 c 2
 370 315 l 1
 370 365 l 2
 370 448 335 485 249 485 c 0
 206 485 159 474 107 455 c 1
 91 499 l 1
 149 522 201 534 256 534 c 0
 347 534 395 497 416 433 c 1
 451 498 506 534 583 534 c 0
 714 534 783 435 783 281 c 0
725 284 m 1
 725 299 l 2
 725 413 679 486 582 486 c 0
 500 486 438 426 432 284 c 1
 725 284 l 1
224 36 m 0
 291 36 337 68 386 141 c 1
 376 175 370 213 370 256 c 2
 370 272 l 1
 278 272 l 2
 174 272 114 231 114 148 c 0
 114 76 155 36 224 36 c 0
EndSplineSet
EndChar

StartChar: uni00E7
Encoding: 231 231 166
Width: 469
Flags: W
LayerCount: 2
Fore
SplineSet
298 -64 m 1
 363 -69 390 -99 390 -140 c 0
 390 -197 342 -227 285 -227 c 0
 250 -227 223 -218 205 -206 c 1
 223 -170 l 1
 239 -179 258 -185 284 -185 c 0
 314 -185 339 -172 339 -140 c 0
 339 -111 313 -96 250 -96 c 1
 258 -9 l 1
 140 4 64 100 64 258 c 0
 64 426 151 534 285 534 c 0
 344 534 389 519 433 481 c 1
 404 443 l 1
 370 470 336 484 288 484 c 0
 193 484 126 410 126 259 c 0
 126 109 192 40 287 40 c 0
 336 40 371 56 408 84 c 1
 436 45 l 1
 398 12 352 -8 298 -11 c 1
 298 -64 l 1
EndSplineSet
EndChar

StartChar: uni00E8
Encoding: 232 232 167
Width: 535
Flags: W
LayerCount: 2
Fore
SplineSet
199 782 m 1
 387 679 l 1
 369 645 l 1
 173 730 l 1
 199 782 l 1
477 281 m 0
 477 265 476 249 475 239 c 1
 126 239 l 1
 133 97 199 38 289 38 c 0
 346 38 384 56 430 90 c 1
 457 53 l 1
 408 13 355 -11 286 -11 c 0
 148 -11 64 89 64 257 c 0
 64 424 145 534 273 534 c 0
 409 534 477 435 477 281 c 0
420 284 m 1
 420 299 l 2
 420 413 374 486 275 486 c 0
 194 486 132 425 125 284 c 1
 420 284 l 1
EndSplineSet
EndChar

StartChar: uni00E9
Encoding: 233 233 168
Width: 535
Flags: W
LayerCount: 2
Fore
SplineSet
377 730 m 1
 182 645 l 1
 163 679 l 1
 351 782 l 1
 377 730 l 1
477 281 m 0
 477 265 476 249 475 239 c 1
 126 239 l 1
 133 97 199 38 289 38 c 0
 346 38 384 56 430 90 c 1
 457 53 l 1
 408 13 355 -11 286 -11 c 0
 148 -11 64 89 64 257 c 0
 64 424 145 534 273 534 c 0
 409 534 477 435 477 281 c 0
420 284 m 1
 420 299 l 2
 420 413 374 486 275 486 c 0
 193 486 132 426 126 284 c 1
 420 284 l 1
EndSplineSet
EndChar

StartChar: uni00EA
Encoding: 234 234 169
Width: 535
Flags: W
LayerCount: 2
Fore
SplineSet
275 728 m 1
 154 643 l 1
 128 674 l 1
 257 779 l 1
 293 779 l 1
 423 674 l 1
 397 643 l 1
 275 728 l 1
477 281 m 0
 477 265 476 249 475 239 c 1
 126 239 l 1
 133 97 199 38 289 38 c 0
 346 38 384 56 430 90 c 1
 457 53 l 1
 408 13 355 -11 286 -11 c 0
 148 -11 64 89 64 257 c 0
 64 424 145 534 273 534 c 0
 409 534 477 435 477 281 c 0
420 284 m 1
 420 299 l 2
 420 413 374 486 275 486 c 0
 193 486 132 426 126 284 c 1
 420 284 l 1
EndSplineSet
EndChar

StartChar: uni00EB
Encoding: 235 235 170
Width: 535
Flags: W
LayerCount: 2
Fore
SplineSet
181 742 m 0
 204 742 221 724 221 702 c 0
 221 680 204 663 181 663 c 0
 158 663 141 680 141 702 c 0
 141 724 158 742 181 742 c 0
370 742 m 0
 393 742 410 724 410 702 c 0
 410 680 393 663 370 663 c 0
 347 663 330 680 330 702 c 0
 330 724 347 742 370 742 c 0
477 281 m 0
 477 265 476 249 475 239 c 1
 126 239 l 1
 133 97 199 38 289 38 c 0
 346 38 384 56 430 90 c 1
 457 53 l 1
 408 13 355 -11 286 -11 c 0
 148 -11 64 89 64 257 c 0
 64 424 145 534 273 534 c 0
 409 534 477 435 477 281 c 0
420 284 m 1
 420 299 l 2
 420 413 374 486 275 486 c 0
 194 486 132 425 125 284 c 1
 420 284 l 1
EndSplineSet
EndChar

StartChar: uni00EC
Encoding: 236 236 171
Width: 267
Flags: W
LayerCount: 2
Fore
SplineSet
57 782 m 1
 245 679 l 1
 227 645 l 1
 31 730 l 1
 57 782 l 1
163 523 m 1
 163 0 l 1
 105 0 l 1
 105 523 l 1
 163 523 l 1
EndSplineSet
EndChar

StartChar: uni00ED
Encoding: 237 237 172
Width: 267
Flags: W
LayerCount: 2
Fore
SplineSet
209 782 m 1
 235 730 l 1
 40 645 l 1
 21 679 l 1
 209 782 l 1
163 523 m 1
 163 0 l 1
 105 0 l 1
 105 523 l 1
 163 523 l 1
EndSplineSet
EndChar

StartChar: uni00EE
Encoding: 238 238 173
Width: 267
Flags: W
LayerCount: 2
Fore
SplineSet
12 643 m 1
 -14 674 l 1
 115 779 l 1
 151 779 l 1
 281 674 l 1
 255 643 l 1
 133 728 l 1
 12 643 l 1
163 523 m 1
 163 0 l 1
 105 0 l 1
 105 523 l 1
 163 523 l 1
EndSplineSet
EndChar

StartChar: uni00EF
Encoding: 239 239 174
Width: 267
Flags: W
LayerCount: 2
Fore
SplineSet
39 742 m 0
 62 742 79 724 79 702 c 0
 79 680 62 663 39 663 c 0
 16 663 -1 680 -1 702 c 0
 -1 724 16 742 39 742 c 0
228 742 m 0
 251 742 268 724 268 702 c 0
 268 680 251 663 228 663 c 0
 205 663 188 680 188 702 c 0
 188 724 205 742 228 742 c 0
163 523 m 1
 163 0 l 1
 105 0 l 1
 105 523 l 1
 163 523 l 1
EndSplineSet
EndChar

StartChar: uni00F0
Encoding: 240 240 175
Width: 556
Flags: W
LayerCount: 2
Fore
SplineSet
324 664 m 1
 436 579 487 464 487 280 c 0
 487 90 400 -11 273 -11 c 0
 147 -11 64 81 64 233 c 0
 64 353 130 468 259 468 c 0
 328 468 379 438 421 388 c 1
 407 488 367 565 289 628 c 1
 212 551 l 1
 170 570 l 1
 250 653 l 1
 212 673 171 690 128 698 c 1
 141 744 l 1
 192 734 240 716 286 689 c 1
 355 762 l 1
 390 731 l 1
 324 664 l 1
273 37 m 0
 368 37 428 121 428 282 c 0
 428 302 427 316 426 330 c 1
 384 388 332 421 267 421 c 0
 169 421 124 337 124 234 c 0
 124 108 180 37 273 37 c 0
EndSplineSet
EndChar

StartChar: uni00F1
Encoding: 241 241 176
Width: 581
Flags: W
LayerCount: 2
Fore
SplineSet
238 712 m 0
 215 712 200 699 182 672 c 1
 146 690 l 1
 168 730 198 758 238 758 c 0
 263 758 284 747 304 733 c 0
 321 722 337 713 355 713 c 0
 376 713 391 725 411 756 c 1
 447 738 l 1
 423 688 391 666 355 666 c 0
 328 666 304 679 285 692 c 0
 268 704 254 712 238 712 c 0
336 534 m 0
 431 534 481 475 481 374 c 2
 481 0 l 1
 423 0 l 1
 423 366 l 2
 423 452 389 487 325 487 c 0
 254 487 205 443 163 379 c 1
 163 0 l 1
 105 0 l 1
 105 523 l 1
 155 523 l 1
 160 435 l 1
 202 494 261 534 336 534 c 0
EndSplineSet
EndChar

StartChar: uni00F2
Encoding: 242 242 177
Width: 571
Flags: W
LayerCount: 2
Fore
SplineSet
209 782 m 1
 397 679 l 1
 379 645 l 1
 183 730 l 1
 209 782 l 1
286 534 m 0
 425 534 507 434 507 263 c 0
 507 94 423 -11 285 -11 c 0
 146 -11 64 93 64 261 c 0
 64 429 149 534 286 534 c 0
286 485 m 0
 187 485 126 411 126 261 c 0
 126 114 185 38 285 38 c 0
 385 38 446 113 446 263 c 0
 446 410 387 485 286 485 c 0
EndSplineSet
EndChar

StartChar: uni00F3
Encoding: 243 243 178
Width: 571
Flags: W
LayerCount: 2
Fore
SplineSet
361 782 m 1
 387 730 l 1
 192 645 l 1
 173 679 l 1
 361 782 l 1
286 534 m 0
 425 534 507 434 507 263 c 0
 507 94 423 -11 285 -11 c 0
 146 -11 64 93 64 261 c 0
 64 429 149 534 286 534 c 0
286 485 m 0
 187 485 126 411 126 261 c 0
 126 114 185 38 285 38 c 0
 385 38 446 113 446 263 c 0
 446 410 387 485 286 485 c 0
EndSplineSet
EndChar

StartChar: uni00F4
Encoding: 244 244 179
Width: 571
Flags: W
LayerCount: 2
Fore
SplineSet
164 643 m 1
 138 674 l 1
 267 779 l 1
 303 779 l 1
 433 674 l 1
 407 643 l 1
 285 728 l 1
 164 643 l 1
286 534 m 0
 425 534 507 434 507 263 c 0
 507 94 423 -11 285 -11 c 0
 146 -11 64 93 64 261 c 0
 64 429 149 534 286 534 c 0
286 485 m 0
 187 485 126 411 126 261 c 0
 126 114 185 38 285 38 c 0
 385 38 446 113 446 263 c 0
 446 410 387 485 286 485 c 0
EndSplineSet
EndChar

StartChar: uni00F5
Encoding: 245 245 180
Width: 571
Flags: W
LayerCount: 2
Fore
SplineSet
344 666 m 0
 317 666 293 679 274 692 c 0
 257 704 243 712 227 712 c 0
 204 712 189 699 171 672 c 1
 135 690 l 1
 157 730 187 758 227 758 c 0
 252 758 273 747 293 733 c 0
 310 722 326 713 344 713 c 0
 365 713 380 725 400 756 c 1
 436 738 l 1
 412 688 380 666 344 666 c 0
286 534 m 0
 425 534 507 434 507 263 c 0
 507 94 423 -11 285 -11 c 0
 146 -11 64 93 64 261 c 0
 64 429 149 534 286 534 c 0
286 485 m 0
 187 485 126 411 126 261 c 0
 126 114 185 38 285 38 c 0
 385 38 446 113 446 263 c 0
 446 410 387 485 286 485 c 0
EndSplineSet
EndChar

StartChar: uni00F6
Encoding: 246 246 181
Width: 571
Flags: W
LayerCount: 2
Fore
SplineSet
191 742 m 0
 214 742 231 724 231 702 c 0
 231 680 214 663 191 663 c 0
 168 663 151 680 151 702 c 0
 151 724 168 742 191 742 c 0
380 742 m 0
 403 742 420 724 420 702 c 0
 420 680 403 663 380 663 c 0
 357 663 340 680 340 702 c 0
 340 724 357 742 380 742 c 0
286 534 m 0
 425 534 507 434 507 263 c 0
 507 94 423 -11 285 -11 c 0
 146 -11 64 93 64 261 c 0
 64 429 149 534 286 534 c 0
286 485 m 0
 187 485 126 411 126 261 c 0
 126 114 185 38 285 38 c 0
 385 38 446 113 446 263 c 0
 446 410 387 485 286 485 c 0
EndSplineSet
EndChar

StartChar: uni00F7
Encoding: 247 247 182
Width: 493
Flags: W
LayerCount: 2
Fore
SplineSet
247 598 m 0
 275 598 295 577 295 550 c 0
 295 524 275 503 247 503 c 0
 219 503 199 524 199 550 c 0
 199 577 219 598 247 598 c 0
69 306 m 1
 69 357 l 1
 424 357 l 1
 424 306 l 1
 69 306 l 1
247 160 m 0
 275 160 295 139 295 113 c 0
 295 86 275 65 247 65 c 0
 219 65 199 86 199 113 c 0
 199 139 219 160 247 160 c 0
EndSplineSet
EndChar

StartChar: uni00F8
Encoding: 248 248 183
Width: 571
Flags: W
LayerCount: 2
Fore
SplineSet
396 507 m 1
 467 467 507 382 507 263 c 0
 507 94 423 -11 285 -11 c 0
 263 -11 243 -8 224 -3 c 1
 183 -125 l 1
 134 -111 l 1
 177 15 l 1
 105 56 64 143 64 261 c 0
 64 429 149 534 286 534 c 0
 309 534 330 531 349 526 c 1
 388 648 l 1
 437 634 l 1
 396 507 l 1
126 261 m 0
 126 157 152 93 199 61 c 1
 337 478 l 1
 322 483 304 485 286 485 c 0
 187 485 126 411 126 261 c 0
285 38 m 0
 385 38 446 113 446 263 c 0
 446 366 420 430 374 461 c 1
 236 44 l 1
 251 40 268 38 285 38 c 0
EndSplineSet
EndChar

StartChar: uni00F9
Encoding: 249 249 184
Width: 576
Flags: W
LayerCount: 2
Fore
SplineSet
209 782 m 1
 397 679 l 1
 379 645 l 1
 183 730 l 1
 209 782 l 1
471 523 m 1
 471 0 l 1
 422 0 l 1
 418 93 l 1
 382 31 328 -11 247 -11 c 0
 154 -11 99 46 99 149 c 2
 99 523 l 1
 157 523 l 1
 157 155 l 2
 157 72 192 37 261 37 c 0
 329 37 377 82 413 144 c 1
 413 523 l 1
 471 523 l 1
EndSplineSet
EndChar

StartChar: uni00FA
Encoding: 250 250 185
Width: 576
Flags: W
LayerCount: 2
Fore
SplineSet
361 782 m 1
 387 730 l 1
 192 645 l 1
 173 679 l 1
 361 782 l 1
471 523 m 1
 471 0 l 1
 422 0 l 1
 418 93 l 1
 382 31 328 -11 247 -11 c 0
 154 -11 99 46 99 149 c 2
 99 523 l 1
 157 523 l 1
 157 155 l 2
 157 72 192 37 261 37 c 0
 329 37 377 82 413 144 c 1
 413 523 l 1
 471 523 l 1
EndSplineSet
EndChar

StartChar: uni00FB
Encoding: 251 251 186
Width: 576
Flags: W
LayerCount: 2
Fore
SplineSet
164 643 m 1
 138 674 l 1
 267 779 l 1
 303 779 l 1
 433 674 l 1
 407 643 l 1
 285 728 l 1
 164 643 l 1
471 523 m 1
 471 0 l 1
 422 0 l 1
 418 93 l 1
 382 31 328 -11 247 -11 c 0
 154 -11 99 46 99 149 c 2
 99 523 l 1
 157 523 l 1
 157 155 l 2
 157 72 192 37 261 37 c 0
 329 37 377 82 413 144 c 1
 413 523 l 1
 471 523 l 1
EndSplineSet
EndChar

StartChar: uni00FC
Encoding: 252 252 187
Width: 576
Flags: W
LayerCount: 2
Fore
SplineSet
191 742 m 0
 214 742 231 724 231 702 c 0
 231 680 214 663 191 663 c 0
 168 663 151 680 151 702 c 0
 151 724 168 742 191 742 c 0
380 742 m 0
 403 742 420 724 420 702 c 0
 420 680 403 663 380 663 c 0
 357 663 340 680 340 702 c 0
 340 724 357 742 380 742 c 0
471 523 m 1
 471 0 l 1
 422 0 l 1
 418 93 l 1
 382 31 328 -11 247 -11 c 0
 154 -11 99 46 99 149 c 2
 99 523 l 1
 157 523 l 1
 157 155 l 2
 157 72 192 37 261 37 c 0
 329 37 377 82 413 144 c 1
 413 523 l 1
 471 523 l 1
EndSplineSet
EndChar

StartChar: uni00FD
Encoding: 253 253 188
Width: 468
Flags: W
LayerCount: 2
Fore
SplineSet
309 782 m 1
 335 730 l 1
 140 645 l 1
 121 679 l 1
 309 782 l 1
452 523 m 1
 273 -2 l 2
 234 -116 187 -179 59 -204 c 1
 53 -159 l 1
 158 -133 184 -92 217 0 c 1
 197 0 l 1
 15 523 l 1
 78 523 l 1
 236 43 l 1
 391 523 l 1
 452 523 l 1
EndSplineSet
EndChar

StartChar: uni00FE
Encoding: 254 254 189
Width: 574
Flags: W
LayerCount: 2
Fore
SplineSet
320 534 m 0
 449 534 510 433 510 264 c 0
 510 99 442 -11 312 -11 c 0
 246 -11 196 19 163 61 c 1
 163 -195 l 1
 105 -205 l 1
 105 736 l 1
 163 743 l 1
 163 451 l 1
 201 503 255 534 320 534 c 0
301 38 m 0
 397 38 449 114 449 264 c 0
 449 413 401 486 310 486 c 0
 243 486 199 446 163 396 c 1
 163 117 l 1
 196 69 242 38 301 38 c 0
EndSplineSet
EndChar

StartChar: uni00FF
Encoding: 255 255 190
Width: 468
Flags: W
LayerCount: 2
Fore
SplineSet
139 742 m 0
 162 742 179 724 179 702 c 0
 179 680 162 663 139 663 c 0
 116 663 99 680 99 702 c 0
 99 724 116 742 139 742 c 0
328 742 m 0
 351 742 368 724 368 702 c 0
 368 680 351 663 328 663 c 0
 305 663 288 680 288 702 c 0
 288 724 305 742 328 742 c 0
452 523 m 1
 273 -2 l 2
 234 -116 187 -179 59 -204 c 1
 53 -159 l 1
 158 -133 184 -92 217 0 c 1
 197 0 l 1
 15 523 l 1
 78 523 l 1
 236 43 l 1
 391 523 l 1
 452 523 l 1
EndSplineSet
EndChar

StartChar: uni0100
Encoding: 256 256 191
Width: 565
Flags: W
LayerCount: 2
Fore
SplineSet
403 802 m 1
 162 802 l 1
 162 849 l 1
 403 849 l 1
 403 802 l 1
485 0 m 1
 425 187 l 1
 137 187 l 1
 77 0 l 1
 16 0 l 1
 245 685 l 1
 320 685 l 1
 548 0 l 1
 485 0 l 1
153 238 m 1
 409 238 l 1
 282 636 l 1
 153 238 l 1
EndSplineSet
EndChar

StartChar: uni0101
Encoding: 257 257 192
Width: 531
Flags: W
LayerCount: 2
Fore
SplineSet
374 676 m 1
 133 676 l 1
 133 723 l 1
 374 723 l 1
 374 676 l 1
426 116 m 2
 426 58 442 41 470 30 c 1
 457 -11 l 1
 411 -1 384 22 376 76 c 1
 338 18 283 -11 213 -11 c 0
 112 -11 51 52 51 145 c 0
 51 255 134 314 268 314 c 2
 368 314 l 1
 368 365 l 2
 368 448 334 485 247 485 c 0
 205 485 157 474 105 455 c 1
 90 499 l 1
 148 522 200 534 255 534 c 0
 374 534 426 475 426 368 c 2
 426 116 l 2
223 36 m 0
 290 36 336 69 368 130 c 1
 368 272 l 1
 277 272 l 2
 172 272 113 231 113 148 c 0
 113 76 154 36 223 36 c 0
EndSplineSet
EndChar

StartChar: uni0102
Encoding: 258 258 193
Width: 565
Flags: W
LayerCount: 2
Fore
SplineSet
282 765 m 0
 213 765 161 808 152 865 c 1
 192 874 l 1
 205 837 235 812 282 812 c 0
 329 812 360 837 373 874 c 1
 413 865 l 1
 404 808 351 765 282 765 c 0
485 0 m 1
 425 187 l 1
 137 187 l 1
 77 0 l 1
 16 0 l 1
 245 685 l 1
 320 685 l 1
 548 0 l 1
 485 0 l 1
154 238 m 1
 409 238 l 1
 282 636 l 1
 154 238 l 1
EndSplineSet
EndChar

StartChar: uni0103
Encoding: 259 259 194
Width: 531
Flags: W
LayerCount: 2
Fore
SplineSet
253 653 m 0
 184 653 132 696 123 763 c 1
 163 772 l 1
 176 725 206 700 253 700 c 0
 300 700 331 725 344 772 c 1
 384 763 l 1
 375 696 322 653 253 653 c 0
426 116 m 2
 426 58 442 41 470 30 c 1
 457 -11 l 1
 411 -2 384 21 376 77 c 1
 339 17 283 -11 213 -11 c 0
 112 -11 51 52 51 145 c 0
 51 255 134 314 268 314 c 2
 368 314 l 1
 368 365 l 2
 368 448 334 485 247 485 c 0
 205 485 157 474 105 455 c 1
 90 499 l 1
 148 522 200 534 255 534 c 0
 374 534 426 475 426 368 c 2
 426 116 l 2
223 36 m 0
 289 36 335 69 368 128 c 1
 368 272 l 1
 277 272 l 2
 172 272 113 231 113 148 c 0
 113 76 154 36 223 36 c 0
EndSplineSet
EndChar

StartChar: uni0104
Encoding: 260 260 195
Width: 565
Flags: W
LayerCount: 2
Fore
SplineSet
530 0 m 1
 442 -40 408 -71 408 -118 c 0
 408 -149 427 -170 471 -170 c 0
 490 -170 507 -168 529 -163 c 1
 523 -211 l 1
 503 -215 487 -218 465 -218 c 0
 392 -218 354 -178 354 -126 c 0
 354 -67 397 -25 482 11 c 1
 425 187 l 1
 137 187 l 1
 77 0 l 1
 16 0 l 1
 245 685 l 1
 320 685 l 1
 548 0 l 1
 530 0 l 1
153 238 m 1
 409 238 l 1
 282 636 l 1
 153 238 l 1
EndSplineSet
EndChar

StartChar: uni0105
Encoding: 261 261 196
Width: 531
Flags: W
LayerCount: 2
Fore
SplineSet
457 -11 m 1
 369 -51 335 -82 335 -129 c 0
 335 -160 354 -181 398 -181 c 0
 417 -181 434 -179 456 -174 c 1
 450 -222 l 1
 430 -226 414 -229 392 -229 c 0
 319 -229 281 -189 281 -137 c 0
 281 -76 327 -33 418 4 c 1
 395 17 381 40 376 76 c 1
 338 18 283 -11 213 -11 c 0
 112 -11 51 52 51 145 c 0
 51 255 134 314 268 314 c 2
 368 314 l 1
 368 365 l 2
 368 448 334 485 247 485 c 0
 205 485 157 474 105 455 c 1
 90 499 l 1
 148 522 200 534 255 534 c 0
 374 534 426 475 426 368 c 2
 426 116 l 2
 426 58 442 41 470 30 c 1
 457 -11 l 1
368 130 m 1
 368 272 l 1
 277 272 l 2
 172 272 113 231 113 148 c 0
 113 76 154 36 223 36 c 0
 290 36 336 69 368 130 c 1
EndSplineSet
EndChar

StartChar: uni0106
Encoding: 262 262 197
Width: 550
Flags: W
LayerCount: 2
Fore
SplineSet
425 888 m 1
 451 836 l 1
 253 758 l 1
 237 792 l 1
 425 888 l 1
343 696 m 0
 424 696 470 673 519 633 c 1
 487 593 l 1
 441 629 403 645 347 645 c 0
 228 645 129 561 129 343 c 0
 129 135 224 42 344 42 c 0
 415 42 456 67 496 99 c 1
 527 60 l 1
 486 21 427 -11 342 -11 c 0
 184 -11 66 112 66 343 c 0
 66 577 191 696 343 696 c 0
EndSplineSet
EndChar

StartChar: uni0107
Encoding: 263 263 198
Width: 469
Flags: W
LayerCount: 2
Fore
SplineSet
361 782 m 1
 387 730 l 1
 192 645 l 1
 173 679 l 1
 361 782 l 1
285 534 m 0
 344 534 389 519 433 481 c 1
 404 443 l 1
 370 470 336 484 288 484 c 0
 193 484 126 410 126 259 c 0
 126 109 192 40 287 40 c 0
 336 40 371 56 408 84 c 1
 436 45 l 1
 395 10 345 -11 286 -11 c 0
 152 -11 64 88 64 258 c 0
 64 426 151 534 285 534 c 0
EndSplineSet
EndChar

StartChar: uni010C
Encoding: 268 268 199
Width: 550
Flags: W
LayerCount: 2
Fore
SplineSet
465 888 m 1
 491 857 l 1
 362 756 l 1
 326 756 l 1
 196 857 l 1
 222 888 l 1
 344 808 l 1
 465 888 l 1
343 696 m 0
 424 696 470 673 519 633 c 1
 487 593 l 1
 441 629 403 645 347 645 c 0
 228 645 129 561 129 343 c 0
 129 135 224 42 344 42 c 0
 415 42 456 67 496 99 c 1
 527 60 l 1
 486 21 427 -11 342 -11 c 0
 184 -11 66 112 66 343 c 0
 66 577 191 696 343 696 c 0
EndSplineSet
EndChar

StartChar: uni010D
Encoding: 269 269 200
Width: 469
Flags: W
LayerCount: 2
Fore
SplineSet
407 769 m 1
 433 739 l 1
 304 633 l 1
 268 633 l 1
 138 739 l 1
 164 769 l 1
 286 685 l 1
 407 769 l 1
285 534 m 0
 344 534 389 519 433 481 c 1
 404 443 l 1
 370 470 336 484 288 484 c 0
 193 484 126 410 126 259 c 0
 126 109 192 40 287 40 c 0
 336 40 371 56 408 84 c 1
 436 45 l 1
 395 10 345 -11 286 -11 c 0
 152 -11 64 88 64 258 c 0
 64 426 151 534 285 534 c 0
EndSplineSet
EndChar

StartChar: uni010E
Encoding: 270 270 201
Width: 632
Flags: W
LayerCount: 2
Fore
SplineSet
421 888 m 1
 447 857 l 1
 318 756 l 1
 282 756 l 1
 152 857 l 1
 178 888 l 1
 300 808 l 1
 421 888 l 1
247 685 m 2
 406 685 566 630 566 348 c 0
 566 64 399 0 258 0 c 2
 111 0 l 1
 111 685 l 1
 247 685 l 2
255 635 m 2
 171 635 l 1
 171 50 l 1
 262 50 l 2
 380 50 503 102 503 348 c 0
 503 599 375 635 255 635 c 2
EndSplineSet
EndChar

StartChar: uni010F
Encoding: 271 271 202
Width: 583
Flags: W
LayerCount: 2
Fore
SplineSet
416 463 m 1
 416 743 l 1
 474 736 l 1
 474 0 l 1
 424 0 l 1
 417 80 l 1
 386 28 336 -11 260 -11 c 0
 138 -11 64 93 64 259 c 0
 64 420 141 534 269 534 c 0
 340 534 386 500 416 463 c 1
555 742 m 1
 610 736 l 1
 571 572 l 1
 536 577 l 1
 555 742 l 1
269 37 m 0
 338 37 380 72 416 134 c 1
 416 407 l 1
 385 451 343 486 279 486 c 0
 187 486 125 407 126 260 c 0
 126 114 181 37 269 37 c 0
EndSplineSet
EndChar

StartChar: uni0110
Encoding: 272 272 203
Width: 637
Flags: W
LayerCount: 2
Fore
SplineSet
252 685 m 2
 411 685 571 630 571 348 c 0
 571 64 404 0 263 0 c 2
 116 0 l 1
 116 328 l 1
 23 328 l 1
 23 376 l 1
 116 376 l 1
 116 685 l 1
 252 685 l 2
266 50 m 2
 385 50 508 102 508 348 c 0
 508 599 380 635 259 635 c 2
 176 635 l 1
 176 376 l 1
 351 376 l 1
 351 328 l 1
 176 328 l 1
 176 50 l 1
 266 50 l 2
EndSplineSet
EndChar

StartChar: uni0111
Encoding: 273 273 204
Width: 591
Flags: W
LayerCount: 2
Fore
SplineSet
474 663 m 1
 556 663 l 1
 556 616 l 1
 474 616 l 1
 474 0 l 1
 424 0 l 1
 417 80 l 1
 386 28 336 -11 260 -11 c 0
 138 -11 64 93 64 259 c 0
 64 420 141 534 269 534 c 0
 340 534 386 500 416 463 c 1
 416 616 l 1
 257 616 l 1
 257 663 l 1
 416 663 l 1
 416 743 l 1
 474 736 l 1
 474 663 l 1
269 37 m 0
 338 37 380 72 416 134 c 1
 416 407 l 1
 385 451 343 486 279 486 c 0
 187 486 125 407 126 260 c 0
 126 114 181 37 269 37 c 0
EndSplineSet
EndChar

StartChar: uni0112
Encoding: 274 274 205
Width: 512
Flags: W
LayerCount: 2
Fore
SplineSet
409 802 m 1
 168 802 l 1
 168 849 l 1
 409 849 l 1
 409 802 l 1
459 685 m 1
 452 635 l 1
 171 635 l 1
 171 380 l 1
 414 380 l 1
 414 330 l 1
 171 330 l 1
 171 50 l 1
 466 50 l 1
 466 0 l 1
 111 0 l 1
 111 685 l 1
 459 685 l 1
EndSplineSet
EndChar

StartChar: uni0113
Encoding: 275 275 206
Width: 535
Flags: W
LayerCount: 2
Fore
SplineSet
397 676 m 1
 156 676 l 1
 156 723 l 1
 397 723 l 1
 397 676 l 1
477 281 m 0
 477 265 476 249 475 239 c 1
 126 239 l 1
 133 97 199 38 289 38 c 0
 346 38 384 56 430 90 c 1
 457 53 l 1
 408 13 355 -11 286 -11 c 0
 148 -11 64 89 64 257 c 0
 64 424 145 534 273 534 c 0
 409 534 477 435 477 281 c 0
420 284 m 1
 420 299 l 2
 420 413 374 486 275 486 c 0
 194 486 132 425 125 284 c 1
 420 284 l 1
EndSplineSet
EndChar

StartChar: uni0116
Encoding: 278 278 207
Width: 512
Flags: W
LayerCount: 2
Fore
SplineSet
288 879 m 0
 315 879 332 860 332 837 c 0
 332 814 315 795 288 795 c 0
 262 795 245 814 245 837 c 0
 245 860 262 879 288 879 c 0
459 685 m 1
 452 635 l 1
 171 635 l 1
 171 380 l 1
 414 380 l 1
 414 330 l 1
 171 330 l 1
 171 50 l 1
 466 50 l 1
 466 0 l 1
 111 0 l 1
 111 685 l 1
 459 685 l 1
EndSplineSet
EndChar

StartChar: uni0117
Encoding: 279 279 208
Width: 535
Flags: W
LayerCount: 2
Fore
SplineSet
276 753 m 0
 303 753 320 734 320 711 c 0
 320 688 303 669 276 669 c 0
 250 669 233 688 233 711 c 0
 233 734 250 753 276 753 c 0
477 281 m 0
 477 265 476 249 475 239 c 1
 126 239 l 1
 133 97 199 38 289 38 c 0
 346 38 384 56 430 90 c 1
 457 53 l 1
 408 13 355 -11 286 -11 c 0
 148 -11 64 89 64 257 c 0
 64 424 145 534 273 534 c 0
 409 534 477 435 477 281 c 0
420 284 m 1
 420 299 l 2
 420 413 374 486 275 486 c 0
 194 486 132 425 125 284 c 1
 420 284 l 1
EndSplineSet
EndChar

StartChar: uni0118
Encoding: 280 280 209
Width: 512
Flags: W
LayerCount: 2
Fore
SplineSet
171 50 m 1
 466 50 l 1
 466 0 l 1
 434 0 l 1
 346 -40 312 -71 312 -118 c 0
 312 -149 331 -170 375 -170 c 0
 394 -170 411 -168 433 -163 c 1
 427 -211 l 1
 407 -215 391 -218 369 -218 c 0
 296 -218 258 -178 258 -126 c 0
 258 -73 293 -33 362 0 c 1
 111 0 l 1
 111 685 l 1
 459 685 l 1
 452 635 l 1
 171 635 l 1
 171 380 l 1
 414 380 l 1
 414 330 l 1
 171 330 l 1
 171 50 l 1
EndSplineSet
EndChar

StartChar: uni0119
Encoding: 281 281 210
Width: 535
Flags: W
LayerCount: 2
Fore
SplineSet
477 281 m 0
 477 265 476 249 475 239 c 1
 126 239 l 1
 133 97 199 38 289 38 c 0
 346 38 384 56 430 90 c 1
 457 53 l 1
 431 32 404 15 374 4 c 0
 287 -35 254 -66 254 -113 c 0
 254 -144 274 -165 318 -165 c 0
 337 -165 352 -163 375 -158 c 1
 369 -206 l 1
 349 -210 333 -213 311 -213 c 0
 238 -213 200 -173 200 -121 c 0
 200 -75 228 -39 283 -11 c 1
 147 -10 64 90 64 257 c 0
 64 424 145 534 273 534 c 0
 409 534 477 435 477 281 c 0
420 284 m 1
 420 299 l 2
 420 413 374 486 275 486 c 0
 194 486 132 425 125 284 c 1
 420 284 l 1
EndSplineSet
EndChar

StartChar: uni011A
Encoding: 282 282 211
Width: 512
Flags: W
LayerCount: 2
Fore
SplineSet
410 888 m 1
 436 857 l 1
 307 756 l 1
 271 756 l 1
 141 857 l 1
 167 888 l 1
 289 808 l 1
 410 888 l 1
459 685 m 1
 452 635 l 1
 171 635 l 1
 171 380 l 1
 414 380 l 1
 414 330 l 1
 171 330 l 1
 171 50 l 1
 466 50 l 1
 466 0 l 1
 111 0 l 1
 111 685 l 1
 459 685 l 1
EndSplineSet
EndChar

StartChar: uni011B
Encoding: 283 283 212
Width: 535
Flags: W
LayerCount: 2
Fore
SplineSet
294 633 m 1
 258 633 l 1
 128 739 l 1
 154 769 l 1
 276 685 l 1
 397 769 l 1
 423 739 l 1
 294 633 l 1
477 281 m 0
 477 265 476 249 475 239 c 1
 126 239 l 1
 133 97 199 38 289 38 c 0
 346 38 384 56 430 90 c 1
 457 53 l 1
 408 13 355 -11 286 -11 c 0
 148 -11 64 89 64 257 c 0
 64 424 145 534 273 534 c 0
 409 534 477 435 477 281 c 0
420 284 m 1
 420 299 l 2
 420 413 374 486 275 486 c 0
 193 486 132 426 126 284 c 1
 420 284 l 1
EndSplineSet
EndChar

StartChar: uni011E
Encoding: 286 286 213
Width: 618
Flags: W
LayerCount: 2
Fore
SplineSet
351 765 m 0
 282 765 230 808 221 865 c 1
 261 874 l 1
 274 837 304 812 351 812 c 0
 398 812 429 837 442 874 c 1
 482 865 l 1
 473 808 420 765 351 765 c 0
352 696 m 0
 432 696 484 673 540 628 c 1
 504 590 l 1
 456 628 413 645 352 645 c 0
 242 645 129 563 129 345 c 0
 129 135 214 40 349 40 c 0
 405 40 450 52 493 76 c 1
 493 319 l 1
 359 319 l 1
 352 369 l 1
 552 369 l 1
 552 45 l 1
 491 10 423 -11 349 -11 c 0
 179 -11 66 108 66 345 c 0
 66 581 205 696 352 696 c 0
EndSplineSet
EndChar

StartChar: uni011F
Encoding: 287 287 214
Width: 506
Flags: W
LayerCount: 2
Fore
SplineSet
251 653 m 0
 182 653 130 696 121 763 c 1
 161 772 l 1
 174 725 204 700 251 700 c 0
 298 700 329 725 342 772 c 1
 382 763 l 1
 373 696 320 653 251 653 c 0
477 568 m 1
 495 512 l 1
 459 502 413 498 350 497 c 1
 405 471 439 427 439 355 c 0
 439 253 368 183 250 183 c 0
 225 183 202 186 182 193 c 1
 157 179 142 157 142 133 c 0
 142 102 162 79 225 79 c 2
 310 79 l 2
 414 79 478 23 478 -55 c 0
 478 -149 404 -205 251 -205 c 0
 93 -205 33 -159 33 -55 c 1
 87 -55 l 1
 88 -128 126 -157 251 -157 c 0
 373 -157 419 -120 419 -58 c 0
 419 -2 375 29 301 29 c 2
 216 29 l 2
 129 29 87 71 87 121 c 0
 87 156 108 187 144 210 c 1
 84 241 56 287 56 357 c 0
 56 462 133 534 248 534 c 0
 388 532 426 547 477 568 c 1
248 489 m 0
 159 489 116 434 116 357 c 0
 116 273 168 225 248 225 c 0
 333 225 380 273 380 356 c 0
 380 438 337 489 248 489 c 0
EndSplineSet
EndChar

StartChar: uni0122
Encoding: 290 290 215
Width: 618
Flags: W
LayerCount: 2
Fore
SplineSet
352 696 m 0
 432 696 484 673 540 628 c 1
 504 590 l 1
 456 628 413 645 352 645 c 0
 242 645 129 563 129 345 c 0
 129 135 214 40 349 40 c 0
 405 40 450 52 493 76 c 1
 493 319 l 1
 359 319 l 1
 352 369 l 1
 552 369 l 1
 552 45 l 1
 491 10 423 -11 349 -11 c 0
 179 -11 66 108 66 345 c 0
 66 581 205 696 352 696 c 0
340 -85 m 0
 366 -85 384 -103 384 -127 c 0
 384 -143 379 -156 361 -193 c 2
 321 -279 l 1
 286 -279 l 1
 318 -165 l 1
 304 -156 296 -144 296 -127 c 0
 296 -103 315 -85 340 -85 c 0
EndSplineSet
EndChar

StartChar: uni0123
Encoding: 291 291 216
Width: 506
Flags: W
LayerCount: 2
Fore
SplineSet
249 588 m 0
 222 588 205 607 205 631 c 0
 205 647 210 660 227 697 c 2
 267 783 l 1
 303 783 l 1
 271 668 l 1
 284 660 293 648 293 631 c 0
 293 607 274 588 249 588 c 0
477 568 m 1
 495 512 l 1
 459 502 413 498 350 497 c 1
 405 471 439 427 439 355 c 0
 439 253 368 183 250 183 c 0
 225 183 202 186 182 193 c 1
 157 179 142 157 142 133 c 0
 142 102 162 79 225 79 c 2
 310 79 l 2
 414 79 478 23 478 -55 c 0
 478 -149 404 -205 251 -205 c 0
 93 -205 33 -159 33 -55 c 1
 87 -55 l 1
 88 -128 126 -157 251 -157 c 0
 373 -157 419 -120 419 -58 c 0
 419 -2 375 29 301 29 c 2
 216 29 l 2
 129 29 87 71 87 121 c 0
 87 156 108 187 144 210 c 1
 84 241 56 287 56 357 c 0
 56 462 133 534 248 534 c 0
 388 532 426 547 477 568 c 1
248 489 m 0
 159 489 116 434 116 357 c 0
 116 273 168 225 248 225 c 0
 333 225 380 273 380 356 c 0
 380 438 337 489 248 489 c 0
EndSplineSet
EndChar

StartChar: uni012A
Encoding: 298 298 217
Width: 282
Flags: W
LayerCount: 2
Fore
SplineSet
261 802 m 1
 20 802 l 1
 20 849 l 1
 261 849 l 1
 261 802 l 1
171 685 m 1
 171 0 l 1
 111 0 l 1
 111 685 l 1
 171 685 l 1
EndSplineSet
EndChar

StartChar: uni012B
Encoding: 299 299 218
Width: 267
Flags: W
LayerCount: 2
Fore
SplineSet
254 676 m 1
 13 676 l 1
 13 723 l 1
 254 723 l 1
 254 676 l 1
163 523 m 1
 163 0 l 1
 105 0 l 1
 105 523 l 1
 163 523 l 1
EndSplineSet
EndChar

StartChar: uni012E
Encoding: 302 302 219
Width: 282
Flags: W
LayerCount: 2
Fore
SplineSet
171 0 m 1
 83 -40 49 -71 49 -118 c 0
 49 -149 68 -170 112 -170 c 0
 131 -170 148 -168 170 -163 c 1
 164 -211 l 1
 144 -215 128 -218 106 -218 c 0
 33 -218 -5 -178 -5 -126 c 0
 -5 -70 34 -29 111 6 c 1
 111 685 l 1
 171 685 l 1
 171 0 l 1
EndSplineSet
EndChar

StartChar: uni012F
Encoding: 303 303 220
Width: 267
Flags: W
LayerCount: 2
Fore
SplineSet
133 753 m 0
 160 753 177 734 177 711 c 0
 177 688 160 669 133 669 c 0
 107 669 90 688 90 711 c 0
 90 734 107 753 133 753 c 0
105 7 m 1
 105 523 l 1
 163 523 l 1
 163 0 l 1
 162 0 l 1
 74 -40 40 -71 40 -118 c 0
 40 -149 59 -170 103 -170 c 0
 122 -170 139 -168 161 -163 c 1
 155 -211 l 1
 135 -215 119 -218 97 -218 c 0
 24 -218 -14 -178 -14 -126 c 0
 -14 -69 26 -28 105 7 c 1
EndSplineSet
EndChar

StartChar: uni0130
Encoding: 304 304 221
Width: 282
Flags: W
LayerCount: 2
Fore
SplineSet
140 879 m 0
 167 879 184 860 184 837 c 0
 184 814 167 795 140 795 c 0
 114 795 97 814 97 837 c 0
 97 860 114 879 140 879 c 0
171 685 m 1
 171 0 l 1
 111 0 l 1
 111 685 l 1
 171 685 l 1
EndSplineSet
EndChar

StartChar: uni0131
Encoding: 305 305 222
Width: 267
Flags: W
LayerCount: 2
Fore
SplineSet
163 523 m 1
 163 0 l 1
 105 0 l 1
 105 523 l 1
 163 523 l 1
EndSplineSet
EndChar

StartChar: uni0136
Encoding: 310 310 223
Width: 547
Flags: W
LayerCount: 2
Fore
SplineSet
171 685 m 1
 171 0 l 1
 111 0 l 1
 111 685 l 1
 171 685 l 1
530 685 m 1
 246 370 l 1
 547 0 l 1
 474 0 l 1
 175 367 l 1
 461 685 l 1
 530 685 l 1
307 -85 m 0
 333 -85 351 -103 351 -127 c 0
 351 -143 346 -156 328 -193 c 2
 288 -279 l 1
 253 -279 l 1
 285 -165 l 1
 271 -156 263 -144 263 -127 c 0
 263 -103 282 -85 307 -85 c 0
EndSplineSet
EndChar

StartChar: uni0137
Encoding: 311 311 224
Width: 487
Flags: W
LayerCount: 2
Fore
SplineSet
163 743 m 1
 163 0 l 1
 105 0 l 1
 105 736 l 1
 163 743 l 1
456 523 m 1
 236 289 l 1
 479 0 l 1
 409 0 l 1
 169 286 l 1
 388 523 l 1
 456 523 l 1
262 -85 m 0
 288 -85 306 -103 306 -127 c 0
 306 -143 301 -156 283 -193 c 2
 243 -279 l 1
 208 -279 l 1
 240 -165 l 1
 226 -156 218 -144 218 -127 c 0
 218 -103 237 -85 262 -85 c 0
EndSplineSet
EndChar

StartChar: uni0139
Encoding: 313 313 225
Width: 477
Flags: W
LayerCount: 2
Fore
SplineSet
222 888 m 1
 248 836 l 1
 50 758 l 1
 34 792 l 1
 222 888 l 1
171 685 m 1
 171 54 l 1
 457 54 l 1
 449 0 l 1
 111 0 l 1
 111 685 l 1
 171 685 l 1
EndSplineSet
EndChar

StartChar: uni013A
Encoding: 314 314 226
Width: 290
Flags: W
LayerCount: 2
Fore
SplineSet
209 939 m 1
 235 887 l 1
 37 809 l 1
 21 843 l 1
 209 939 l 1
192 -11 m 0
 137 -11 99 21 99 88 c 2
 99 736 l 1
 157 743 l 1
 157 90 l 2
 157 56 171 39 199 39 c 0
 212 39 225 41 236 46 c 1
 251 3 l 1
 235 -5 214 -11 192 -11 c 0
EndSplineSet
EndChar

StartChar: uni013B
Encoding: 315 315 227
Width: 477
Flags: W
LayerCount: 2
Fore
SplineSet
171 685 m 1
 171 54 l 1
 457 54 l 1
 449 0 l 1
 111 0 l 1
 111 685 l 1
 171 685 l 1
282 -85 m 0
 308 -85 326 -103 326 -127 c 0
 326 -143 321 -156 303 -193 c 2
 263 -279 l 1
 228 -279 l 1
 260 -165 l 1
 246 -156 238 -144 238 -127 c 0
 238 -103 257 -85 282 -85 c 0
EndSplineSet
EndChar

StartChar: uni013C
Encoding: 316 316 228
Width: 290
Flags: W
LayerCount: 2
Fore
SplineSet
192 -11 m 0
 137 -11 99 21 99 88 c 2
 99 736 l 1
 157 743 l 1
 157 90 l 2
 157 56 171 39 199 39 c 0
 212 39 225 41 236 46 c 1
 251 3 l 1
 235 -5 214 -11 192 -11 c 0
178 -85 m 0
 204 -85 222 -103 222 -127 c 0
 222 -143 217 -156 199 -193 c 2
 159 -279 l 1
 124 -279 l 1
 156 -165 l 1
 142 -156 134 -144 134 -127 c 0
 134 -103 153 -85 178 -85 c 0
EndSplineSet
EndChar

StartChar: uni013D
Encoding: 317 317 229
Width: 477
Flags: W
LayerCount: 2
Fore
SplineSet
270 521 m 1
 309 685 l 1
 254 691 l 1
 235 526 l 1
 270 521 l 1
171 685 m 1
 171 54 l 1
 457 54 l 1
 449 0 l 1
 111 0 l 1
 111 685 l 1
 171 685 l 1
EndSplineSet
EndChar

StartChar: uni013E
Encoding: 318 318 230
Width: 290
Flags: W
LayerCount: 2
Fore
SplineSet
192 -11 m 0
 137 -11 99 21 99 88 c 2
 99 736 l 1
 157 743 l 1
 157 90 l 2
 157 56 171 39 199 39 c 0
 212 39 225 41 236 46 c 1
 251 3 l 1
 235 -5 214 -11 192 -11 c 0
252 572 m 1
 291 736 l 1
 235 742 l 1
 216 577 l 1
 252 572 l 1
EndSplineSet
EndChar

StartChar: uni0141
Encoding: 321 321 231
Width: 488
Flags: W
LayerCount: 2
Fore
SplineSet
181 54 m 1
 468 54 l 1
 459 0 l 1
 121 0 l 1
 121 281 l 1
 57 241 l 1
 33 280 l 1
 121 335 l 1
 121 685 l 1
 181 685 l 1
 181 372 l 1
 362 485 l 1
 387 446 l 1
 181 318 l 1
 181 54 l 1
EndSplineSet
EndChar

StartChar: uni0142
Encoding: 322 322 232
Width: 299
Flags: W
LayerCount: 2
Fore
SplineSet
205 39 m 0
 219 39 231 41 242 46 c 1
 258 3 l 1
 242 -5 220 -11 198 -11 c 0
 143 -11 106 21 106 88 c 2
 106 321 l 1
 50 287 l 1
 27 325 l 1
 106 374 l 1
 106 736 l 1
 164 743 l 1
 164 409 l 1
 264 470 l 1
 286 431 l 1
 164 357 l 1
 164 90 l 2
 164 56 177 39 205 39 c 0
EndSplineSet
EndChar

StartChar: uni0143
Encoding: 323 323 233
Width: 673
Flags: W
LayerCount: 2
Fore
SplineSet
426 888 m 1
 452 836 l 1
 254 758 l 1
 238 792 l 1
 426 888 l 1
562 685 m 1
 562 0 l 1
 483 0 l 1
 160 619 l 1
 163 572 168 506 168 383 c 2
 168 0 l 1
 111 0 l 1
 111 685 l 1
 188 685 l 1
 513 66 l 1
 511 95 505 180 505 269 c 2
 505 685 l 1
 562 685 l 1
EndSplineSet
EndChar

StartChar: uni0144
Encoding: 324 324 234
Width: 581
Flags: W
LayerCount: 2
Fore
SplineSet
397 730 m 1
 202 645 l 1
 183 679 l 1
 371 782 l 1
 397 730 l 1
336 534 m 0
 431 534 481 475 481 374 c 2
 481 0 l 1
 423 0 l 1
 423 366 l 2
 423 452 389 487 325 487 c 0
 254 487 205 443 163 379 c 1
 163 0 l 1
 105 0 l 1
 105 523 l 1
 155 523 l 1
 160 435 l 1
 202 494 261 534 336 534 c 0
EndSplineSet
EndChar

StartChar: uni0145
Encoding: 325 325 235
Width: 673
Flags: W
LayerCount: 2
Fore
SplineSet
562 685 m 1
 562 0 l 1
 483 0 l 1
 160 619 l 1
 163 572 168 506 168 383 c 2
 168 0 l 1
 111 0 l 1
 111 685 l 1
 188 685 l 1
 513 66 l 1
 511 95 505 180 505 269 c 2
 505 685 l 1
 562 685 l 1
337 -85 m 0
 363 -85 381 -103 381 -127 c 0
 381 -143 376 -156 358 -193 c 2
 318 -279 l 1
 283 -279 l 1
 315 -165 l 1
 301 -156 293 -144 293 -127 c 0
 293 -103 312 -85 337 -85 c 0
EndSplineSet
EndChar

StartChar: uni0146
Encoding: 326 326 236
Width: 581
Flags: W
LayerCount: 2
Fore
SplineSet
336 534 m 0
 431 534 481 475 481 374 c 2
 481 0 l 1
 423 0 l 1
 423 366 l 2
 423 452 389 487 325 487 c 0
 254 487 205 443 163 379 c 1
 163 0 l 1
 105 0 l 1
 105 523 l 1
 155 523 l 1
 160 435 l 1
 202 494 261 534 336 534 c 0
291 -85 m 0
 317 -85 335 -103 335 -127 c 0
 335 -143 330 -156 312 -193 c 2
 272 -279 l 1
 237 -279 l 1
 269 -165 l 1
 255 -156 247 -144 247 -127 c 0
 247 -103 266 -85 291 -85 c 0
EndSplineSet
EndChar

StartChar: uni0147
Encoding: 327 327 237
Width: 673
Flags: W
LayerCount: 2
Fore
SplineSet
466 888 m 1
 492 857 l 1
 363 756 l 1
 327 756 l 1
 197 857 l 1
 223 888 l 1
 345 808 l 1
 466 888 l 1
562 685 m 1
 562 0 l 1
 483 0 l 1
 160 619 l 1
 163 572 168 506 168 383 c 2
 168 0 l 1
 111 0 l 1
 111 685 l 1
 188 685 l 1
 513 66 l 1
 511 95 505 180 505 269 c 2
 505 685 l 1
 562 685 l 1
EndSplineSet
EndChar

StartChar: uni0148
Encoding: 328 328 238
Width: 581
Flags: W
LayerCount: 2
Fore
SplineSet
314 633 m 1
 278 633 l 1
 148 739 l 1
 174 769 l 1
 296 685 l 1
 417 769 l 1
 443 739 l 1
 314 633 l 1
336 534 m 0
 431 534 481 475 481 374 c 2
 481 0 l 1
 423 0 l 1
 423 366 l 2
 423 452 389 487 325 487 c 0
 254 487 205 443 163 379 c 1
 163 0 l 1
 105 0 l 1
 105 523 l 1
 155 523 l 1
 160 435 l 1
 202 494 261 534 336 534 c 0
EndSplineSet
EndChar

StartChar: uni014C
Encoding: 332 332 239
Width: 691
Flags: W
LayerCount: 2
Fore
SplineSet
466 802 m 1
 225 802 l 1
 225 849 l 1
 466 849 l 1
 466 802 l 1
345 696 m 0
 512 696 625 573 625 342 c 0
 625 117 515 -11 345 -11 c 0
 180 -11 66 113 66 341 c 0
 66 567 181 696 345 696 c 0
345 645 m 0
 216 645 129 549 129 341 c 0
 129 136 218 40 345 40 c 0
 479 40 562 136 562 342 c 0
 562 550 477 645 345 645 c 0
EndSplineSet
EndChar

StartChar: uni014D
Encoding: 333 333 240
Width: 571
Flags: W
LayerCount: 2
Fore
SplineSet
406 676 m 1
 165 676 l 1
 165 723 l 1
 406 723 l 1
 406 676 l 1
286 534 m 0
 425 534 507 434 507 263 c 0
 507 94 423 -11 285 -11 c 0
 146 -11 64 93 64 261 c 0
 64 429 149 534 286 534 c 0
286 485 m 0
 187 485 126 411 126 261 c 0
 126 114 185 38 285 38 c 0
 385 38 446 113 446 263 c 0
 446 410 387 485 286 485 c 0
EndSplineSet
EndChar

StartChar: uni0150
Encoding: 336 336 241
Width: 691
Flags: W
LayerCount: 2
Fore
SplineSet
356 907 m 1
 400 876 l 1
 284 731 l 1
 254 751 l 1
 356 907 l 1
490 898 m 1
 533 865 l 1
 409 726 l 1
 380 747 l 1
 490 898 l 1
345 696 m 0
 512 696 625 573 625 342 c 0
 625 117 515 -11 345 -11 c 0
 180 -11 66 113 66 341 c 0
 66 567 181 696 345 696 c 0
345 645 m 0
 216 645 129 549 129 341 c 0
 129 136 218 40 345 40 c 0
 479 40 562 136 562 342 c 0
 562 550 477 645 345 645 c 0
EndSplineSet
EndChar

StartChar: uni0151
Encoding: 337 337 242
Width: 571
Flags: W
LayerCount: 2
Fore
SplineSet
305 783 m 1
 349 753 l 1
 233 598 l 1
 203 617 l 1
 305 783 l 1
439 774 m 1
 482 741 l 1
 358 593 l 1
 329 614 l 1
 439 774 l 1
286 534 m 0
 425 534 507 434 507 263 c 0
 507 94 423 -11 285 -11 c 0
 146 -11 64 93 64 261 c 0
 64 429 149 534 286 534 c 0
286 485 m 0
 187 485 126 411 126 261 c 0
 126 114 185 38 285 38 c 0
 385 38 446 113 446 263 c 0
 446 410 387 485 286 485 c 0
EndSplineSet
EndChar

StartChar: uni0152
Encoding: 338 338 243
Width: 870
Flags: W
LayerCount: 2
Fore
SplineSet
824 50 m 1
 824 0 l 1
 403 0 l 1
 382 -7 358 -11 334 -11 c 0
 180 -11 66 113 66 341 c 0
 66 567 181 696 334 696 c 0
 359 696 384 692 406 685 c 1
 817 685 l 1
 810 635 l 1
 493 635 l 1
 558 584 598 497 604 380 c 1
 772 380 l 1
 772 330 l 1
 605 330 l 1
 602 200 560 104 489 50 c 1
 824 50 l 1
129 341 m 0
 129 136 218 40 335 40 c 0
 459 40 542 136 542 347 c 0
 542 550 457 645 335 645 c 0
 216 645 129 549 129 341 c 0
EndSplineSet
EndChar

StartChar: uni0153
Encoding: 339 339 244
Width: 916
Flags: W
LayerCount: 2
Fore
SplineSet
859 281 m 0
 859 265 858 249 857 239 c 1
 507 239 l 1
 514 97 580 38 670 38 c 0
 727 38 766 56 811 90 c 1
 838 53 l 1
 790 13 737 -11 667 -11 c 0
 574 -11 510 38 475 120 c 1
 440 39 377 -11 285 -11 c 0
 146 -11 64 93 64 261 c 0
 64 429 149 534 286 534 c 0
 379 534 443 486 477 405 c 1
 511 484 572 534 657 534 c 0
 790 534 859 435 859 281 c 0
801 284 m 1
 801 299 l 2
 801 413 755 486 659 486 c 0
 576 486 513 426 507 284 c 1
 801 284 l 1
285 38 m 0
 385 38 446 113 446 263 c 0
 446 410 387 485 286 485 c 0
 187 485 126 411 126 261 c 0
 126 114 185 38 285 38 c 0
EndSplineSet
EndChar

StartChar: uni0154
Encoding: 340 340 245
Width: 590
Flags: W
LayerCount: 2
Fore
SplineSet
398 836 m 1
 200 758 l 1
 184 792 l 1
 372 888 l 1
 398 836 l 1
485 0 m 1
 308 307 l 1
 171 307 l 1
 171 0 l 1
 111 0 l 1
 111 685 l 1
 277 685 l 2
 442 685 521 620 521 499 c 0
 521 397 465 343 368 318 c 1
 556 0 l 1
 485 0 l 1
171 356 m 1
 285 356 l 2
 394 356 457 399 457 499 c 0
 457 590 406 636 275 636 c 2
 171 636 l 1
 171 356 l 1
EndSplineSet
EndChar

StartChar: uni0155
Encoding: 341 341 246
Width: 372
Flags: W
LayerCount: 2
Fore
SplineSet
333 730 m 1
 138 645 l 1
 119 679 l 1
 307 782 l 1
 333 730 l 1
307 534 m 0
 328 534 346 532 359 528 c 1
 348 473 l 1
 334 477 320 479 302 479 c 0
 230 479 191 427 163 320 c 1
 163 0 l 1
 105 0 l 1
 105 523 l 1
 155 523 l 1
 160 406 l 1
 187 492 235 534 307 534 c 0
EndSplineSet
EndChar

StartChar: uni0156
Encoding: 342 342 247
Width: 590
Flags: W
LayerCount: 2
Fore
SplineSet
368 318 m 1
 556 0 l 1
 485 0 l 1
 308 307 l 1
 171 307 l 1
 171 0 l 1
 111 0 l 1
 111 685 l 1
 277 685 l 2
 442 685 521 620 521 499 c 0
 521 397 465 343 368 318 c 1
171 356 m 1
 285 356 l 2
 394 356 457 399 457 499 c 0
 457 590 406 636 275 636 c 2
 171 636 l 1
 171 356 l 1
307 -85 m 0
 333 -85 351 -103 351 -127 c 0
 351 -143 346 -156 328 -193 c 2
 288 -279 l 1
 253 -279 l 1
 285 -165 l 1
 271 -156 263 -144 263 -127 c 0
 263 -103 282 -85 307 -85 c 0
EndSplineSet
EndChar

StartChar: uni0157
Encoding: 343 343 248
Width: 372
Flags: W
LayerCount: 2
Fore
SplineSet
307 534 m 0
 328 534 346 532 359 528 c 1
 348 473 l 1
 334 477 320 479 302 479 c 0
 230 479 191 427 163 320 c 1
 163 0 l 1
 105 0 l 1
 105 523 l 1
 155 523 l 1
 160 406 l 1
 187 492 235 534 307 534 c 0
134 -85 m 0
 160 -85 178 -103 178 -127 c 0
 178 -143 173 -156 155 -193 c 2
 115 -279 l 1
 80 -279 l 1
 112 -165 l 1
 98 -156 90 -144 90 -127 c 0
 90 -103 109 -85 134 -85 c 0
EndSplineSet
EndChar

StartChar: uni0158
Encoding: 344 344 249
Width: 590
Flags: W
LayerCount: 2
Fore
SplineSet
309 756 m 1
 273 756 l 1
 143 857 l 1
 169 888 l 1
 291 808 l 1
 412 888 l 1
 438 857 l 1
 309 756 l 1
485 0 m 1
 308 307 l 1
 171 307 l 1
 171 0 l 1
 111 0 l 1
 111 685 l 1
 277 685 l 2
 442 685 521 620 521 499 c 0
 521 397 465 343 368 318 c 1
 556 0 l 1
 485 0 l 1
171 356 m 1
 285 356 l 2
 394 356 457 399 457 499 c 0
 457 590 406 636 275 636 c 2
 171 636 l 1
 171 356 l 1
EndSplineSet
EndChar

StartChar: uni0159
Encoding: 345 345 250
Width: 372
Flags: W
LayerCount: 2
Fore
SplineSet
250 633 m 1
 214 633 l 1
 84 739 l 1
 110 769 l 1
 232 685 l 1
 353 769 l 1
 379 739 l 1
 250 633 l 1
160 406 m 1
 187 492 235 534 307 534 c 0
 328 534 346 532 359 528 c 1
 348 473 l 1
 334 477 320 479 302 479 c 0
 230 479 191 427 163 320 c 1
 163 0 l 1
 105 0 l 1
 105 523 l 1
 155 523 l 1
 160 406 l 1
EndSplineSet
EndChar

StartChar: uni015A
Encoding: 346 346 251
Width: 539
Flags: W
LayerCount: 2
Fore
SplineSet
352 888 m 1
 378 836 l 1
 180 758 l 1
 164 792 l 1
 352 888 l 1
267 696 m 0
 356 696 410 668 464 620 c 1
 429 582 l 1
 378 626 332 645 269 645 c 0
 185 645 127 601 127 529 c 0
 127 459 164 427 287 390 c 0
 410 352 485 308 485 187 c 0
 485 70 396 -11 258 -11 c 0
 164 -11 95 22 39 75 c 1
 73 113 l 1
 124 69 177 40 257 40 c 0
 353 40 424 93 424 185 c 0
 424 268 383 302 261 340 c 0
 125 382 66 429 66 528 c 0
 66 625 147 696 267 696 c 0
EndSplineSet
EndChar

StartChar: uni015B
Encoding: 347 347 252
Width: 458
Flags: W
LayerCount: 2
Fore
SplineSet
312 782 m 1
 338 730 l 1
 143 645 l 1
 124 679 l 1
 312 782 l 1
231 534 m 0
 298 534 349 514 398 476 c 1
 371 438 l 1
 325 470 286 486 233 486 c 0
 164 486 117 452 117 398 c 0
 117 346 151 324 244 299 c 0
 359 269 412 230 412 141 c 0
 412 44 328 -11 223 -11 c 0
 138 -11 81 18 36 56 c 1
 68 93 l 1
 113 58 158 38 223 38 c 0
 298 38 351 74 351 138 c 0
 351 201 322 224 214 254 c 0
 102 283 57 324 57 397 c 0
 57 477 132 534 231 534 c 0
EndSplineSet
EndChar

StartChar: uni015E
Encoding: 350 350 253
Width: 539
Flags: W
LayerCount: 2
Fore
SplineSet
485 187 m 0
 485 76 405 -2 280 -10 c 1
 280 -64 l 1
 345 -69 372 -99 372 -140 c 0
 372 -197 324 -227 267 -227 c 0
 232 -227 205 -218 187 -206 c 1
 205 -170 l 1
 221 -179 240 -185 266 -185 c 0
 296 -185 321 -172 321 -140 c 0
 321 -111 295 -96 232 -96 c 1
 240 -11 l 1
 155 -7 91 26 39 75 c 1
 73 113 l 1
 124 69 177 40 257 40 c 0
 353 40 424 93 424 185 c 0
 424 268 383 302 261 340 c 0
 125 382 66 429 66 528 c 0
 66 625 147 696 267 696 c 0
 356 696 410 668 464 620 c 1
 429 582 l 1
 378 626 332 645 269 645 c 0
 185 645 127 601 127 529 c 0
 127 459 164 427 287 390 c 0
 410 352 485 308 485 187 c 0
EndSplineSet
EndChar

StartChar: uni015F
Encoding: 351 351 254
Width: 458
Flags: W
LayerCount: 2
Fore
SplineSet
412 141 m 0
 412 51 339 -3 244 -10 c 1
 244 -64 l 1
 309 -69 336 -99 336 -140 c 0
 336 -197 288 -227 231 -227 c 0
 196 -227 169 -218 151 -206 c 1
 169 -170 l 1
 185 -179 204 -185 230 -185 c 0
 260 -185 285 -172 285 -140 c 0
 285 -111 259 -96 196 -96 c 1
 204 -10 l 1
 129 -6 77 21 36 56 c 1
 68 93 l 1
 113 58 158 38 223 38 c 0
 298 38 351 74 351 138 c 0
 351 201 322 224 214 254 c 0
 102 283 57 324 57 397 c 0
 57 477 132 534 231 534 c 0
 298 534 349 514 398 476 c 1
 371 438 l 1
 325 470 286 486 233 486 c 0
 164 486 117 452 117 398 c 0
 117 346 151 324 244 299 c 0
 359 269 412 230 412 141 c 0
EndSplineSet
EndChar

StartChar: uni0160
Encoding: 352 352 255
Width: 539
Flags: W
LayerCount: 2
Fore
SplineSet
393 888 m 1
 419 857 l 1
 290 756 l 1
 254 756 l 1
 124 857 l 1
 150 888 l 1
 272 808 l 1
 393 888 l 1
267 696 m 0
 356 696 410 668 464 620 c 1
 429 582 l 1
 378 626 332 645 269 645 c 0
 185 645 127 601 127 529 c 0
 127 459 164 427 287 390 c 0
 410 352 485 308 485 187 c 0
 485 70 396 -11 258 -11 c 0
 164 -11 95 22 39 75 c 1
 73 113 l 1
 124 69 177 40 257 40 c 0
 353 40 424 93 424 185 c 0
 424 268 383 302 261 340 c 0
 125 382 66 429 66 528 c 0
 66 625 147 696 267 696 c 0
EndSplineSet
EndChar

StartChar: uni0161
Encoding: 353 353 256
Width: 458
Flags: W
LayerCount: 2
Fore
SplineSet
358 769 m 1
 384 739 l 1
 255 633 l 1
 219 633 l 1
 89 739 l 1
 115 769 l 1
 237 685 l 1
 358 769 l 1
231 534 m 0
 298 534 349 514 398 476 c 1
 371 438 l 1
 325 470 286 486 233 486 c 0
 164 486 117 452 117 398 c 0
 117 346 151 324 244 299 c 0
 359 269 412 230 412 141 c 0
 412 44 328 -11 223 -11 c 0
 138 -11 81 18 36 56 c 1
 68 93 l 1
 113 58 158 38 223 38 c 0
 298 38 351 74 351 138 c 0
 351 201 322 224 214 254 c 0
 102 283 57 324 57 397 c 0
 57 477 132 534 231 534 c 0
EndSplineSet
EndChar

StartChar: uni0162
Encoding: 354 354 257
Width: 495
Flags: W
LayerCount: 2
Fore
SplineSet
277 -64 m 1
 342 -69 370 -99 370 -140 c 0
 370 -197 321 -227 263 -227 c 0
 229 -227 203 -218 185 -206 c 1
 203 -170 l 1
 219 -179 237 -185 262 -185 c 0
 293 -185 319 -172 319 -140 c 0
 319 -111 293 -96 230 -96 c 1
 239 0 l 1
 218 0 l 1
 218 632 l 1
 15 632 l 1
 15 685 l 1
 485 685 l 1
 478 632 l 1
 277 632 l 1
 277 -64 l 1
EndSplineSet
EndChar

StartChar: uni0163
Encoding: 355 355 258
Width: 344
Flags: W
LayerCount: 2
Fore
SplineSet
242 -64 m 1
 307 -69 334 -99 334 -140 c 0
 334 -197 286 -227 229 -227 c 0
 194 -227 167 -218 149 -206 c 1
 167 -170 l 1
 183 -179 202 -185 228 -185 c 0
 258 -185 283 -172 283 -140 c 0
 283 -111 257 -96 194 -96 c 1
 202 -8 l 1
 142 3 106 49 106 127 c 2
 106 476 l 1
 18 476 l 1
 18 523 l 1
 106 523 l 1
 106 648 l 1
 164 655 l 1
 164 523 l 1
 299 523 l 1
 292 476 l 1
 164 476 l 1
 164 130 l 2
 164 69 188 39 241 39 c 0
 270 39 295 47 321 62 c 1
 344 22 l 1
 314 2 281 -9 242 -11 c 1
 242 -64 l 1
EndSplineSet
EndChar

StartChar: uni0164
Encoding: 356 356 259
Width: 495
Flags: W
LayerCount: 2
Fore
SplineSet
369 888 m 1
 395 857 l 1
 266 756 l 1
 230 756 l 1
 100 857 l 1
 126 888 l 1
 248 808 l 1
 369 888 l 1
485 685 m 1
 478 632 l 1
 277 632 l 1
 277 0 l 1
 218 0 l 1
 218 632 l 1
 15 632 l 1
 15 685 l 1
 485 685 l 1
EndSplineSet
EndChar

StartChar: uni0165
Encoding: 357 357 260
Width: 344
Flags: W
LayerCount: 2
Fore
SplineSet
284 741 m 1
 245 577 l 1
 209 582 l 1
 228 747 l 1
 284 741 l 1
321 62 m 1
 344 22 l 1
 312 1 276 -11 234 -11 c 0
 155 -11 106 36 106 127 c 2
 106 476 l 1
 18 476 l 1
 18 523 l 1
 106 523 l 1
 106 648 l 1
 164 655 l 1
 164 523 l 1
 299 523 l 1
 292 476 l 1
 164 476 l 1
 164 130 l 2
 164 69 188 39 241 39 c 0
 270 39 295 47 321 62 c 1
EndSplineSet
EndChar

StartChar: uni016A
Encoding: 362 362 261
Width: 652
Flags: W
LayerCount: 2
Fore
SplineSet
447 802 m 1
 206 802 l 1
 206 849 l 1
 447 849 l 1
 447 802 l 1
551 685 m 1
 551 214 l 2
 551 82 476 -11 326 -11 c 0
 174 -11 101 82 101 214 c 2
 101 685 l 1
 161 685 l 1
 161 219 l 2
 161 108 211 41 326 41 c 0
 441 41 490 109 490 219 c 2
 490 685 l 1
 551 685 l 1
EndSplineSet
EndChar

StartChar: uni016B
Encoding: 363 363 262
Width: 576
Flags: W
LayerCount: 2
Fore
SplineSet
406 676 m 1
 165 676 l 1
 165 723 l 1
 406 723 l 1
 406 676 l 1
471 523 m 1
 471 0 l 1
 422 0 l 1
 418 93 l 1
 382 31 328 -11 247 -11 c 0
 154 -11 99 46 99 149 c 2
 99 523 l 1
 157 523 l 1
 157 155 l 2
 157 72 192 37 261 37 c 0
 329 37 377 82 413 144 c 1
 413 523 l 1
 471 523 l 1
EndSplineSet
EndChar

StartChar: uni016E
Encoding: 366 366 263
Width: 652
Flags: W
LayerCount: 2
Fore
SplineSet
326 947 m 0
 384 947 424 907 424 853 c 0
 424 798 384 759 326 759 c 0
 267 759 227 798 227 853 c 0
 227 907 267 947 326 947 c 0
326 911 m 0
 290 911 270 889 270 853 c 0
 270 816 290 795 326 795 c 0
 360 795 381 816 381 853 c 0
 381 889 361 911 326 911 c 0
551 685 m 1
 551 214 l 2
 551 82 476 -11 326 -11 c 0
 174 -11 101 82 101 214 c 2
 101 685 l 1
 161 685 l 1
 161 219 l 2
 161 108 211 41 326 41 c 0
 441 41 490 109 490 219 c 2
 490 685 l 1
 551 685 l 1
EndSplineSet
EndChar

StartChar: uni016F
Encoding: 367 367 264
Width: 576
Flags: W
LayerCount: 2
Fore
SplineSet
286 821 m 0
 344 821 384 781 384 727 c 0
 384 672 344 633 286 633 c 0
 227 633 187 672 187 727 c 0
 187 781 227 821 286 821 c 0
286 785 m 0
 250 785 230 763 230 727 c 0
 230 690 250 669 286 669 c 0
 320 669 341 690 341 727 c 0
 341 763 321 785 286 785 c 0
471 523 m 1
 471 0 l 1
 422 0 l 1
 418 93 l 1
 382 31 328 -11 247 -11 c 0
 154 -11 99 46 99 149 c 2
 99 523 l 1
 157 523 l 1
 157 155 l 2
 157 72 192 37 261 37 c 0
 329 37 377 82 413 144 c 1
 413 523 l 1
 471 523 l 1
EndSplineSet
EndChar

StartChar: uni0170
Encoding: 368 368 265
Width: 652
Flags: W
LayerCount: 2
Fore
SplineSet
336 907 m 1
 380 876 l 1
 264 731 l 1
 234 751 l 1
 336 907 l 1
470 898 m 1
 513 865 l 1
 389 726 l 1
 360 747 l 1
 470 898 l 1
551 685 m 1
 551 214 l 2
 551 82 476 -11 326 -11 c 0
 174 -11 101 82 101 214 c 2
 101 685 l 1
 161 685 l 1
 161 219 l 2
 161 108 211 41 326 41 c 0
 441 41 490 109 490 219 c 2
 490 685 l 1
 551 685 l 1
EndSplineSet
EndChar

StartChar: uni0171
Encoding: 369 369 266
Width: 576
Flags: W
LayerCount: 2
Fore
SplineSet
305 783 m 1
 349 753 l 1
 233 598 l 1
 203 617 l 1
 305 783 l 1
439 774 m 1
 482 741 l 1
 358 593 l 1
 329 614 l 1
 439 774 l 1
471 523 m 1
 471 0 l 1
 422 0 l 1
 418 93 l 1
 382 31 328 -11 247 -11 c 0
 154 -11 99 46 99 149 c 2
 99 523 l 1
 157 523 l 1
 157 155 l 2
 157 72 192 37 261 37 c 0
 329 37 377 82 413 144 c 1
 413 523 l 1
 471 523 l 1
EndSplineSet
EndChar

StartChar: uni0172
Encoding: 370 370 267
Width: 652
Flags: W
LayerCount: 2
Fore
SplineSet
490 685 m 1
 551 685 l 1
 551 214 l 2
 551 108 502 27 405 -1 c 1
 318 -40 285 -71 285 -118 c 0
 285 -149 305 -170 349 -170 c 0
 368 -170 383 -168 406 -163 c 1
 400 -211 l 1
 380 -215 364 -218 342 -218 c 0
 269 -218 231 -178 231 -126 c 0
 231 -77 263 -39 324 -11 c 1
 173 -10 101 82 101 214 c 2
 101 685 l 1
 161 685 l 1
 161 219 l 2
 161 108 211 41 326 41 c 0
 441 41 490 109 490 219 c 2
 490 685 l 1
EndSplineSet
EndChar

StartChar: uni0173
Encoding: 371 371 268
Width: 576
Flags: W
LayerCount: 2
Fore
SplineSet
471 0 m 1
 383 -40 349 -71 349 -118 c 0
 349 -149 368 -170 412 -170 c 0
 431 -170 448 -168 470 -163 c 1
 464 -211 l 1
 444 -215 428 -218 406 -218 c 0
 333 -218 295 -178 295 -126 c 0
 295 -67 337 -25 422 10 c 1
 418 93 l 1
 382 31 328 -11 247 -11 c 0
 154 -11 99 46 99 149 c 2
 99 523 l 1
 157 523 l 1
 157 155 l 2
 157 72 192 37 261 37 c 0
 329 37 377 82 413 144 c 1
 413 523 l 1
 471 523 l 1
 471 0 l 1
EndSplineSet
EndChar

StartChar: uni0178
Encoding: 376 376 269
Width: 523
Flags: W
LayerCount: 2
Fore
SplineSet
166 868 m 0
 189 868 206 850 206 828 c 0
 206 806 189 789 166 789 c 0
 143 789 126 806 126 828 c 0
 126 850 143 868 166 868 c 0
355 868 m 0
 378 868 395 850 395 828 c 0
 395 806 378 789 355 789 c 0
 332 789 315 806 315 828 c 0
 315 850 332 868 355 868 c 0
509 685 m 1
 292 268 l 1
 292 0 l 1
 232 0 l 1
 232 267 l 1
 13 685 l 1
 80 685 l 1
 264 321 l 1
 445 685 l 1
 509 685 l 1
EndSplineSet
EndChar

StartChar: uni0179
Encoding: 377 377 270
Width: 516
Flags: W
LayerCount: 2
Fore
SplineSet
344 888 m 1
 370 836 l 1
 172 758 l 1
 156 792 l 1
 344 888 l 1
468 685 m 1
 468 636 l 1
 104 53 l 1
 462 53 l 1
 454 0 l 1
 35 0 l 1
 35 50 l 1
 402 633 l 1
 73 633 l 1
 73 685 l 1
 468 685 l 1
EndSplineSet
EndChar

StartChar: uni017A
Encoding: 378 378 271
Width: 417
Flags: W
LayerCount: 2
Fore
SplineSet
291 782 m 1
 317 730 l 1
 122 645 l 1
 103 679 l 1
 291 782 l 1
388 523 m 1
 388 478 l 1
 96 50 l 1
 386 50 l 1
 380 0 l 1
 28 0 l 1
 28 45 l 1
 320 473 l 1
 52 473 l 1
 52 523 l 1
 388 523 l 1
EndSplineSet
EndChar

StartChar: uni017B
Encoding: 379 379 272
Width: 516
Flags: W
LayerCount: 2
Fore
SplineSet
263 879 m 0
 290 879 307 860 307 837 c 0
 307 814 290 795 263 795 c 0
 237 795 220 814 220 837 c 0
 220 860 237 879 263 879 c 0
468 685 m 1
 468 636 l 1
 104 53 l 1
 462 53 l 1
 454 0 l 1
 35 0 l 1
 35 50 l 1
 402 633 l 1
 73 633 l 1
 73 685 l 1
 468 685 l 1
EndSplineSet
EndChar

StartChar: uni017C
Encoding: 380 380 273
Width: 417
Flags: W
LayerCount: 2
Fore
SplineSet
216 753 m 0
 243 753 260 734 260 711 c 0
 260 688 243 669 216 669 c 0
 190 669 173 688 173 711 c 0
 173 734 190 753 216 753 c 0
388 523 m 1
 388 478 l 1
 96 50 l 1
 386 50 l 1
 380 0 l 1
 28 0 l 1
 28 45 l 1
 320 473 l 1
 52 473 l 1
 52 523 l 1
 388 523 l 1
EndSplineSet
EndChar

StartChar: uni017D
Encoding: 381 381 274
Width: 516
Flags: W
LayerCount: 2
Fore
SplineSet
384 888 m 1
 410 857 l 1
 281 756 l 1
 245 756 l 1
 115 857 l 1
 141 888 l 1
 263 808 l 1
 384 888 l 1
468 685 m 1
 468 636 l 1
 104 53 l 1
 462 53 l 1
 454 0 l 1
 35 0 l 1
 35 50 l 1
 402 633 l 1
 73 633 l 1
 73 685 l 1
 468 685 l 1
EndSplineSet
EndChar

StartChar: uni017E
Encoding: 382 382 275
Width: 417
Flags: W
LayerCount: 2
Fore
SplineSet
337 769 m 1
 363 739 l 1
 234 633 l 1
 198 633 l 1
 68 739 l 1
 94 769 l 1
 216 685 l 1
 337 769 l 1
388 523 m 1
 388 478 l 1
 96 50 l 1
 386 50 l 1
 380 0 l 1
 28 0 l 1
 28 45 l 1
 320 473 l 1
 52 473 l 1
 52 523 l 1
 388 523 l 1
EndSplineSet
EndChar

StartChar: uni0192
Encoding: 402 402 276
Width: 323
Flags: W
LayerCount: 2
Fore
SplineSet
262 695 m 0
 203 695 172 669 172 607 c 2
 172 523 l 1
 310 523 l 1
 302 476 l 1
 172 476 l 1
 172 19 l 2
 172 -121 126 -159 32 -203 c 1
 15 -161 l 1
 84 -127 114 -99 114 17 c 2
 114 476 l 1
 28 476 l 1
 28 523 l 1
 114 523 l 1
 114 609 l 2
 114 691 169 743 259 743 c 0
 304 743 343 733 381 715 c 1
 361 672 l 1
 327 687 295 695 262 695 c 0
EndSplineSet
EndChar

StartChar: uni0218
Encoding: 536 536 277
Width: 539
Flags: W
LayerCount: 2
Fore
SplineSet
267 696 m 0
 356 696 410 668 464 620 c 1
 429 582 l 1
 378 626 332 645 269 645 c 0
 185 645 127 601 127 529 c 0
 127 459 164 427 287 390 c 0
 410 352 485 308 485 187 c 0
 485 70 396 -11 258 -11 c 0
 164 -11 95 22 39 75 c 1
 73 113 l 1
 124 69 177 40 257 40 c 0
 353 40 424 93 424 185 c 0
 424 268 383 302 261 340 c 0
 125 382 66 429 66 528 c 0
 66 625 147 696 267 696 c 0
264 -85 m 0
 290 -85 308 -103 308 -127 c 0
 308 -143 303 -156 285 -193 c 2
 245 -279 l 1
 210 -279 l 1
 242 -165 l 1
 228 -156 220 -144 220 -127 c 0
 220 -103 239 -85 264 -85 c 0
EndSplineSet
EndChar

StartChar: uni0219
Encoding: 537 537 278
Width: 458
Flags: W
LayerCount: 2
Fore
SplineSet
231 534 m 0
 298 534 349 514 398 476 c 1
 371 438 l 1
 325 470 286 486 233 486 c 0
 164 486 117 452 117 398 c 0
 117 346 151 324 244 299 c 0
 359 269 412 230 412 141 c 0
 412 44 328 -11 223 -11 c 0
 138 -11 81 18 36 56 c 1
 68 93 l 1
 113 58 158 38 223 38 c 0
 298 38 351 74 351 138 c 0
 351 201 322 224 214 254 c 0
 102 283 57 324 57 397 c 0
 57 477 132 534 231 534 c 0
231 -85 m 0
 257 -85 275 -103 275 -127 c 0
 275 -143 270 -156 252 -193 c 2
 212 -279 l 1
 177 -279 l 1
 209 -165 l 1
 195 -156 187 -144 187 -127 c 0
 187 -103 206 -85 231 -85 c 0
EndSplineSet
EndChar

StartChar: uni021A
Encoding: 538 538 279
Width: 495
Flags: W
LayerCount: 2
Fore
SplineSet
485 685 m 1
 478 632 l 1
 277 632 l 1
 277 0 l 1
 218 0 l 1
 218 632 l 1
 15 632 l 1
 15 685 l 1
 485 685 l 1
248 -85 m 0
 274 -85 292 -103 292 -127 c 0
 292 -143 287 -156 269 -193 c 2
 229 -279 l 1
 194 -279 l 1
 226 -165 l 1
 212 -156 204 -144 204 -127 c 0
 204 -103 223 -85 248 -85 c 0
EndSplineSet
EndChar

StartChar: uni021B
Encoding: 539 539 280
Width: 344
Flags: W
LayerCount: 2
Fore
SplineSet
344 22 m 1
 312 1 276 -11 234 -11 c 0
 155 -11 106 36 106 127 c 2
 106 476 l 1
 18 476 l 1
 18 523 l 1
 106 523 l 1
 106 648 l 1
 164 655 l 1
 164 523 l 1
 299 523 l 1
 292 476 l 1
 164 476 l 1
 164 130 l 2
 164 69 188 39 241 39 c 0
 270 39 295 47 321 62 c 1
 344 22 l 1
229 -85 m 0
 255 -85 273 -103 273 -127 c 0
 273 -143 268 -156 250 -193 c 2
 210 -279 l 1
 175 -279 l 1
 207 -165 l 1
 193 -156 185 -144 185 -127 c 0
 185 -103 204 -85 229 -85 c 0
EndSplineSet
EndChar

StartChar: uni0237
Encoding: 567 567 281
Width: 268
Flags: W
LayerCount: 2
Fore
SplineSet
164 523 m 1
 164 19 l 2
 164 -121 118 -159 23 -203 c 1
 6 -161 l 1
 75 -127 106 -99 106 17 c 2
 106 523 l 1
 164 523 l 1
EndSplineSet
EndChar

StartChar: uni0300
Encoding: 768 768 282
Width: 0
Flags: W
LayerCount: 2
Fore
SplineSet
-218 782 m 1
 -30 679 l 1
 -48 645 l 1
 -244 730 l 1
 -218 782 l 1
EndSplineSet
EndChar

StartChar: uni0301
Encoding: 769 769 283
Width: 0
Flags: W
LayerCount: 2
Fore
SplineSet
-56 782 m 1
 -30 730 l 1
 -225 645 l 1
 -244 679 l 1
 -56 782 l 1
EndSplineSet
EndChar

StartChar: uni0302
Encoding: 770 770 284
Width: 0
Flags: W
LayerCount: 2
Fore
SplineSet
-299 643 m 1
 -325 674 l 1
 -196 779 l 1
 -160 779 l 1
 -30 674 l 1
 -56 643 l 1
 -178 728 l 1
 -299 643 l 1
EndSplineSet
EndChar

StartChar: uni0303
Encoding: 771 771 285
Width: 0
Flags: W
LayerCount: 2
Fore
SplineSet
-122 666 m 0
 -149 666 -173 679 -192 692 c 0
 -209 704 -223 712 -239 712 c 0
 -262 712 -277 699 -295 672 c 1
 -331 690 l 1
 -309 730 -279 758 -239 758 c 0
 -214 758 -193 747 -173 733 c 0
 -156 722 -140 713 -122 713 c 0
 -101 713 -86 725 -66 756 c 1
 -30 738 l 1
 -54 688 -86 666 -122 666 c 0
EndSplineSet
EndChar

StartChar: uni0304
Encoding: 772 772 286
Width: 0
Flags: W
LayerCount: 2
Fore
SplineSet
-30 676 m 1
 -271 676 l 1
 -271 723 l 1
 -30 723 l 1
 -30 676 l 1
EndSplineSet
EndChar

StartChar: uni0305
Encoding: 773 773 287
Width: 0
Flags: W
LayerCount: 2
Fore
SplineSet
-30 676 m 1
 -436 676 l 1
 -436 715 l 1
 -30 715 l 1
 -30 676 l 1
EndSplineSet
EndChar

StartChar: uni0306
Encoding: 774 774 288
Width: 0
Flags: W
LayerCount: 2
Fore
SplineSet
-161 653 m 0
 -230 653 -282 696 -291 763 c 1
 -251 772 l 1
 -238 725 -208 700 -161 700 c 0
 -114 700 -83 725 -70 772 c 1
 -30 763 l 1
 -39 696 -92 653 -161 653 c 0
EndSplineSet
EndChar

StartChar: uni0307
Encoding: 775 775 289
Width: 0
Flags: W
LayerCount: 2
Fore
SplineSet
-74 753 m 0
 -47 753 -30 734 -30 711 c 0
 -30 688 -47 669 -74 669 c 0
 -100 669 -117 688 -117 711 c 0
 -117 734 -100 753 -74 753 c 0
EndSplineSet
EndChar

StartChar: uni0308
Encoding: 776 776 290
Width: 0
Flags: W
LayerCount: 2
Fore
SplineSet
-259 742 m 0
 -236 742 -219 724 -219 702 c 0
 -219 680 -236 663 -259 663 c 0
 -282 663 -299 680 -299 702 c 0
 -299 724 -282 742 -259 742 c 0
-70 742 m 0
 -47 742 -30 724 -30 702 c 0
 -30 680 -47 663 -70 663 c 0
 -93 663 -110 680 -110 702 c 0
 -110 724 -93 742 -70 742 c 0
EndSplineSet
EndChar

StartChar: uni0309
Encoding: 777 777 291
Width: 0
Flags: W
LayerCount: 2
Fore
SplineSet
-152 616 m 1
 -152 700 l 1
 -110 703 -82 712 -82 746 c 0
 -82 773 -100 787 -129 787 c 0
 -153 787 -169 782 -187 773 c 1
 -203 808 l 1
 -181 821 -156 830 -122 830 c 0
 -64 830 -29 798 -29 750 c 0
 -29 704 -57 679 -104 673 c 1
 -104 616 l 1
 -152 616 l 1
EndSplineSet
EndChar

StartChar: uni030A
Encoding: 778 778 292
Width: 0
Flags: W
LayerCount: 2
Fore
SplineSet
-128 821 m 0
 -70 821 -30 781 -30 727 c 0
 -30 672 -70 633 -128 633 c 0
 -187 633 -227 672 -227 727 c 0
 -227 781 -187 821 -128 821 c 0
-128 785 m 0
 -164 785 -184 763 -184 727 c 0
 -184 690 -164 669 -128 669 c 0
 -94 669 -73 690 -73 727 c 0
 -73 763 -93 785 -128 785 c 0
EndSplineSet
EndChar

StartChar: uni030B
Encoding: 779 779 293
Width: 0
Flags: W
LayerCount: 2
Fore
SplineSet
-207 783 m 1
 -163 753 l 1
 -279 598 l 1
 -309 617 l 1
 -207 783 l 1
-73 774 m 1
 -30 741 l 1
 -154 593 l 1
 -183 614 l 1
 -73 774 l 1
EndSplineSet
EndChar

StartChar: uni030C
Encoding: 780 780 294
Width: 0
Flags: W
LayerCount: 2
Fore
SplineSet
-56 769 m 1
 -30 739 l 1
 -159 633 l 1
 -195 633 l 1
 -325 739 l 1
 -299 769 l 1
 -177 685 l 1
 -56 769 l 1
EndSplineSet
EndChar

StartChar: uni030D
Encoding: 781 781 295
Width: 0
Flags: W
LayerCount: 2
Fore
SplineSet
-87 633 m 1
 -87 849 l 1
 -30 849 l 1
 -30 633 l 1
 -87 633 l 1
EndSplineSet
EndChar

StartChar: uni030F
Encoding: 783 783 296
Width: 0
Flags: W
LayerCount: 2
Fore
SplineSet
-230 811 m 1
 -151 660 l 1
 -189 642 l 1
 -282 784 l 1
 -230 811 l 1
-100 811 m 1
 -30 664 l 1
 -68 647 l 1
 -152 783 l 1
 -100 811 l 1
EndSplineSet
EndChar

StartChar: uni0311
Encoding: 785 785 297
Width: 0
Flags: W
LayerCount: 2
Fore
SplineSet
-161 742 m 0
 -92 742 -39 699 -30 632 c 1
 -70 623 l 1
 -83 670 -114 695 -161 695 c 0
 -208 695 -238 670 -251 623 c 1
 -291 632 l 1
 -282 699 -230 742 -161 742 c 0
EndSplineSet
EndChar

StartChar: uni0312
Encoding: 786 786 298
Width: 0
Flags: W
LayerCount: 2
Fore
SplineSet
-84 588 m 0
 -111 588 -128 607 -128 631 c 0
 -128 647 -123 660 -106 697 c 2
 -66 783 l 1
 -30 783 l 1
 -62 668 l 1
 -49 660 -40 648 -40 631 c 0
 -40 607 -59 588 -84 588 c 0
EndSplineSet
EndChar

StartChar: uni0313
Encoding: 787 787 299
Width: 0
Flags: W
LayerCount: 2
Fore
SplineSet
-74 783 m 0
 -48 783 -30 764 -30 741 c 0
 -30 724 -35 711 -53 674 c 2
 -93 588 l 1
 -128 588 l 1
 -96 703 l 1
 -110 711 -118 723 -118 741 c 0
 -118 764 -99 783 -74 783 c 0
EndSplineSet
EndChar

StartChar: uni0316
Encoding: 790 790 300
Width: 0
Flags: W
LayerCount: 2
Fore
SplineSet
-218 -56 m 1
 -30 -152 l 1
 -46 -185 l 1
 -244 -108 l 1
 -218 -56 l 1
EndSplineSet
EndChar

StartChar: uni0317
Encoding: 791 791 301
Width: 0
Flags: W
LayerCount: 2
Fore
SplineSet
-56 -56 m 1
 -30 -108 l 1
 -228 -185 l 1
 -244 -152 l 1
 -56 -56 l 1
EndSplineSet
EndChar

StartChar: uni0318
Encoding: 792 792 302
Width: 0
Flags: W
LayerCount: 2
Fore
SplineSet
-75 -69 m 1
 -30 -69 l 1
 -30 -341 l 1
 -75 -341 l 1
 -75 -226 l 1
 -210 -226 l 1
 -210 -185 l 1
 -75 -185 l 1
 -75 -69 l 1
EndSplineSet
EndChar

StartChar: uni0319
Encoding: 793 793 303
Width: 0
Flags: W
LayerCount: 2
Fore
SplineSet
-165 -69 m 1
 -165 -185 l 1
 -31 -185 l 1
 -31 -226 l 1
 -165 -226 l 1
 -165 -341 l 1
 -210 -341 l 1
 -210 -69 l 1
 -165 -69 l 1
EndSplineSet
EndChar

StartChar: uni031A
Encoding: 794 794 304
Width: 0
Flags: W
LayerCount: 2
Fore
SplineSet
-196 763 m 1
 -30 763 l 1
 -30 592 l 1
 -75 592 l 1
 -75 721 l 1
 -196 721 l 1
 -196 763 l 1
EndSplineSet
EndChar

StartChar: uni031B
Encoding: 795 795 305
Width: 0
Flags: W
LayerCount: 2
Fore
SplineSet
-133 429 m 1
 -142 465 l 1
 -98 470 -80 487 -80 522 c 0
 -80 553 -86 574 -94 594 c 1
 -48 605 l 1
 -38 587 -30 560 -30 524 c 0
 -30 464 -66 433 -133 429 c 1
EndSplineSet
EndChar

StartChar: uni031C
Encoding: 796 796 306
Width: 0
Flags: W
LayerCount: 2
Fore
SplineSet
-30 -254 m 1
 -30 -218 l 1
 -66 -218 -86 -196 -86 -160 c 0
 -86 -123 -66 -101 -30 -101 c 1
 -30 -66 l 1
 -89 -66 -129 -105 -129 -160 c 0
 -129 -214 -89 -254 -30 -254 c 1
EndSplineSet
EndChar

StartChar: uni031D
Encoding: 797 797 307
Width: 0
Flags: W
LayerCount: 2
Fore
SplineSet
-30 -252 m 1
 -30 -294 l 1
 -312 -294 l 1
 -312 -252 l 1
 -194 -252 l 1
 -194 -103 l 1
 -149 -103 l 1
 -149 -252 l 1
 -30 -252 l 1
EndSplineSet
EndChar

StartChar: uni031E
Encoding: 798 798 308
Width: 0
Flags: W
LayerCount: 2
Fore
SplineSet
-30 -145 m 1
 -149 -145 l 1
 -149 -294 l 1
 -194 -294 l 1
 -194 -145 l 1
 -312 -145 l 1
 -312 -103 l 1
 -30 -103 l 1
 -30 -145 l 1
EndSplineSet
EndChar

StartChar: uni031F
Encoding: 799 799 309
Width: 0
Flags: W
LayerCount: 2
Fore
SplineSet
-125 -85 m 1
 -125 -177 l 1
 -30 -177 l 1
 -30 -220 l 1
 -125 -220 l 1
 -125 -311 l 1
 -173 -311 l 1
 -173 -220 l 1
 -268 -220 l 1
 -268 -177 l 1
 -173 -177 l 1
 -173 -85 l 1
 -125 -85 l 1
EndSplineSet
EndChar

StartChar: uni0320
Encoding: 800 800 310
Width: 0
Flags: W
LayerCount: 2
Fore
SplineSet
-268 -220 m 1
 -268 -177 l 1
 -30 -177 l 1
 -30 -220 l 1
 -268 -220 l 1
EndSplineSet
EndChar

StartChar: uni0321
Encoding: 801 801 311
Width: 0
Flags: W
LayerCount: 2
Fore
SplineSet
-155 -205 m 0
 -202 -205 -235 -188 -257 -171 c 1
 -233 -134 l 1
 -212 -147 -192 -157 -157 -157 c 0
 -118 -157 -88 -136 -88 -74 c 2
 -88 1 l 1
 -30 1 l 1
 -30 -71 l 2
 -30 -161 -81 -205 -155 -205 c 0
EndSplineSet
EndChar

StartChar: uni0323
Encoding: 803 803 312
Width: 0
Flags: W
LayerCount: 2
Fore
SplineSet
-73 -170 m 0
 -100 -170 -117 -151 -117 -128 c 0
 -117 -105 -100 -86 -73 -86 c 0
 -47 -86 -30 -105 -30 -128 c 0
 -30 -151 -47 -170 -73 -170 c 0
EndSplineSet
EndChar

StartChar: uni0324
Encoding: 804 804 313
Width: 0
Flags: W
LayerCount: 2
Fore
SplineSet
-259 -88 m 0
 -236 -88 -219 -105 -219 -127 c 0
 -219 -149 -236 -167 -259 -167 c 0
 -282 -167 -299 -149 -299 -127 c 0
 -299 -105 -282 -88 -259 -88 c 0
-70 -88 m 0
 -47 -88 -30 -105 -30 -127 c 0
 -30 -149 -47 -167 -70 -167 c 0
 -93 -167 -110 -149 -110 -127 c 0
 -110 -105 -93 -88 -70 -88 c 0
EndSplineSet
EndChar

StartChar: uni0325
Encoding: 805 805 314
Width: 0
Flags: W
LayerCount: 2
Fore
SplineSet
-128 -66 m 0
 -70 -66 -30 -105 -30 -160 c 0
 -30 -214 -70 -254 -128 -254 c 0
 -187 -254 -227 -214 -227 -160 c 0
 -227 -105 -187 -66 -128 -66 c 0
-128 -101 m 0
 -164 -101 -184 -123 -184 -160 c 0
 -184 -196 -164 -218 -128 -218 c 0
 -94 -218 -73 -196 -73 -160 c 0
 -73 -123 -93 -101 -128 -101 c 0
EndSplineSet
EndChar

StartChar: uni0326
Encoding: 806 806 315
Width: 0
Flags: W
LayerCount: 2
Fore
SplineSet
-74 -85 m 0
 -48 -85 -30 -103 -30 -127 c 0
 -30 -143 -35 -156 -53 -193 c 2
 -93 -279 l 1
 -128 -279 l 1
 -96 -165 l 1
 -110 -156 -118 -144 -118 -127 c 0
 -118 -103 -99 -85 -74 -85 c 0
EndSplineSet
EndChar

StartChar: uni0327
Encoding: 807 807 316
Width: 0
Flags: W
LayerCount: 2
Fore
SplineSet
-122 16 m 1
 -122 -64 l 1
 -57 -69 -30 -99 -30 -140 c 0
 -30 -197 -78 -227 -135 -227 c 0
 -170 -227 -197 -218 -215 -206 c 1
 -197 -170 l 1
 -181 -179 -162 -185 -136 -185 c 0
 -106 -185 -81 -172 -81 -140 c 0
 -81 -111 -107 -96 -170 -96 c 1
 -160 16 l 1
 -122 16 l 1
EndSplineSet
EndChar

StartChar: uni0328
Encoding: 808 808 317
Width: 0
Flags: W
LayerCount: 2
Fore
SplineSet
-44 25 m 1
 -32 0 l 1
 -120 -40 -154 -71 -154 -118 c 0
 -154 -149 -135 -170 -91 -170 c 0
 -72 -170 -55 -168 -33 -163 c 1
 -39 -211 l 1
 -59 -215 -75 -218 -97 -218 c 0
 -170 -218 -208 -178 -208 -126 c 0
 -208 -59 -153 -14 -44 25 c 1
EndSplineSet
EndChar

StartChar: uni0329
Encoding: 809 809 318
Width: 0
Flags: W
LayerCount: 2
Fore
SplineSet
-92 -291 m 1
 -92 -75 l 1
 -35 -75 l 1
 -35 -291 l 1
 -92 -291 l 1
EndSplineSet
EndChar

StartChar: uni032A
Encoding: 810 810 319
Width: 0
Flags: W
LayerCount: 2
Fore
SplineSet
-295 -229 m 1
 -295 -97 l 1
 -30 -97 l 1
 -30 -229 l 1
 -75 -229 l 1
 -75 -139 l 1
 -250 -139 l 1
 -250 -229 l 1
 -295 -229 l 1
EndSplineSet
EndChar

StartChar: uni032B
Encoding: 811 811 320
Width: 0
Flags: W
LayerCount: 2
Fore
SplineSet
-62 -64 m 1
 -30 -66 l 1
 -36 -135 -71 -178 -118 -178 c 0
 -155 -178 -184 -151 -197 -104 c 1
 -210 -151 -240 -178 -277 -178 c 0
 -323 -178 -357 -135 -363 -66 c 1
 -333 -64 l 1
 -327 -103 -308 -128 -277 -128 c 0
 -246 -128 -226 -103 -220 -64 c 1
 -174 -64 l 1
 -168 -103 -149 -128 -118 -128 c 0
 -87 -128 -67 -103 -62 -64 c 1
EndSplineSet
EndChar

StartChar: uni032C
Encoding: 812 812 321
Width: 0
Flags: W
LayerCount: 2
Fore
SplineSet
-56 -73 m 1
 -30 -103 l 1
 -159 -205 l 1
 -195 -205 l 1
 -325 -103 l 1
 -299 -73 l 1
 -177 -153 l 1
 -56 -73 l 1
EndSplineSet
EndChar

StartChar: uni032D
Encoding: 813 813 322
Width: 0
Flags: W
LayerCount: 2
Fore
SplineSet
-299 -206 m 1
 -325 -176 l 1
 -196 -70 l 1
 -160 -70 l 1
 -30 -176 l 1
 -56 -206 l 1
 -178 -121 l 1
 -299 -206 l 1
EndSplineSet
EndChar

StartChar: uni032F
Encoding: 815 815 323
Width: 0
Flags: W
LayerCount: 2
Fore
SplineSet
-161 -57 m 0
 -92 -57 -39 -100 -30 -167 c 1
 -70 -176 l 1
 -83 -129 -114 -104 -161 -104 c 0
 -208 -104 -238 -129 -251 -176 c 1
 -291 -167 l 1
 -282 -100 -230 -57 -161 -57 c 0
EndSplineSet
EndChar

StartChar: uni0330
Encoding: 816 816 324
Width: 0
Flags: W
LayerCount: 2
Fore
SplineSet
-122 -168 m 0
 -149 -168 -173 -156 -192 -143 c 0
 -209 -131 -223 -123 -239 -123 c 0
 -262 -123 -277 -136 -295 -163 c 1
 -331 -144 l 1
 -309 -104 -279 -76 -239 -76 c 0
 -214 -76 -193 -88 -173 -101 c 0
 -156 -113 -140 -122 -122 -122 c 0
 -101 -122 -86 -109 -66 -78 c 1
 -30 -97 l 1
 -54 -146 -86 -168 -122 -168 c 0
EndSplineSet
EndChar

StartChar: uni0331
Encoding: 817 817 325
Width: 0
Flags: W
LayerCount: 2
Fore
SplineSet
-30 -159 m 1
 -271 -159 l 1
 -271 -112 l 1
 -30 -112 l 1
 -30 -159 l 1
EndSplineSet
EndChar

StartChar: uni0332
Encoding: 818 818 326
Width: 0
Flags: W
LayerCount: 2
Fore
SplineSet
-30 -159 m 1
 -391 -159 l 1
 -391 -112 l 1
 -30 -112 l 1
 -30 -159 l 1
EndSplineSet
EndChar

StartChar: uni0334
Encoding: 820 820 327
Width: 0
Flags: W
LayerCount: 2
Fore
SplineSet
-138 264 m 0
 -202 264 -248 322 -292 322 c 0
 -326 322 -344 300 -363 275 c 1
 -399 295 l 1
 -376 333 -345 371 -288 371 c 0
 -223 371 -181 313 -134 313 c 0
 -103 313 -85 332 -66 357 c 1
 -30 337 l 1
 -54 299 -83 264 -138 264 c 0
EndSplineSet
EndChar

StartChar: uni0335
Encoding: 821 821 328
Width: 0
Flags: W
LayerCount: 2
Fore
SplineSet
-331 288 m 1
 -331 338 l 1
 -66 338 l 1
 -66 288 l 1
 -331 288 l 1
EndSplineSet
EndChar

StartChar: uni0336
Encoding: 822 822 329
Width: 0
Flags: W
LayerCount: 2
Fore
SplineSet
-734 288 m 1
 -734 338 l 1
 -30 338 l 1
 -30 288 l 1
 -734 288 l 1
EndSplineSet
EndChar

StartChar: uni0339
Encoding: 825 825 330
Width: 0
Flags: W
LayerCount: 2
Fore
SplineSet
-129 -253 m 1
 -70 -253 -30 -214 -30 -159 c 0
 -30 -105 -70 -65 -129 -65 c 1
 -129 -101 l 1
 -93 -101 -73 -122 -73 -159 c 0
 -73 -196 -93 -217 -129 -217 c 1
 -129 -253 l 1
EndSplineSet
EndChar

StartChar: uni033A
Encoding: 826 826 331
Width: 0
Flags: W
LayerCount: 2
Fore
SplineSet
-295 -96 m 1
 -250 -96 l 1
 -250 -186 l 1
 -75 -186 l 1
 -75 -96 l 1
 -30 -96 l 1
 -30 -228 l 1
 -295 -228 l 1
 -295 -96 l 1
EndSplineSet
EndChar

StartChar: uni033B
Encoding: 827 827 332
Width: 0
Flags: W
LayerCount: 2
Fore
SplineSet
-289 -228 m 1
 -289 -75 l 1
 -30 -75 l 1
 -30 -228 l 1
 -289 -228 l 1
-246 -189 m 1
 -73 -189 l 1
 -73 -114 l 1
 -246 -114 l 1
 -246 -189 l 1
EndSplineSet
EndChar

StartChar: uni033C
Encoding: 828 828 333
Width: 0
Flags: W
LayerCount: 2
Fore
SplineSet
-118 -67 m 0
 -71 -67 -36 -110 -30 -179 c 1
 -62 -181 l 1
 -67 -142 -87 -117 -118 -117 c 0
 -149 -117 -168 -142 -174 -181 c 1
 -220 -181 l 1
 -226 -142 -246 -117 -277 -117 c 0
 -308 -117 -327 -142 -333 -181 c 1
 -363 -179 l 1
 -357 -110 -323 -67 -277 -67 c 0
 -240 -67 -210 -94 -197 -141 c 1
 -184 -94 -155 -67 -118 -67 c 0
EndSplineSet
EndChar

StartChar: uni033D
Encoding: 829 829 334
Width: 0
Flags: W
LayerCount: 2
Fore
SplineSet
-142 727 m 1
 -41 600 l 1
 -99 600 l 1
 -174 702 l 1
 -247 600 l 1
 -303 600 l 1
 -203 726 l 1
 -291 837 l 1
 -234 837 l 1
 -172 750 l 1
 -110 837 l 1
 -55 837 l 1
 -142 727 l 1
EndSplineSet
EndChar

StartChar: uni0342
Encoding: 834 834 335
Width: 0
Flags: W
LayerCount: 2
Fore
SplineSet
-122 666 m 0
 -149 666 -173 679 -192 692 c 0
 -209 704 -223 712 -239 712 c 0
 -262 712 -277 699 -295 672 c 1
 -331 690 l 1
 -309 730 -279 758 -239 758 c 0
 -214 758 -193 747 -173 733 c 0
 -156 722 -140 713 -122 713 c 0
 -101 713 -86 725 -66 756 c 1
 -30 738 l 1
 -54 688 -86 666 -122 666 c 0
EndSplineSet
EndChar

StartChar: uni0345
Encoding: 837 837 336
Width: 0
Flags: W
LayerCount: 2
Fore
SplineSet
-113 -173 m 0
 -170 -173 -202 -136 -202 -86 c 2
 -202 -44 l 1
 -150 -44 l 1
 -150 -85 l 2
 -150 -114 -136 -129 -108 -129 c 0
 -85 -129 -72 -123 -55 -112 c 1
 -30 -143 l 1
 -51 -159 -76 -173 -113 -173 c 0
EndSplineSet
EndChar

StartChar: uni035C
Encoding: 860 860 337
Width: 0
Flags: W
LayerCount: 2
Fore
SplineSet
328 -72 m 1
 249 -136 146 -205 -1 -205 c 0
 -148 -205 -251 -136 -330 -72 c 1
 -305 -39 l 1
 -228 -91 -135 -145 -1 -145 c 0
 133 -145 226 -91 303 -39 c 1
 328 -72 l 1
EndSplineSet
EndChar

StartChar: uni0361
Encoding: 865 865 338
Width: 0
Flags: W
LayerCount: 2
Fore
SplineSet
329 654 m 1
 304 621 l 1
 227 673 134 727 0 727 c 0
 -134 727 -227 673 -304 621 c 1
 -329 654 l 1
 -250 718 -147 787 0 787 c 0
 147 787 250 718 329 654 c 1
EndSplineSet
EndChar

StartChar: uni037E
Encoding: 894 894 339
Width: 207
Flags: W
LayerCount: 2
Fore
SplineSet
103 475 m 0
 132 475 151 454 151 427 c 0
 151 401 132 380 103 380 c 0
 76 380 55 401 55 427 c 0
 55 454 76 475 103 475 c 0
103 84 m 0
 132 84 151 63 151 37 c 0
 151 20 145 2 136 -18 c 2
 80 -151 l 1
 38 -151 l 1
 78 -4 l 1
 64 4 55 19 55 37 c 0
 55 63 76 84 103 84 c 0
EndSplineSet
EndChar

StartChar: uni0384
Encoding: 900 900 340
Width: 125
Flags: W
LayerCount: 2
Fore
SplineSet
31 771 m 1
 95 767 l 1
 72 599 l 1
 31 599 l 1
 31 771 l 1
EndSplineSet
EndChar

StartChar: uni0385
Encoding: 901 901 341
Width: 329
Flags: W
LayerCount: 2
Fore
SplineSet
148 866 m 1
 204 862 l 1
 183 717 l 1
 148 717 l 1
 148 866 l 1
70 712 m 0
 93 712 110 694 110 672 c 0
 110 650 93 633 70 633 c 0
 47 633 30 650 30 672 c 0
 30 694 47 712 70 712 c 0
259 712 m 0
 282 712 299 694 299 672 c 0
 299 650 282 633 259 633 c 0
 236 633 219 650 219 672 c 0
 219 694 236 712 259 712 c 0
EndSplineSet
EndChar

StartChar: uni0386
Encoding: 902 902 342
Width: 576
Flags: W
LayerCount: 2
Fore
SplineSet
91 690 m 1
 157 685 l 1
 133 512 l 1
 91 512 l 1
 91 690 l 1
496 0 m 1
 436 187 l 1
 148 187 l 1
 88 0 l 1
 27 0 l 1
 256 685 l 1
 331 685 l 1
 559 0 l 1
 496 0 l 1
164 238 m 1
 420 238 l 1
 293 636 l 1
 164 238 l 1
EndSplineSet
EndChar

StartChar: uni0387
Encoding: 903 903 343
Width: 207
Flags: W
LayerCount: 2
Fore
SplineSet
103 366 m 0
 132 366 151 345 151 319 c 0
 151 292 132 271 103 271 c 0
 76 271 55 292 55 319 c 0
 55 345 76 366 103 366 c 0
EndSplineSet
EndChar

StartChar: uni0388
Encoding: 904 904 344
Width: 564
Flags: W
LayerCount: 2
Fore
SplineSet
53 690 m 1
 118 685 l 1
 95 512 l 1
 52 512 l 1
 53 690 l 1
511 685 m 1
 504 635 l 1
 223 635 l 1
 223 380 l 1
 466 380 l 1
 466 330 l 1
 223 330 l 1
 223 50 l 1
 518 50 l 1
 518 0 l 1
 163 0 l 1
 163 685 l 1
 511 685 l 1
EndSplineSet
EndChar

StartChar: uni0389
Encoding: 905 905 345
Width: 723
Flags: W
LayerCount: 2
Fore
SplineSet
53 690 m 1
 118 685 l 1
 95 512 l 1
 52 512 l 1
 53 690 l 1
552 0 m 1
 552 335 l 1
 223 335 l 1
 223 0 l 1
 163 0 l 1
 163 685 l 1
 223 685 l 1
 223 386 l 1
 552 386 l 1
 552 685 l 1
 612 685 l 1
 612 0 l 1
 552 0 l 1
EndSplineSet
EndChar

StartChar: uni038A
Encoding: 906 906 346
Width: 334
Flags: W
LayerCount: 2
Fore
SplineSet
53 690 m 1
 118 685 l 1
 95 512 l 1
 52 512 l 1
 53 690 l 1
223 685 m 1
 223 0 l 1
 163 0 l 1
 163 685 l 1
 223 685 l 1
EndSplineSet
EndChar

StartChar: uni038C
Encoding: 908 908 347
Width: 726
Flags: W
LayerCount: 2
Fore
SplineSet
380 696 m 0
 547 696 660 573 660 342 c 0
 660 117 550 -11 380 -11 c 0
 215 -11 101 113 101 341 c 0
 101 567 216 696 380 696 c 0
49 690 m 1
 114 685 l 1
 90 512 l 1
 48 512 l 1
 49 690 l 1
380 645 m 0
 251 645 164 549 164 341 c 0
 164 136 253 40 380 40 c 0
 514 40 597 136 597 342 c 0
 597 550 512 645 380 645 c 0
EndSplineSet
EndChar

StartChar: uni038E
Encoding: 910 910 348
Width: 655
Flags: W
LayerCount: 2
Fore
SplineSet
50 690 m 1
 115 685 l 1
 91 512 l 1
 49 512 l 1
 50 690 l 1
641 685 m 1
 424 268 l 1
 424 0 l 1
 364 0 l 1
 364 267 l 1
 145 685 l 1
 212 685 l 1
 396 321 l 1
 577 685 l 1
 641 685 l 1
EndSplineSet
EndChar

StartChar: uni038F
Encoding: 911 911 349
Width: 722
Flags: W
LayerCount: 2
Fore
SplineSet
377 696 m 0
 545 696 656 573 656 346 c 0
 656 187 610 103 513 53 c 1
 634 53 l 1
 634 0 l 1
 436 0 l 1
 436 52 l 1
 540 90 593 180 593 346 c 0
 593 550 509 645 377 645 c 0
 248 645 161 549 161 345 c 0
 161 176 217 93 318 52 c 1
 318 0 l 1
 119 0 l 1
 119 53 l 1
 238 53 l 1
 141 103 97 189 97 345 c 0
 97 567 212 696 377 696 c 0
49 690 m 1
 114 685 l 1
 90 512 l 1
 48 512 l 1
 49 690 l 1
EndSplineSet
EndChar

StartChar: uni0390
Encoding: 912 912 350
Width: 267
Flags: W
LayerCount: 2
Fore
SplineSet
111 866 m 1
 167 862 l 1
 146 717 l 1
 111 717 l 1
 111 866 l 1
33 712 m 0
 56 712 73 694 73 672 c 0
 73 650 56 633 33 633 c 0
 10 633 -7 650 -7 672 c 0
 -7 694 10 712 33 712 c 0
222 712 m 0
 245 712 262 694 262 672 c 0
 262 650 245 633 222 633 c 0
 199 633 182 650 182 672 c 0
 182 694 199 712 222 712 c 0
157 523 m 1
 157 124 l 2
 157 70 171 51 204 37 c 1
 186 -8 l 1
 123 11 99 44 99 119 c 2
 99 523 l 1
 157 523 l 1
EndSplineSet
EndChar

StartChar: uni0391
Encoding: 913 913 351
Width: 565
Flags: W
LayerCount: 2
Fore
SplineSet
485 0 m 1
 425 187 l 1
 137 187 l 1
 77 0 l 1
 16 0 l 1
 245 685 l 1
 320 685 l 1
 548 0 l 1
 485 0 l 1
153 238 m 1
 409 238 l 1
 282 636 l 1
 153 238 l 1
EndSplineSet
EndChar

StartChar: uni0392
Encoding: 914 914 352
Width: 598
Flags: W
LayerCount: 2
Fore
SplineSet
386 363 m 1
 469 354 544 308 544 190 c 0
 544 59 448 0 298 0 c 2
 111 0 l 1
 111 685 l 1
 264 685 l 2
 420 685 512 630 512 514 c 0
 512 426 458 376 386 363 c 1
270 635 m 2
 171 635 l 1
 171 384 l 1
 309 384 l 2
 392 384 451 430 451 510 c 0
 451 602 385 635 270 635 c 2
298 50 m 2
 409 50 482 88 482 190 c 0
 482 294 409 336 316 336 c 2
 171 336 l 1
 171 50 l 1
 298 50 l 2
EndSplineSet
EndChar

StartChar: uni0393
Encoding: 915 915 353
Width: 508
Flags: W
LayerCount: 2
Fore
SplineSet
498 685 m 1
 489 632 l 1
 171 632 l 1
 171 0 l 1
 111 0 l 1
 111 685 l 1
 498 685 l 1
EndSplineSet
EndChar

StartChar: uni0394
Encoding: 916 916 354
Width: 575
Flags: W
LayerCount: 2
Fore
SplineSet
326 685 m 1
 558 0 l 1
 16 0 l 1
 250 685 l 1
 326 685 l 1
287 635 m 1
 93 51 l 1
 480 51 l 1
 287 635 l 1
EndSplineSet
EndChar

StartChar: uni0395
Encoding: 917 917 355
Width: 512
Flags: W
LayerCount: 2
Fore
SplineSet
459 685 m 1
 452 635 l 1
 171 635 l 1
 171 380 l 1
 414 380 l 1
 414 330 l 1
 171 330 l 1
 171 50 l 1
 466 50 l 1
 466 0 l 1
 111 0 l 1
 111 685 l 1
 459 685 l 1
EndSplineSet
EndChar

StartChar: uni0396
Encoding: 918 918 356
Width: 516
Flags: W
LayerCount: 2
Fore
SplineSet
468 685 m 1
 468 636 l 1
 104 53 l 1
 462 53 l 1
 454 0 l 1
 35 0 l 1
 35 50 l 1
 402 633 l 1
 73 633 l 1
 73 685 l 1
 468 685 l 1
EndSplineSet
EndChar

StartChar: uni0397
Encoding: 919 919 357
Width: 670
Flags: W
LayerCount: 2
Fore
SplineSet
499 0 m 1
 499 335 l 1
 171 335 l 1
 171 0 l 1
 111 0 l 1
 111 685 l 1
 171 685 l 1
 171 386 l 1
 499 386 l 1
 499 685 l 1
 559 685 l 1
 559 0 l 1
 499 0 l 1
EndSplineSet
EndChar

StartChar: uni0398
Encoding: 920 920 358
Width: 691
Flags: W
LayerCount: 2
Fore
SplineSet
345 696 m 0
 512 696 625 573 625 342 c 0
 625 117 515 -11 345 -11 c 0
 180 -11 66 113 66 341 c 0
 66 567 181 696 345 696 c 0
345 645 m 0
 216 645 129 549 129 341 c 0
 129 136 218 40 345 40 c 0
 479 40 562 136 562 342 c 0
 562 550 477 645 345 645 c 0
474 376 m 1
 474 327 l 1
 216 327 l 1
 216 376 l 1
 474 376 l 1
EndSplineSet
EndChar

StartChar: uni0399
Encoding: 921 921 359
Width: 282
Flags: W
LayerCount: 2
Fore
SplineSet
171 685 m 1
 171 0 l 1
 111 0 l 1
 111 685 l 1
 171 685 l 1
EndSplineSet
EndChar

StartChar: uni039A
Encoding: 922 922 360
Width: 547
Flags: W
LayerCount: 2
Fore
SplineSet
171 685 m 1
 171 0 l 1
 111 0 l 1
 111 685 l 1
 171 685 l 1
530 685 m 1
 246 370 l 1
 547 0 l 1
 474 0 l 1
 175 367 l 1
 461 685 l 1
 530 685 l 1
EndSplineSet
EndChar

StartChar: uni039B
Encoding: 923 923 361
Width: 565
Flags: W
LayerCount: 2
Fore
SplineSet
320 685 m 1
 548 0 l 1
 485 0 l 1
 282 636 l 1
 77 0 l 1
 16 0 l 1
 245 685 l 1
 320 685 l 1
EndSplineSet
EndChar

StartChar: uni039C
Encoding: 924 924 362
Width: 770
Flags: W
LayerCount: 2
Fore
SplineSet
635 685 m 1
 701 0 l 1
 643 0 l 1
 612 328 l 2
 601 438 590 564 586 626 c 1
 414 81 l 1
 357 81 l 1
 179 626 l 1
 176 558 165 435 156 330 c 2
 126 0 l 1
 69 0 l 1
 134 685 l 1
 217 685 l 1
 387 152 l 1
 551 685 l 1
 635 685 l 1
EndSplineSet
EndChar

StartChar: uni039D
Encoding: 925 925 363
Width: 673
Flags: W
LayerCount: 2
Fore
SplineSet
562 685 m 1
 562 0 l 1
 483 0 l 1
 160 619 l 1
 163 572 168 506 168 383 c 2
 168 0 l 1
 111 0 l 1
 111 685 l 1
 188 685 l 1
 513 66 l 1
 511 95 505 180 505 269 c 2
 505 685 l 1
 562 685 l 1
EndSplineSet
EndChar

StartChar: uni039E
Encoding: 926 926 364
Width: 497
Flags: W
LayerCount: 2
Fore
SplineSet
437 685 m 1
 430 630 l 1
 50 630 l 1
 50 685 l 1
 437 685 l 1
385 382 m 1
 385 327 l 1
 109 327 l 1
 109 382 l 1
 385 382 l 1
447 56 m 1
 447 0 l 1
 50 0 l 1
 50 56 l 1
 447 56 l 1
EndSplineSet
EndChar

StartChar: uni039F
Encoding: 927 927 365
Width: 691
Flags: W
LayerCount: 2
Fore
SplineSet
345 696 m 0
 512 696 625 573 625 342 c 0
 625 117 515 -11 345 -11 c 0
 180 -11 66 113 66 341 c 0
 66 567 181 696 345 696 c 0
345 645 m 0
 216 645 129 549 129 341 c 0
 129 136 218 40 345 40 c 0
 479 40 562 136 562 342 c 0
 562 550 477 645 345 645 c 0
EndSplineSet
EndChar

StartChar: uni03A0
Encoding: 928 928 366
Width: 665
Flags: W
LayerCount: 2
Fore
SplineSet
554 685 m 1
 554 0 l 1
 494 0 l 1
 494 633 l 1
 171 633 l 1
 171 0 l 1
 111 0 l 1
 111 685 l 1
 554 685 l 1
EndSplineSet
EndChar

StartChar: uni03A1
Encoding: 929 929 367
Width: 570
Flags: W
LayerCount: 2
Fore
SplineSet
272 685 m 2
 431 685 525 622 525 480 c 0
 525 326 418 267 269 267 c 2
 171 267 l 1
 171 0 l 1
 111 0 l 1
 111 685 l 1
 272 685 l 2
269 316 m 2
 383 316 462 353 462 479 c 0
 462 595 391 636 271 636 c 2
 171 636 l 1
 171 316 l 1
 269 316 l 2
EndSplineSet
EndChar

StartChar: uni03A3
Encoding: 931 931 368
Width: 494
Flags: W
LayerCount: 2
Fore
SplineSet
448 685 m 1
 448 634 l 1
 119 634 l 1
 333 357 l 1
 333 323 l 1
 119 51 l 1
 448 51 l 1
 448 0 l 1
 45 0 l 1
 45 44 l 1
 276 339 l 1
 45 641 l 1
 45 685 l 1
 448 685 l 1
EndSplineSet
EndChar

StartChar: uni03A4
Encoding: 932 932 369
Width: 495
Flags: W
LayerCount: 2
Fore
SplineSet
485 685 m 1
 478 632 l 1
 277 632 l 1
 277 0 l 1
 218 0 l 1
 218 632 l 1
 15 632 l 1
 15 685 l 1
 485 685 l 1
EndSplineSet
EndChar

StartChar: uni03A5
Encoding: 933 933 370
Width: 523
Flags: W
LayerCount: 2
Fore
SplineSet
509 685 m 1
 292 268 l 1
 292 0 l 1
 232 0 l 1
 232 267 l 1
 13 685 l 1
 80 685 l 1
 264 321 l 1
 445 685 l 1
 509 685 l 1
EndSplineSet
EndChar

StartChar: uni03A6
Encoding: 934 934 371
Width: 791
Flags: W
LayerCount: 2
Fore
SplineSet
750 344 m 0
 750 170 635 78 425 70 c 1
 425 0 l 1
 366 0 l 1
 366 70 l 1
 150 78 40 181 40 343 c 0
 40 515 156 607 366 615 c 1
 366 685 l 1
 425 685 l 1
 425 615 l 1
 641 607 750 503 750 344 c 0
102 343 m 0
 102 202 192 123 368 118 c 1
 368 567 l 1
 190 557 102 491 102 343 c 0
423 117 m 1
 600 127 689 194 689 344 c 0
 689 483 599 562 423 567 c 1
 423 117 l 1
EndSplineSet
EndChar

StartChar: uni03A7
Encoding: 935 935 372
Width: 514
Flags: W
LayerCount: 2
Fore
SplineSet
290 371 m 1
 504 0 l 1
 436 0 l 1
 254 329 l 1
 75 0 l 1
 10 0 l 1
 219 368 l 1
 31 685 l 1
 99 685 l 1
 255 408 l 1
 411 685 l 1
 476 685 l 1
 290 371 l 1
EndSplineSet
EndChar

StartChar: uni03A8
Encoding: 936 936 373
Width: 670
Flags: W
LayerCount: 2
Fore
SplineSet
570 685 m 1
 630 685 l 1
 630 427 l 2
 630 284 536 209 365 201 c 1
 365 0 l 1
 305 0 l 1
 305 201 l 1
 131 210 40 286 40 426 c 2
 40 685 l 1
 100 685 l 1
 100 431 l 2
 100 316 167 257 306 250 c 1
 306 685 l 1
 364 685 l 1
 364 251 l 1
 503 258 570 316 570 431 c 2
 570 685 l 1
EndSplineSet
EndChar

StartChar: uni03A9
Encoding: 937 937 374
Width: 691
Flags: W
LayerCount: 2
Fore
SplineSet
345 696 m 0
 514 696 625 573 625 346 c 0
 625 187 579 103 481 53 c 1
 603 53 l 1
 603 0 l 1
 404 0 l 1
 404 52 l 1
 509 90 562 180 562 346 c 0
 562 550 477 645 345 645 c 0
 216 645 129 549 129 345 c 0
 129 176 185 93 286 52 c 1
 286 0 l 1
 88 0 l 1
 88 53 l 1
 207 53 l 1
 110 103 66 189 66 345 c 0
 66 567 181 696 345 696 c 0
EndSplineSet
EndChar

StartChar: uni03AA
Encoding: 938 938 375
Width: 282
Flags: W
LayerCount: 2
Fore
SplineSet
45 868 m 0
 68 868 85 850 85 828 c 0
 85 806 68 789 45 789 c 0
 22 789 5 806 5 828 c 0
 5 850 22 868 45 868 c 0
234 868 m 0
 257 868 274 850 274 828 c 0
 274 806 257 789 234 789 c 0
 211 789 194 806 194 828 c 0
 194 850 211 868 234 868 c 0
171 685 m 1
 171 0 l 1
 111 0 l 1
 111 685 l 1
 171 685 l 1
EndSplineSet
EndChar

StartChar: uni03AB
Encoding: 939 939 376
Width: 523
Flags: W
LayerCount: 2
Fore
SplineSet
166 868 m 0
 189 868 206 850 206 828 c 0
 206 806 189 789 166 789 c 0
 143 789 126 806 126 828 c 0
 126 850 143 868 166 868 c 0
355 868 m 0
 378 868 395 850 395 828 c 0
 395 806 378 789 355 789 c 0
 332 789 315 806 315 828 c 0
 315 850 332 868 355 868 c 0
509 685 m 1
 292 268 l 1
 292 0 l 1
 232 0 l 1
 232 267 l 1
 13 685 l 1
 80 685 l 1
 264 321 l 1
 445 685 l 1
 509 685 l 1
EndSplineSet
EndChar

StartChar: uni03AC
Encoding: 940 940 377
Width: 596
Flags: W
LayerCount: 2
Fore
SplineSet
258 771 m 1
 322 767 l 1
 299 599 l 1
 258 599 l 1
 258 771 l 1
258 534 m 0
 348 534 402 489 429 341 c 1
 472 523 l 1
 527 523 l 1
 463 262 l 1
 498 92 l 2
 504 61 518 49 540 41 c 1
 520 -8 l 1
 486 -1 455 21 446 71 c 2
 424 178 l 1
 395 54 340 -11 248 -11 c 0
 133 -11 64 79 64 261 c 0
 64 421 134 534 258 534 c 0
261 486 m 0
 181 486 125 407 125 261 c 0
 125 106 173 37 252 37 c 0
 316 37 376 82 411 268 c 1
 378 439 335 486 261 486 c 0
EndSplineSet
EndChar

StartChar: uni03AD
Encoding: 941 941 378
Width: 453
Flags: W
LayerCount: 2
Fore
SplineSet
230 771 m 1
 294 767 l 1
 271 599 l 1
 230 599 l 1
 230 771 l 1
253 534 m 0
 326 534 374 514 414 487 c 1
 385 450 l 1
 349 473 312 486 258 486 c 0
 181 486 138 451 138 392 c 0
 138 337 186 297 262 297 c 2
 321 297 l 1
 314 250 l 1
 257 250 l 2
 163 250 119 217 119 143 c 0
 119 78 171 38 254 38 c 0
 319 38 358 57 401 89 c 1
 430 52 l 1
 385 14 327 -11 251 -11 c 0
 138 -11 58 44 58 142 c 0
 58 229 113 268 189 277 c 1
 117 293 79 332 79 395 c 0
 79 482 150 534 253 534 c 0
EndSplineSet
EndChar

StartChar: uni03AE
Encoding: 942 942 379
Width: 586
Flags: W
LayerCount: 2
Fore
SplineSet
329 767 m 1
 306 599 l 1
 265 599 l 1
 265 771 l 1
 329 767 l 1
341 534 m 0
 436 534 487 475 487 372 c 2
 487 -205 l 1
 429 -197 l 1
 429 366 l 2
 429 452 394 487 330 487 c 0
 259 487 210 443 168 379 c 1
 168 0 l 1
 110 0 l 1
 110 355 l 2
 110 433 99 482 86 524 c 1
 139 531 l 1
 151 505 158 470 163 429 c 1
 204 492 263 534 341 534 c 0
EndSplineSet
EndChar

StartChar: uni03AF
Encoding: 943 943 380
Width: 267
Flags: W
LayerCount: 2
Fore
SplineSet
108 771 m 1
 172 767 l 1
 149 599 l 1
 108 599 l 1
 108 771 l 1
157 523 m 1
 157 124 l 2
 157 70 171 51 204 37 c 1
 186 -8 l 1
 123 11 99 44 99 119 c 2
 99 523 l 1
 157 523 l 1
EndSplineSet
EndChar

StartChar: uni03B0
Encoding: 944 944 381
Width: 562
Flags: W
LayerCount: 2
Fore
SplineSet
263 866 m 1
 319 862 l 1
 298 717 l 1
 263 717 l 1
 263 866 l 1
185 712 m 0
 208 712 225 694 225 672 c 0
 225 650 208 633 185 633 c 0
 162 633 145 650 145 672 c 0
 145 694 162 712 185 712 c 0
374 712 m 0
 397 712 414 694 414 672 c 0
 414 650 397 633 374 633 c 0
 351 633 334 650 334 672 c 0
 334 694 351 712 374 712 c 0
455 523 m 1
 469 442 481 357 481 260 c 0
 481 70 378 -11 268 -11 c 0
 174 -11 99 46 99 159 c 2
 99 523 l 1
 157 523 l 1
 157 163 l 2
 157 76 204 38 270 38 c 0
 342 38 422 90 422 264 c 0
 422 348 412 437 396 523 c 1
 455 523 l 1
EndSplineSet
EndChar

StartChar: uni03B1
Encoding: 945 945 382
Width: 596
Flags: W
LayerCount: 2
Fore
SplineSet
258 534 m 0
 348 534 402 489 429 341 c 1
 472 523 l 1
 527 523 l 1
 463 262 l 1
 498 92 l 2
 504 61 518 49 540 41 c 1
 520 -8 l 1
 486 -1 455 21 446 71 c 2
 424 178 l 1
 395 54 340 -11 248 -11 c 0
 133 -11 64 79 64 261 c 0
 64 421 134 534 258 534 c 0
261 486 m 0
 181 486 125 407 125 261 c 0
 125 106 173 37 252 37 c 0
 316 37 376 82 411 268 c 1
 378 439 335 486 261 486 c 0
EndSplineSet
EndChar

StartChar: uni03B2
Encoding: 946 946 383
Width: 587
Flags: W
LayerCount: 2
Fore
SplineSet
328 401 m 1
 437 397 536 340 536 200 c 0
 535 68 438 -11 327 -11 c 0
 263 -11 209 10 163 54 c 1
 163 -197 l 1
 105 -206 l 1
 105 541 l 2
 105 670 182 743 300 743 c 0
 404 743 485 678 486 568 c 0
 486 466 423 412 328 401 c 1
323 38 m 0
 409 38 477 98 476 201 c 0
 476 315 401 375 273 375 c 2
 226 375 l 1
 232 421 l 1
 278 421 l 2
 344 421 430 452 429 566 c 0
 429 655 374 696 300 696 c 0
 216 696 163 647 163 540 c 2
 163 107 l 1
 208 58 254 38 323 38 c 0
EndSplineSet
EndChar

StartChar: uni03B3
Encoding: 947 947 384
Width: 462
Flags: W
LayerCount: 2
Fore
SplineSet
61 531 m 1
 111 465 176 332 231 74 c 1
 387 531 l 1
 446 518 l 1
 260 19 l 2
 231 -57 227 -114 246 -198 c 1
 199 -206 l 1
 168 -130 167 -74 199 11 c 1
 126 287 70 432 6 511 c 1
 61 531 l 1
EndSplineSet
EndChar

StartChar: uni03B4
Encoding: 948 948 385
Width: 567
Flags: W
LayerCount: 2
Fore
SplineSet
311 494 m 0
 441 443 503 377 503 239 c 0
 503 89 424 -11 284 -11 c 0
 151 -11 64 79 64 238 c 0
 64 359 128 436 224 478 c 1
 148 513 119 553 119 612 c 0
 119 684 180 743 284 743 c 0
 354 743 402 725 448 694 c 1
 417 657 l 1
 375 684 341 696 291 696 c 0
 217 696 178 659 178 612 c 0
 178 561 203 536 311 494 c 0
284 38 m 0
 387 38 442 106 442 239 c 0
 442 357 399 409 266 461 c 1
 185 422 126 354 126 238 c 0
 126 108 184 38 284 38 c 0
EndSplineSet
EndChar

StartChar: uni03B5
Encoding: 949 949 386
Width: 453
Flags: W
LayerCount: 2
Fore
SplineSet
253 534 m 0
 326 534 374 514 414 487 c 1
 385 450 l 1
 349 473 312 486 258 486 c 0
 181 486 138 451 138 392 c 0
 138 337 186 297 262 297 c 2
 321 297 l 1
 314 250 l 1
 257 250 l 2
 163 250 119 217 119 143 c 0
 119 78 171 38 254 38 c 0
 319 38 358 57 401 89 c 1
 430 52 l 1
 385 14 327 -11 251 -11 c 0
 138 -11 58 44 58 142 c 0
 58 229 113 268 189 277 c 1
 117 293 79 332 79 395 c 0
 79 482 150 534 253 534 c 0
EndSplineSet
EndChar

StartChar: uni03B6
Encoding: 950 950 387
Width: 374
Flags: W
LayerCount: 2
Fore
SplineSet
391 736 m 1
 400 694 l 1
 214 537 107 400 107 251 c 0
 107 151 141 117 241 79 c 0
 337 42 387 13 387 -54 c 0
 387 -120 343 -164 249 -206 c 1
 224 -165 l 1
 283 -140 325 -111 325 -59 c 0
 325 -19 303 0 204 37 c 0
 101 77 45 125 45 251 c 0
 45 407 172 572 340 694 c 1
 311 690 264 687 209 687 c 2
 42 687 l 1
 49 736 l 1
 391 736 l 1
EndSplineSet
EndChar

StartChar: uni03B7
Encoding: 951 951 388
Width: 586
Flags: W
LayerCount: 2
Fore
SplineSet
341 534 m 0
 436 534 487 475 487 372 c 2
 487 -205 l 1
 429 -197 l 1
 429 366 l 2
 429 452 394 487 330 487 c 0
 259 487 210 443 168 379 c 1
 168 0 l 1
 110 0 l 1
 110 355 l 2
 110 433 99 482 86 524 c 1
 139 531 l 1
 151 505 158 470 163 429 c 1
 204 492 263 534 341 534 c 0
EndSplineSet
EndChar

StartChar: uni03B8
Encoding: 952 952 389
Width: 562
Flags: W
LayerCount: 2
Fore
SplineSet
283 743 m 0
 428 743 498 609 498 370 c 0
 498 124 428 -11 280 -11 c 0
 134 -11 64 121 64 369 c 0
 64 610 140 743 283 743 c 0
283 694 m 0
 178 694 128 600 124 393 c 1
 438 393 l 1
 435 600 386 694 283 694 c 0
280 38 m 0
 387 38 435 134 438 347 c 1
 124 347 l 1
 127 134 178 38 280 38 c 0
EndSplineSet
EndChar

StartChar: uni03B9
Encoding: 953 953 390
Width: 267
Flags: W
LayerCount: 2
Fore
SplineSet
157 523 m 1
 157 124 l 2
 157 70 171 51 204 37 c 1
 186 -8 l 1
 123 11 99 44 99 119 c 2
 99 523 l 1
 157 523 l 1
EndSplineSet
EndChar

StartChar: uni03BA
Encoding: 954 954 391
Width: 501
Flags: W
LayerCount: 2
Fore
SplineSet
465 509 m 1
 242 277 l 1
 429 80 l 2
 452 55 469 42 493 34 c 1
 475 -10 l 1
 437 -5 418 13 386 48 c 2
 174 275 l 1
 421 534 l 1
 465 509 l 1
140 531 m 1
 154 494 168 450 168 344 c 2
 168 0 l 1
 110 0 l 1
 110 355 l 2
 110 433 99 482 86 524 c 1
 140 531 l 1
EndSplineSet
EndChar

StartChar: uni03BB
Encoding: 955 955 392
Width: 473
Flags: W
LayerCount: 2
Fore
SplineSet
85 744 m 1
 217 717 259 655 291 505 c 0
 360 180 414 100 480 13 c 1
 426 -9 l 1
 360 83 304 168 244 475 c 1
 87 -9 l 1
 31 5 l 1
 207 523 l 1
 233 523 l 1
 210 627 178 678 76 700 c 1
 85 744 l 1
EndSplineSet
EndChar

StartChar: uni03BC
Encoding: 956 956 393
Width: 584
Flags: W
LayerCount: 2
Fore
SplineSet
498 -2 m 1
 444 -9 l 1
 428 31 423 57 419 102 c 1
 385 42 335 -11 260 -11 c 0
 204 -11 172 12 152 52 c 1
 159 10 162 -25 162 -80 c 2
 162 -197 l 1
 105 -203 l 1
 105 523 l 1
 163 523 l 1
 163 150 l 2
 163 69 208 40 261 40 c 0
 323 40 373 80 412 157 c 1
 412 523 l 1
 470 523 l 1
 470 177 l 2
 470 99 482 45 498 -2 c 1
EndSplineSet
EndChar

StartChar: uni03BD
Encoding: 957 957 394
Width: 462
Flags: W
LayerCount: 2
Fore
SplineSet
62 531 m 1
 114 463 169 322 228 49 c 1
 389 531 l 1
 446 518 l 1
 260 0 l 1
 191 0 l 1
 123 283 70 432 6 511 c 1
 62 531 l 1
EndSplineSet
EndChar

StartChar: uni03BE
Encoding: 958 958 395
Width: 423
Flags: W
LayerCount: 2
Fore
SplineSet
270 743 m 0
 339 743 386 725 431 693 c 1
 401 655 l 1
 362 682 329 696 277 696 c 0
 190 696 154 646 154 583 c 0
 154 508 203 466 283 466 c 2
 343 466 l 1
 335 417 l 1
 275 417 l 2
 172 417 117 350 117 261 c 0
 117 164 156 131 270 87 c 0
 378 45 422 15 422 -54 c 0
 422 -120 378 -164 284 -206 c 1
 259 -165 l 1
 318 -140 360 -111 360 -59 c 0
 360 -16 338 4 238 44 c 0
 128 88 55 126 55 261 c 0
 55 378 133 434 213 444 c 1
 141 461 95 505 95 585 c 0
 95 677 162 743 270 743 c 0
EndSplineSet
EndChar

StartChar: uni03BF
Encoding: 959 959 396
Width: 571
Flags: W
LayerCount: 2
Fore
SplineSet
286 534 m 0
 425 534 507 434 507 263 c 0
 507 94 423 -11 285 -11 c 0
 146 -11 64 93 64 261 c 0
 64 429 149 534 286 534 c 0
286 485 m 0
 187 485 126 411 126 261 c 0
 126 114 185 38 285 38 c 0
 385 38 446 113 446 263 c 0
 446 410 387 485 286 485 c 0
EndSplineSet
EndChar

StartChar: uni03C0
Encoding: 960 960 397
Width: 586
Flags: W
LayerCount: 2
Fore
SplineSet
543 473 m 1
 460 473 l 1
 460 124 l 2
 460 69 474 51 507 37 c 1
 489 -8 l 1
 424 11 402 44 402 119 c 2
 402 473 l 1
 188 473 l 1
 188 0 l 1
 130 0 l 1
 130 473 l 1
 117 473 l 2
 79 473 65 471 36 463 c 1
 25 510 l 1
 54 521 76 523 115 523 c 2
 543 523 l 1
 543 473 l 1
EndSplineSet
EndChar

StartChar: uni03C1
Encoding: 961 961 398
Width: 569
Flags: W
LayerCount: 2
Fore
SplineSet
295 534 m 0
 429 534 500 433 500 264 c 0
 500 96 426 -11 302 -11 c 0
 237 -11 186 18 152 67 c 1
 152 -197 l 1
 94 -205 l 1
 94 285 l 2
 94 438 160 534 295 534 c 0
291 38 m 0
 383 38 438 114 438 264 c 0
 438 412 389 486 296 486 c 0
 195 486 152 408 152 276 c 2
 152 125 l 1
 183 69 232 38 291 38 c 0
EndSplineSet
EndChar

StartChar: uni03C2
Encoding: 962 962 399
Width: 459
Flags: W
LayerCount: 2
Fore
SplineSet
285 534 m 0
 344 534 389 519 433 481 c 1
 404 443 l 1
 370 470 336 484 288 484 c 0
 193 484 125 410 125 269 c 0
 125 155 168 117 276 76 c 0
 364 43 412 15 412 -53 c 0
 412 -120 368 -164 274 -206 c 1
 250 -166 l 1
 308 -140 350 -111 350 -58 c 0
 350 -16 328 -1 239 32 c 0
 128 72 64 129 64 269 c 0
 64 432 151 534 285 534 c 0
EndSplineSet
EndChar

StartChar: uni03C3
Encoding: 963 963 400
Width: 577
Flags: W
LayerCount: 2
Fore
SplineSet
533 523 m 1
 533 476 l 1
 403 484 l 1
 463 450 507 374 507 263 c 0
 507 94 423 -11 285 -11 c 0
 146 -11 64 93 64 261 c 0
 64 421 143 530 318 530 c 0
 388 530 468 527 533 523 c 1
446 263 m 0
 446 377 403 450 347 486 c 1
 342 486 l 2
 182 487 126 411 126 261 c 0
 126 114 185 38 285 38 c 0
 385 38 446 113 446 263 c 0
EndSplineSet
EndChar

StartChar: uni03C4
Encoding: 964 964 401
Width: 447
Flags: W
LayerCount: 2
Fore
SplineSet
438 473 m 1
 247 473 l 1
 247 124 l 2
 247 70 260 51 294 37 c 1
 276 -8 l 1
 211 11 189 44 189 119 c 2
 189 473 l 1
 97 473 l 2
 54 473 41 471 12 463 c 1
 0 510 l 1
 30 521 51 523 91 523 c 2
 438 523 l 1
 438 473 l 1
EndSplineSet
EndChar

StartChar: uni03C5
Encoding: 965 965 402
Width: 562
Flags: W
LayerCount: 2
Fore
SplineSet
455 523 m 1
 469 442 481 357 481 260 c 0
 481 70 378 -11 268 -11 c 0
 174 -11 99 46 99 159 c 2
 99 523 l 1
 157 523 l 1
 157 163 l 2
 157 76 204 38 270 38 c 0
 342 38 422 90 422 264 c 0
 422 348 412 437 396 523 c 1
 455 523 l 1
EndSplineSet
EndChar

StartChar: uni03C6
Encoding: 966 966 403
Width: 720
Flags: W
LayerCount: 2
Fore
SplineSet
651 266 m 0
 651 81 574 -1 384 -10 c 1
 384 -197 l 1
 327 -205 l 1
 327 -10 l 1
 154 -1 76 80 76 244 c 0
 76 356 106 448 134 523 c 1
 192 523 l 1
 166 455 135 361 135 247 c 0
 135 96 201 46 327 36 c 1
 327 347 l 2
 327 474 387 534 481 534 c 0
 585 534 651 464 651 266 c 0
384 36 m 1
 534 44 591 102 591 265 c 0
 591 432 554 487 482 487 c 0
 426 487 384 461 384 341 c 2
 384 36 l 1
EndSplineSet
EndChar

StartChar: uni03C7
Encoding: 967 967 404
Width: 443
Flags: W
LayerCount: 2
Fore
SplineSet
252 184 m 1
 432 -193 l 1
 374 -203 l 1
 221 134 l 1
 64 -202 l 1
 6 -195 l 1
 191 185 l 1
 108 373 64 443 3 511 c 1
 59 532 l 1
 114 469 155 401 222 230 c 1
 352 530 l 1
 412 523 l 1
 252 184 l 1
EndSplineSet
EndChar

StartChar: uni03C8
Encoding: 968 968 405
Width: 745
Flags: W
LayerCount: 2
Fore
SplineSet
664 265 m 0
 664 72 566 -1 401 -10 c 1
 401 -197 l 1
 344 -205 l 1
 344 -11 l 1
 174 -6 91 66 91 201 c 2
 92 523 l 1
 150 523 l 1
 149 204 l 2
 149 95 208 43 344 37 c 1
 344 523 l 1
 401 523 l 1
 401 38 l 1
 539 45 605 110 605 267 c 0
 605 351 597 429 579 523 c 1
 638 523 l 1
 654 435 664 361 664 265 c 0
EndSplineSet
EndChar

StartChar: uni03C9
Encoding: 969 969 406
Width: 774
Flags: W
LayerCount: 2
Fore
SplineSet
641 523 m 1
 666 460 698 362 698 237 c 0
 698 49 612 -11 522 -11 c 0
 450 -11 398 26 387 109 c 1
 371 26 322 -11 248 -11 c 0
 150 -11 76 60 76 238 c 0
 76 362 106 453 134 523 c 1
 192 523 l 1
 155 426 135 338 135 236 c 0
 135 88 187 38 254 38 c 0
 311 38 358 68 358 179 c 2
 358 353 l 1
 415 361 l 1
 415 179 l 2
 415 72 461 38 516 38 c 0
 576 38 639 74 639 236 c 0
 639 338 617 426 582 523 c 1
 641 523 l 1
EndSplineSet
EndChar

StartChar: uni03CA
Encoding: 970 970 407
Width: 267
Flags: W
LayerCount: 2
Fore
SplineSet
33 742 m 0
 56 742 73 724 73 702 c 0
 73 680 56 663 33 663 c 0
 10 663 -7 680 -7 702 c 0
 -7 724 10 742 33 742 c 0
222 742 m 0
 245 742 262 724 262 702 c 0
 262 680 245 663 222 663 c 0
 199 663 182 680 182 702 c 0
 182 724 199 742 222 742 c 0
157 523 m 1
 157 124 l 2
 157 70 171 51 204 37 c 1
 186 -8 l 1
 123 11 99 44 99 119 c 2
 99 523 l 1
 157 523 l 1
EndSplineSet
EndChar

StartChar: uni03CB
Encoding: 971 971 408
Width: 562
Flags: W
LayerCount: 2
Fore
SplineSet
185 742 m 0
 208 742 225 724 225 702 c 0
 225 680 208 663 185 663 c 0
 162 663 145 680 145 702 c 0
 145 724 162 742 185 742 c 0
374 742 m 0
 397 742 414 724 414 702 c 0
 414 680 397 663 374 663 c 0
 351 663 334 680 334 702 c 0
 334 724 351 742 374 742 c 0
455 523 m 1
 469 442 481 357 481 260 c 0
 481 70 378 -11 268 -11 c 0
 174 -11 99 46 99 159 c 2
 99 523 l 1
 157 523 l 1
 157 163 l 2
 157 76 204 38 270 38 c 0
 342 38 422 90 422 264 c 0
 422 348 412 437 396 523 c 1
 455 523 l 1
EndSplineSet
EndChar

StartChar: uni03CC
Encoding: 972 972 409
Width: 571
Flags: W
LayerCount: 2
Fore
SplineSet
265 771 m 1
 329 767 l 1
 306 599 l 1
 265 599 l 1
 265 771 l 1
286 534 m 0
 425 534 507 434 507 263 c 0
 507 94 423 -11 285 -11 c 0
 146 -11 64 93 64 261 c 0
 64 429 149 534 286 534 c 0
286 485 m 0
 187 485 126 411 126 261 c 0
 126 114 185 38 285 38 c 0
 385 38 446 113 446 263 c 0
 446 410 387 485 286 485 c 0
EndSplineSet
EndChar

StartChar: uni03CD
Encoding: 973 973 410
Width: 562
Flags: W
LayerCount: 2
Fore
SplineSet
260 771 m 1
 324 767 l 1
 301 599 l 1
 260 599 l 1
 260 771 l 1
455 523 m 1
 469 442 481 357 481 260 c 0
 481 70 378 -11 268 -11 c 0
 174 -11 99 46 99 159 c 2
 99 523 l 1
 157 523 l 1
 157 163 l 2
 157 76 204 38 270 38 c 0
 342 38 422 90 422 264 c 0
 422 348 412 437 396 523 c 1
 455 523 l 1
EndSplineSet
EndChar

StartChar: uni03CE
Encoding: 974 974 411
Width: 774
Flags: W
LayerCount: 2
Fore
SplineSet
368 771 m 1
 432 767 l 1
 409 599 l 1
 368 599 l 1
 368 771 l 1
641 523 m 1
 666 460 698 362 698 237 c 0
 698 49 612 -11 522 -11 c 0
 450 -11 398 26 387 109 c 1
 371 26 322 -11 248 -11 c 0
 150 -11 76 60 76 238 c 0
 76 362 106 453 134 523 c 1
 192 523 l 1
 155 426 135 338 135 236 c 0
 135 88 187 38 254 38 c 0
 311 38 358 68 358 179 c 2
 358 353 l 1
 415 361 l 1
 415 179 l 2
 415 72 461 38 516 38 c 0
 576 38 639 74 639 236 c 0
 639 338 617 426 582 523 c 1
 641 523 l 1
EndSplineSet
EndChar

StartChar: uni03D0
Encoding: 976 976 412
Width: 569
Flags: W
LayerCount: 2
Fore
SplineSet
327 430 m 0
 458 430 511 341 511 223 c 0
 511 93 428 -11 292 -11 c 0
 133 -11 65 114 65 349 c 0
 65 614 201 743 335 743 c 0
 430 743 473 684 473 622 c 0
 473 532 419 470 280 423 c 1
 299 427 314 430 327 430 c 0
332 696 m 0
 242 696 140 619 129 390 c 1
 177 409 l 2
 374 488 413 538 413 619 c 0
 413 665 384 696 332 696 c 0
292 38 m 0
 389 38 448 111 448 221 c 0
 448 323 406 392 304 392 c 0
 257 392 222 381 175 361 c 2
 128 341 l 1
 127 143 172 38 292 38 c 0
EndSplineSet
EndChar

StartChar: uni03D1
Encoding: 977 977 413
Width: 532
Flags: W
LayerCount: 2
Fore
SplineSet
511 459 m 1
 511 410 l 1
 471 410 l 1
 471 401 l 2
 471 124 394 -11 236 -11 c 0
 142 -11 70 46 70 159 c 2
 70 344 l 1
 128 344 l 1
 128 163 l 2
 128 76 173 37 238 38 c 0
 352 38 408 144 408 401 c 2
 408 410 l 1
 268 410 l 2
 114 410 51 477 51 576 c 0
 51 668 123 743 233 743 c 0
 381 743 456 632 469 459 c 1
 511 459 l 1
268 458 m 2
 406 459 l 1
 396 611 340 695 234 695 c 0
 155 695 110 644 110 576 c 0
 110 498 160 457 268 458 c 2
EndSplineSet
EndChar

StartChar: uni03D2
Encoding: 978 978 414
Width: 548
Flags: W
LayerCount: 2
Fore
SplineSet
232 0 m 1
 232 267 l 1
 13 685 l 1
 80 685 l 1
 264 320 l 1
 393 602 l 2
 423 667 456 696 513 696 c 0
 553 696 581 679 606 658 c 1
 581 623 l 1
 562 638 544 649 516 649 c 0
 484 649 467 635 442 583 c 2
 292 268 l 1
 292 0 l 1
 232 0 l 1
EndSplineSet
EndChar

StartChar: uni03D5
Encoding: 981 981 415
Width: 624
Flags: W
LayerCount: 2
Fore
SplineSet
572 263 m 0
 572 105 487 12 341 5 c 1
 341 -197 l 1
 283 -205 l 1
 283 5 l 1
 133 13 51 108 51 262 c 0
 51 417 137 512 283 518 c 1
 283 736 l 1
 341 743 l 1
 341 518 l 1
 490 511 572 415 572 263 c 0
113 262 m 0
 113 132 173 58 285 53 c 1
 285 471 l 1
 172 464 113 390 113 262 c 0
339 52 m 1
 451 59 510 130 510 263 c 0
 510 391 450 464 339 471 c 1
 339 52 l 1
EndSplineSet
EndChar

StartChar: uni03D6
Encoding: 982 982 416
Width: 729
Flags: W
LayerCount: 2
Fore
SplineSet
681 523 m 1
 681 474 l 1
 579 474 l 1
 620 412 655 329 655 217 c 0
 655 49 575 -11 493 -11 c 0
 428 -11 376 26 365 109 c 1
 349 26 300 -11 233 -11 c 0
 143 -11 74 60 74 218 c 0
 74 330 109 410 151 473 c 1
 135 473 l 2
 97 473 84 472 55 464 c 1
 44 510 l 1
 73 521 96 523 159 523 c 2
 681 523 l 1
596 216 m 0
 596 317 568 395 521 474 c 1
 208 473 l 1
 160 394 133 317 133 216 c 0
 133 88 180 38 237 38 c 0
 289 38 336 68 336 179 c 2
 336 317 l 1
 393 325 l 1
 393 179 l 2
 393 72 438 38 487 38 c 0
 539 38 596 74 596 216 c 0
EndSplineSet
EndChar

StartChar: uni03D7
Encoding: 983 983 417
Width: 593
Flags: W
LayerCount: 2
Fore
SplineSet
483 123 m 2
 483 69 497 49 530 36 c 1
 530 -71 l 2
 530 -161 480 -205 404 -205 c 0
 357 -205 325 -188 303 -171 c 1
 327 -134 l 1
 348 -147 369 -157 402 -157 c 0
 442 -157 472 -136 472 -74 c 2
 472 14 l 1
 437 35 424 68 424 125 c 0
 424 226 433 413 436 458 c 1
 174 -9 l 1
 110 10 l 1
 110 399 l 2
 110 453 97 472 63 486 c 1
 82 531 l 1
 146 512 169 474 169 398 c 0
 169 297 160 110 158 65 c 1
 420 532 l 1
 483 513 l 1
 483 123 l 2
EndSplineSet
EndChar

StartChar: uni03F0
Encoding: 1008 1008 418
Width: 593
Flags: W
LayerCount: 2
Fore
SplineSet
483 123 m 2
 483 69 497 51 530 37 c 1
 511 -9 l 1
 448 11 424 48 424 125 c 0
 424 226 433 413 436 458 c 1
 174 -9 l 1
 110 10 l 1
 110 399 l 2
 110 453 97 472 63 486 c 1
 82 531 l 1
 146 512 169 474 169 398 c 0
 169 297 160 110 158 65 c 1
 420 532 l 1
 483 513 l 1
 483 123 l 2
EndSplineSet
EndChar

StartChar: uni03F1
Encoding: 1009 1009 419
Width: 569
Flags: W
LayerCount: 2
Fore
SplineSet
294 -107 m 0
 388 -121 422 -145 438 -187 c 1
 384 -207 l 1
 367 -176 348 -166 260 -152 c 0
 144 -133 94 -92 94 14 c 2
 94 285 l 2
 94 438 160 534 295 534 c 0
 429 534 500 433 500 285 c 0
 500 132 426 23 302 23 c 0
 237 23 186 53 152 102 c 1
 152 14 l 2
 152 -67 185 -90 294 -107 c 0
296 486 m 0
 195 486 152 408 152 276 c 2
 152 161 l 1
 183 105 232 72 291 72 c 0
 383 72 438 149 438 285 c 0
 438 412 389 486 296 486 c 0
EndSplineSet
EndChar

StartChar: uni03F2
Encoding: 1010 1010 420
Width: 506
Flags: W
LayerCount: 2
Fore
SplineSet
305 534 m 0
 373 534 418 519 470 481 c 1
 441 443 l 1
 399 470 364 484 308 484 c 0
 203 484 126 410 126 259 c 0
 126 109 202 40 307 40 c 0
 366 40 401 56 446 83 c 1
 473 45 l 1
 425 10 375 -11 306 -11 c 0
 162 -11 64 88 64 258 c 0
 64 426 161 534 305 534 c 0
EndSplineSet
EndChar

StartChar: uni03F4
Encoding: 1012 1012 421
Width: 691
Flags: W
LayerCount: 2
Fore
SplineSet
345 696 m 0
 512 696 625 573 625 342 c 0
 625 117 515 -11 345 -11 c 0
 180 -11 66 113 66 341 c 0
 66 567 181 696 345 696 c 0
345 645 m 0
 216 645 129 549 129 341 c 0
 129 136 218 40 345 40 c 0
 479 40 562 136 562 342 c 0
 562 550 477 645 345 645 c 0
474 376 m 1
 474 327 l 1
 216 327 l 1
 216 376 l 1
 474 376 l 1
EndSplineSet
EndChar

StartChar: uni03F5
Encoding: 1013 1013 422
Width: 477
Flags: W
LayerCount: 2
Fore
SplineSet
411 83 m 1
 439 43 l 1
 395 9 345 -11 287 -11 c 0
 152 -11 64 88 64 261 c 0
 64 429 154 534 287 534 c 0
 344 534 390 519 438 481 c 1
 408 444 l 1
 368 473 334 486 290 486 c 0
 199 486 132 420 125 292 c 1
 368 292 l 1
 368 246 l 1
 124 246 l 1
 128 105 195 38 287 38 c 0
 334 38 369 53 411 83 c 1
EndSplineSet
EndChar

StartChar: uni03F6
Encoding: 1014 1014 423
Width: 475
Flags: W
LayerCount: 2
Fore
SplineSet
217 534 m 0
 335 534 411 455 411 265 c 0
 411 93 338 -11 202 -11 c 0
 130 -11 80 13 38 47 c 1
 67 85 l 1
 104 57 140 38 199 38 c 0
 292 38 347 106 351 247 c 1
 117 247 l 1
 117 293 l 1
 350 293 l 1
 343 434 292 486 216 486 c 0
 162 486 124 470 83 442 c 1
 55 479 l 1
 101 514 151 534 217 534 c 0
EndSplineSet
EndChar

StartChar: uni0400
Encoding: 1024 1024 424
Width: 512
Flags: W
LayerCount: 2
Fore
SplineSet
203 888 m 1
 391 792 l 1
 375 758 l 1
 177 836 l 1
 203 888 l 1
459 685 m 1
 452 635 l 1
 171 635 l 1
 171 380 l 1
 414 380 l 1
 414 330 l 1
 171 330 l 1
 171 50 l 1
 466 50 l 1
 466 0 l 1
 111 0 l 1
 111 685 l 1
 459 685 l 1
EndSplineSet
EndChar

StartChar: uni0401
Encoding: 1025 1025 425
Width: 512
Flags: W
LayerCount: 2
Fore
SplineSet
194 868 m 0
 217 868 234 850 234 828 c 0
 234 806 217 789 194 789 c 0
 171 789 154 806 154 828 c 0
 154 850 171 868 194 868 c 0
383 868 m 0
 406 868 423 850 423 828 c 0
 423 806 406 789 383 789 c 0
 360 789 343 806 343 828 c 0
 343 850 360 868 383 868 c 0
459 685 m 1
 452 635 l 1
 171 635 l 1
 171 380 l 1
 414 380 l 1
 414 330 l 1
 171 330 l 1
 171 50 l 1
 466 50 l 1
 466 0 l 1
 111 0 l 1
 111 685 l 1
 459 685 l 1
EndSplineSet
EndChar

StartChar: uni0402
Encoding: 1026 1026 426
Width: 701
Flags: W
LayerCount: 2
Fore
SplineSet
461 437 m 0
 588 437 655 361 655 239 c 2
 655 92 l 2
 655 -30 610 -76 499 -119 c 1
 482 -75 l 1
 573 -35 595 2 595 95 c 2
 595 238 l 2
 595 328 552 384 451 384 c 0
 376 384 324 353 277 295 c 1
 277 0 l 1
 218 0 l 1
 218 632 l 1
 15 632 l 1
 15 685 l 1
 485 685 l 1
 478 632 l 1
 277 632 l 1
 277 355 l 1
 322 405 378 437 461 437 c 0
EndSplineSet
EndChar

StartChar: uni0403
Encoding: 1027 1027 427
Width: 508
Flags: W
LayerCount: 2
Fore
SplineSet
430 836 m 1
 232 758 l 1
 216 792 l 1
 404 888 l 1
 430 836 l 1
498 685 m 1
 489 632 l 1
 171 632 l 1
 171 0 l 1
 111 0 l 1
 111 685 l 1
 498 685 l 1
EndSplineSet
EndChar

StartChar: uni0404
Encoding: 1028 1028 428
Width: 550
Flags: W
LayerCount: 2
Fore
SplineSet
496 99 m 1
 527 60 l 1
 487 21 427 -11 342 -11 c 0
 184 -11 66 112 66 344 c 0
 66 577 191 696 343 696 c 0
 424 696 470 673 519 633 c 1
 487 593 l 1
 441 629 403 645 347 645 c 0
 234 645 139 569 130 381 c 1
 403 381 l 1
 403 330 l 1
 129 330 l 1
 132 132 226 42 344 42 c 0
 415 42 456 67 496 99 c 1
EndSplineSet
EndChar

StartChar: uni0405
Encoding: 1029 1029 429
Width: 539
Flags: W
LayerCount: 2
Fore
SplineSet
267 696 m 0
 356 696 410 668 464 620 c 1
 429 582 l 1
 378 626 332 645 269 645 c 0
 185 645 127 601 127 529 c 0
 127 459 164 427 287 390 c 0
 410 352 485 308 485 187 c 0
 485 70 396 -11 258 -11 c 0
 164 -11 95 22 39 75 c 1
 73 113 l 1
 124 69 177 40 257 40 c 0
 353 40 424 93 424 185 c 0
 424 268 383 302 261 340 c 0
 125 382 66 429 66 528 c 0
 66 625 147 696 267 696 c 0
EndSplineSet
EndChar

StartChar: uni0406
Encoding: 1030 1030 430
Width: 282
Flags: W
LayerCount: 2
Fore
SplineSet
171 685 m 1
 171 0 l 1
 111 0 l 1
 111 685 l 1
 171 685 l 1
EndSplineSet
EndChar

StartChar: uni0407
Encoding: 1031 1031 431
Width: 282
Flags: W
LayerCount: 2
Fore
SplineSet
45 868 m 0
 68 868 85 850 85 828 c 0
 85 806 68 789 45 789 c 0
 22 789 5 806 5 828 c 0
 5 850 22 868 45 868 c 0
234 868 m 0
 257 868 274 850 274 828 c 0
 274 806 257 789 234 789 c 0
 211 789 194 806 194 828 c 0
 194 850 211 868 234 868 c 0
171 685 m 1
 171 0 l 1
 111 0 l 1
 111 685 l 1
 171 685 l 1
EndSplineSet
EndChar

StartChar: uni0408
Encoding: 1032 1032 432
Width: 291
Flags: W
LayerCount: 2
Fore
SplineSet
185 685 m 1
 185 92 l 2
 185 -30 141 -76 29 -119 c 1
 13 -75 l 1
 104 -35 125 2 125 95 c 2
 125 685 l 1
 185 685 l 1
EndSplineSet
EndChar

StartChar: uni0409
Encoding: 1033 1033 433
Width: 890
Flags: W
LayerCount: 2
Fore
SplineSet
607 418 m 2
 760 418 854 353 854 215 c 0
 854 63 751 0 607 0 c 2
 449 0 l 1
 449 633 l 1
 227 633 l 1
 186 299 l 2
 159 71 142 24 44 -9 c 1
 29 39 l 1
 97 64 102 103 126 297 c 2
 174 685 l 1
 509 685 l 1
 509 418 l 1
 607 418 l 2
613 50 m 2
 718 50 791 92 791 215 c 0
 791 324 723 369 610 369 c 2
 509 369 l 1
 509 50 l 1
 613 50 l 2
EndSplineSet
EndChar

StartChar: uni040A
Encoding: 1034 1034 434
Width: 932
Flags: W
LayerCount: 2
Fore
SplineSet
663 398 m 2
 804 398 897 335 897 205 c 0
 897 61 794 0 659 0 c 2
 492 0 l 1
 492 349 l 1
 171 349 l 1
 171 0 l 1
 111 0 l 1
 111 685 l 1
 171 685 l 1
 171 398 l 1
 492 398 l 1
 492 685 l 1
 552 685 l 1
 552 398 l 1
 663 398 l 2
667 50 m 2
 762 50 833 91 833 205 c 0
 833 307 765 349 665 349 c 2
 552 349 l 1
 552 50 l 1
 667 50 l 2
EndSplineSet
EndChar

StartChar: uni040B
Encoding: 1035 1035 435
Width: 701
Flags: W
LayerCount: 2
Fore
SplineSet
460 437 m 0
 587 437 655 362 655 239 c 2
 655 0 l 1
 595 0 l 1
 595 238 l 2
 595 328 552 384 452 384 c 0
 378 384 324 353 277 295 c 1
 277 0 l 1
 218 0 l 1
 218 632 l 1
 15 632 l 1
 15 685 l 1
 485 685 l 1
 478 632 l 1
 277 632 l 1
 277 355 l 1
 322 405 378 437 460 437 c 0
EndSplineSet
EndChar

StartChar: uni040C
Encoding: 1036 1036 436
Width: 561
Flags: W
LayerCount: 2
Fore
SplineSet
382 888 m 1
 408 836 l 1
 210 758 l 1
 194 792 l 1
 382 888 l 1
531 685 m 1
 330 363 l 1
 548 0 l 1
 479 0 l 1
 279 336 l 1
 171 336 l 1
 171 0 l 1
 111 0 l 1
 111 685 l 1
 171 685 l 1
 171 386 l 1
 280 386 l 1
 468 685 l 1
 531 685 l 1
EndSplineSet
EndChar

StartChar: uni040D
Encoding: 1037 1037 437
Width: 673
Flags: W
LayerCount: 2
Fore
SplineSet
251 888 m 1
 439 792 l 1
 423 758 l 1
 225 836 l 1
 251 888 l 1
562 685 m 1
 562 0 l 1
 502 0 l 1
 502 365 l 2
 502 468 505 557 510 618 c 1
 186 0 l 1
 111 0 l 1
 111 685 l 1
 171 685 l 1
 171 320 l 2
 171 216 167 125 163 66 c 1
 488 685 l 1
 562 685 l 1
EndSplineSet
EndChar

StartChar: uni040E
Encoding: 1038 1038 438
Width: 519
Flags: W
LayerCount: 2
Fore
SplineSet
264 765 m 0
 195 765 143 800 134 857 c 1
 174 866 l 1
 187 829 217 812 264 812 c 0
 311 812 342 829 355 866 c 1
 395 857 l 1
 386 800 333 765 264 765 c 0
515 685 m 1
 313 190 l 2
 256 51 221 14 108 -11 c 1
 97 34 l 1
 184 56 213 79 257 192 c 1
 237 192 l 1
 8 685 l 1
 72 685 l 1
 276 232 l 1
 454 685 l 1
 515 685 l 1
EndSplineSet
EndChar

StartChar: uni040F
Encoding: 1039 1039 439
Width: 659
Flags: W
LayerCount: 2
Fore
SplineSet
548 685 m 1
 548 0 l 1
 356 0 l 1
 356 -145 l 1
 310 -145 l 1
 298 0 l 1
 111 0 l 1
 111 685 l 1
 171 685 l 1
 171 51 l 1
 488 51 l 1
 488 685 l 1
 548 685 l 1
EndSplineSet
EndChar

StartChar: uni0410
Encoding: 1040 1040 440
Width: 565
Flags: W
LayerCount: 2
Fore
SplineSet
485 0 m 1
 425 187 l 1
 137 187 l 1
 77 0 l 1
 16 0 l 1
 245 685 l 1
 320 685 l 1
 548 0 l 1
 485 0 l 1
153 238 m 1
 409 238 l 1
 282 636 l 1
 153 238 l 1
EndSplineSet
EndChar

StartChar: uni0411
Encoding: 1041 1041 441
Width: 569
Flags: W
LayerCount: 2
Fore
SplineSet
281 418 m 2
 432 418 525 352 525 215 c 0
 525 63 423 0 279 0 c 2
 111 0 l 1
 111 685 l 1
 457 685 l 1
 449 634 l 1
 171 634 l 1
 171 418 l 1
 281 418 l 2
287 50 m 2
 391 50 462 92 462 215 c 0
 462 324 395 369 283 369 c 2
 171 369 l 1
 171 50 l 1
 287 50 l 2
EndSplineSet
EndChar

StartChar: uni0412
Encoding: 1042 1042 442
Width: 598
Flags: W
LayerCount: 2
Fore
SplineSet
386 363 m 1
 469 354 544 308 544 190 c 0
 544 59 448 0 298 0 c 2
 111 0 l 1
 111 685 l 1
 264 685 l 2
 420 685 512 630 512 514 c 0
 512 426 458 376 386 363 c 1
270 635 m 2
 171 635 l 1
 171 384 l 1
 309 384 l 2
 392 384 451 430 451 510 c 0
 451 602 385 635 270 635 c 2
298 50 m 2
 409 50 482 88 482 190 c 0
 482 294 409 336 316 336 c 2
 171 336 l 1
 171 50 l 1
 298 50 l 2
EndSplineSet
EndChar

StartChar: uni0413
Encoding: 1043 1043 443
Width: 508
Flags: W
LayerCount: 2
Fore
SplineSet
498 685 m 1
 489 632 l 1
 171 632 l 1
 171 0 l 1
 111 0 l 1
 111 685 l 1
 498 685 l 1
EndSplineSet
EndChar

StartChar: uni0414
Encoding: 1044 1044 444
Width: 601
Flags: W
LayerCount: 2
Fore
SplineSet
490 51 m 1
 541 51 l 1
 541 -145 l 1
 495 -145 l 1
 482 0 l 1
 51 0 l 1
 39 -145 l 1
 -7 -145 l 1
 -7 51 l 1
 37 51 l 1
 84 98 104 157 139 431 c 2
 170 685 l 1
 490 685 l 1
 490 51 l 1
430 51 m 1
 430 634 l 1
 223 634 l 1
 198 430 l 2
 167 169 145 99 90 51 c 1
 430 51 l 1
EndSplineSet
EndChar

StartChar: uni0415
Encoding: 1045 1045 445
Width: 512
Flags: W
LayerCount: 2
Fore
SplineSet
459 685 m 1
 452 635 l 1
 171 635 l 1
 171 380 l 1
 414 380 l 1
 414 330 l 1
 171 330 l 1
 171 50 l 1
 466 50 l 1
 466 0 l 1
 111 0 l 1
 111 685 l 1
 459 685 l 1
EndSplineSet
EndChar

StartChar: uni0416
Encoding: 1046 1046 446
Width: 773
Flags: W
LayerCount: 2
Fore
SplineSet
746 685 m 1
 558 363 l 1
 763 0 l 1
 695 0 l 1
 509 336 l 1
 415 336 l 1
 415 0 l 1
 358 0 l 1
 358 336 l 1
 263 336 l 1
 77 0 l 1
 10 0 l 1
 215 363 l 1
 27 685 l 1
 93 685 l 1
 264 386 l 1
 358 386 l 1
 358 685 l 1
 415 685 l 1
 415 386 l 1
 509 386 l 1
 683 685 l 1
 746 685 l 1
EndSplineSet
EndChar

StartChar: uni0417
Encoding: 1047 1047 447
Width: 520
Flags: W
LayerCount: 2
Fore
SplineSet
234 -11 m 0
 152 -11 79 20 21 82 c 1
 58 116 l 1
 103 70 159 41 232 41 c 0
 335 41 403 98 403 197 c 0
 403 289 344 343 232 341 c 2
 170 341 l 1
 178 392 l 1
 230 392 l 2
 321 392 383 438 383 522 c 0
 383 593 337 645 246 645 c 0
 180 645 126 619 75 575 c 1
 42 612 l 1
 103 667 168 696 249 696 c 0
 376 696 445 623 445 525 c 0
 445 436 390 387 313 370 c 1
 396 361 467 306 467 197 c 0
 467 69 369 -11 234 -11 c 0
EndSplineSet
EndChar

StartChar: uni0418
Encoding: 1048 1048 448
Width: 673
Flags: W
LayerCount: 2
Fore
SplineSet
562 685 m 1
 562 0 l 1
 502 0 l 1
 502 365 l 2
 502 468 505 557 510 618 c 1
 186 0 l 1
 111 0 l 1
 111 685 l 1
 171 685 l 1
 171 320 l 2
 171 216 167 125 163 66 c 1
 488 685 l 1
 562 685 l 1
EndSplineSet
EndChar

StartChar: uni0419
Encoding: 1049 1049 449
Width: 673
Flags: W
LayerCount: 2
Fore
SplineSet
336 765 m 0
 267 765 215 800 206 857 c 1
 246 866 l 1
 259 829 289 812 336 812 c 0
 383 812 414 829 427 866 c 1
 467 857 l 1
 458 800 405 765 336 765 c 0
562 685 m 1
 562 0 l 1
 502 0 l 1
 502 365 l 2
 502 468 505 557 510 618 c 1
 186 0 l 1
 111 0 l 1
 111 685 l 1
 171 685 l 1
 171 320 l 2
 171 216 167 125 163 66 c 1
 488 685 l 1
 562 685 l 1
EndSplineSet
EndChar

StartChar: uni041A
Encoding: 1050 1050 450
Width: 561
Flags: W
LayerCount: 2
Fore
SplineSet
531 685 m 1
 330 363 l 1
 548 0 l 1
 479 0 l 1
 279 336 l 1
 171 336 l 1
 171 0 l 1
 111 0 l 1
 111 685 l 1
 171 685 l 1
 171 386 l 1
 280 386 l 1
 468 685 l 1
 531 685 l 1
EndSplineSet
EndChar

StartChar: uni041B
Encoding: 1051 1051 451
Width: 647
Flags: W
LayerCount: 2
Fore
SplineSet
174 685 m 1
 536 685 l 1
 536 0 l 1
 476 0 l 1
 476 633 l 1
 227 633 l 1
 186 299 l 2
 159 71 142 24 44 -9 c 1
 29 39 l 1
 97 64 102 103 126 297 c 2
 174 685 l 1
EndSplineSet
EndChar

StartChar: uni041C
Encoding: 1052 1052 452
Width: 770
Flags: W
LayerCount: 2
Fore
SplineSet
635 685 m 1
 701 0 l 1
 643 0 l 1
 612 328 l 2
 601 438 590 564 586 626 c 1
 414 81 l 1
 357 81 l 1
 179 626 l 1
 176 558 165 435 156 330 c 2
 126 0 l 1
 69 0 l 1
 134 685 l 1
 217 685 l 1
 387 152 l 1
 551 685 l 1
 635 685 l 1
EndSplineSet
EndChar

StartChar: uni041D
Encoding: 1053 1053 453
Width: 670
Flags: W
LayerCount: 2
Fore
SplineSet
499 0 m 1
 499 335 l 1
 171 335 l 1
 171 0 l 1
 111 0 l 1
 111 685 l 1
 171 685 l 1
 171 386 l 1
 499 386 l 1
 499 685 l 1
 559 685 l 1
 559 0 l 1
 499 0 l 1
EndSplineSet
EndChar

StartChar: uni041E
Encoding: 1054 1054 454
Width: 691
Flags: W
LayerCount: 2
Fore
SplineSet
345 696 m 0
 512 696 625 573 625 342 c 0
 625 117 515 -11 345 -11 c 0
 180 -11 66 113 66 341 c 0
 66 567 181 696 345 696 c 0
345 645 m 0
 216 645 129 549 129 341 c 0
 129 136 218 40 345 40 c 0
 479 40 562 136 562 342 c 0
 562 550 477 645 345 645 c 0
EndSplineSet
EndChar

StartChar: uni041F
Encoding: 1055 1055 455
Width: 665
Flags: W
LayerCount: 2
Fore
SplineSet
554 685 m 1
 554 0 l 1
 494 0 l 1
 494 633 l 1
 171 633 l 1
 171 0 l 1
 111 0 l 1
 111 685 l 1
 554 685 l 1
EndSplineSet
EndChar

StartChar: uni0420
Encoding: 1056 1056 456
Width: 570
Flags: W
LayerCount: 2
Fore
SplineSet
272 685 m 2
 431 685 525 622 525 480 c 0
 525 326 418 267 269 267 c 2
 171 267 l 1
 171 0 l 1
 111 0 l 1
 111 685 l 1
 272 685 l 2
269 316 m 2
 383 316 462 353 462 479 c 0
 462 595 391 636 271 636 c 2
 171 636 l 1
 171 316 l 1
 269 316 l 2
EndSplineSet
EndChar

StartChar: uni0421
Encoding: 1057 1057 457
Width: 550
Flags: W
LayerCount: 2
Fore
SplineSet
343 696 m 0
 424 696 470 673 519 633 c 1
 487 593 l 1
 441 629 403 645 347 645 c 0
 228 645 129 561 129 343 c 0
 129 135 224 42 344 42 c 0
 415 42 456 67 496 99 c 1
 527 60 l 1
 486 21 427 -11 342 -11 c 0
 184 -11 66 112 66 343 c 0
 66 577 191 696 343 696 c 0
EndSplineSet
EndChar

StartChar: uni0422
Encoding: 1058 1058 458
Width: 495
Flags: W
LayerCount: 2
Fore
SplineSet
485 685 m 1
 478 632 l 1
 277 632 l 1
 277 0 l 1
 218 0 l 1
 218 632 l 1
 15 632 l 1
 15 685 l 1
 485 685 l 1
EndSplineSet
EndChar

StartChar: uni0423
Encoding: 1059 1059 459
Width: 519
Flags: W
LayerCount: 2
Fore
SplineSet
515 685 m 1
 313 190 l 2
 256 51 221 14 108 -11 c 1
 97 34 l 1
 184 56 213 79 257 192 c 1
 237 192 l 1
 8 685 l 1
 72 685 l 1
 276 232 l 1
 454 685 l 1
 515 685 l 1
EndSplineSet
EndChar

StartChar: uni0424
Encoding: 1060 1060 460
Width: 801
Flags: W
LayerCount: 2
Fore
SplineSet
755 349 m 0
 755 149 638 52 430 46 c 1
 430 -25 l 1
 371 -25 l 1
 371 46 l 1
 155 54 45 158 45 347 c 0
 45 547 163 645 371 651 c 1
 371 719 l 1
 430 719 l 1
 430 651 l 1
 646 643 755 538 755 349 c 0
107 347 m 0
 107 179 197 99 373 94 c 1
 373 604 l 1
 197 595 107 523 107 347 c 0
428 93 m 1
 604 102 694 174 694 349 c 0
 694 518 604 598 428 603 c 1
 428 93 l 1
EndSplineSet
EndChar

StartChar: uni0425
Encoding: 1061 1061 461
Width: 514
Flags: W
LayerCount: 2
Fore
SplineSet
290 371 m 1
 504 0 l 1
 436 0 l 1
 254 329 l 1
 75 0 l 1
 10 0 l 1
 219 368 l 1
 31 685 l 1
 99 685 l 1
 255 408 l 1
 411 685 l 1
 476 685 l 1
 290 371 l 1
EndSplineSet
EndChar

StartChar: uni0426
Encoding: 1062 1062 462
Width: 659
Flags: W
LayerCount: 2
Fore
SplineSet
548 51 m 1
 619 51 l 1
 619 -145 l 1
 573 -145 l 1
 560 0 l 1
 111 0 l 1
 111 685 l 1
 171 685 l 1
 171 51 l 1
 488 51 l 1
 488 685 l 1
 548 685 l 1
 548 51 l 1
EndSplineSet
EndChar

StartChar: uni0427
Encoding: 1063 1063 463
Width: 594
Flags: W
LayerCount: 2
Fore
SplineSet
423 685 m 1
 483 685 l 1
 483 0 l 1
 423 0 l 1
 423 295 l 1
 371 250 317 223 240 223 c 0
 124 223 45 297 45 419 c 2
 45 685 l 1
 105 685 l 1
 105 423 l 2
 105 326 161 276 253 276 c 0
 326 276 385 307 423 350 c 1
 423 685 l 1
EndSplineSet
EndChar

StartChar: uni0428
Encoding: 1064 1064 464
Width: 911
Flags: W
LayerCount: 2
Fore
SplineSet
800 685 m 1
 800 0 l 1
 111 0 l 1
 111 685 l 1
 170 685 l 1
 170 51 l 1
 427 51 l 1
 427 685 l 1
 484 685 l 1
 484 51 l 1
 741 51 l 1
 741 685 l 1
 800 685 l 1
EndSplineSet
EndChar

StartChar: uni0429
Encoding: 1065 1065 465
Width: 911
Flags: W
LayerCount: 2
Fore
SplineSet
800 51 m 1
 871 51 l 1
 871 -145 l 1
 825 -145 l 1
 812 0 l 1
 111 0 l 1
 111 685 l 1
 170 685 l 1
 170 51 l 1
 427 51 l 1
 427 685 l 1
 484 685 l 1
 484 51 l 1
 741 51 l 1
 741 685 l 1
 800 685 l 1
 800 51 l 1
EndSplineSet
EndChar

StartChar: uni042A
Encoding: 1066 1066 466
Width: 668
Flags: W
LayerCount: 2
Fore
SplineSet
387 423 m 2
 539 423 632 357 632 218 c 0
 632 63 530 0 385 0 c 2
 218 0 l 1
 218 633 l 1
 15 633 l 1
 15 685 l 1
 277 685 l 1
 277 423 l 1
 387 423 l 2
393 50 m 2
 497 50 569 92 569 217 c 0
 569 329 502 374 389 374 c 2
 277 374 l 1
 277 50 l 1
 393 50 l 2
EndSplineSet
EndChar

StartChar: uni042B
Encoding: 1067 1067 467
Width: 797
Flags: W
LayerCount: 2
Fore
SplineSet
269 423 m 2
 422 423 515 357 515 218 c 0
 515 63 413 0 269 0 c 2
 111 0 l 1
 111 685 l 1
 171 685 l 1
 171 423 l 1
 269 423 l 2
626 685 m 1
 686 685 l 1
 686 0 l 1
 626 0 l 1
 626 685 l 1
277 50 m 2
 381 50 452 92 452 217 c 0
 452 329 385 374 271 374 c 2
 171 374 l 1
 171 50 l 1
 277 50 l 2
EndSplineSet
EndChar

StartChar: uni042C
Encoding: 1068 1068 468
Width: 561
Flags: W
LayerCount: 2
Fore
SplineSet
281 423 m 2
 432 423 525 357 525 218 c 0
 525 63 423 0 279 0 c 2
 111 0 l 1
 111 685 l 1
 171 685 l 1
 171 423 l 1
 281 423 l 2
287 50 m 2
 391 50 462 92 462 217 c 0
 462 329 395 374 283 374 c 2
 171 374 l 1
 171 50 l 1
 287 50 l 2
EndSplineSet
EndChar

StartChar: uni042D
Encoding: 1069 1069 469
Width: 527
Flags: W
LayerCount: 2
Fore
SplineSet
230 696 m 0
 360 696 461 607 461 343 c 0
 461 114 371 -11 210 -11 c 0
 122 -11 66 23 23 61 c 1
 55 100 l 1
 98 66 138 42 208 42 c 0
 329 42 396 134 398 330 c 1
 118 330 l 1
 118 381 l 1
 397 381 l 1
 390 582 320 645 229 645 c 0
 165 645 123 629 68 590 c 1
 37 628 l 1
 91 672 151 696 230 696 c 0
EndSplineSet
EndChar

StartChar: uni042E
Encoding: 1070 1070 470
Width: 878
Flags: W
LayerCount: 2
Fore
SplineSet
543 696 m 0
 707 696 812 573 812 342 c 0
 812 117 709 -11 543 -11 c 0
 384 -11 279 108 273 331 c 1
 171 331 l 1
 171 0 l 1
 111 0 l 1
 111 685 l 1
 171 685 l 1
 171 382 l 1
 274 382 l 1
 288 581 391 696 543 696 c 0
543 40 m 0
 671 40 749 136 749 342 c 0
 749 550 670 645 543 645 c 0
 418 645 336 547 336 342 c 0
 336 134 420 40 543 40 c 0
EndSplineSet
EndChar

StartChar: uni042F
Encoding: 1071 1071 471
Width: 594
Flags: W
LayerCount: 2
Fore
SplineSet
313 685 m 2
 484 685 l 1
 484 0 l 1
 424 0 l 1
 424 285 l 1
 254 285 l 1
 110 0 l 1
 41 0 l 1
 195 295 l 1
 108 323 55 381 55 481 c 0
 55 609 137 685 313 685 c 2
277 334 m 2
 424 334 l 1
 424 636 l 1
 315 636 l 2
 177 636 119 584 119 481 c 0
 119 384 181 334 277 334 c 2
EndSplineSet
EndChar

StartChar: uni0430
Encoding: 1072 1072 472
Width: 531
Flags: W
LayerCount: 2
Fore
SplineSet
426 116 m 2
 426 58 442 41 470 30 c 1
 457 -11 l 1
 411 -1 384 22 376 76 c 1
 338 18 283 -11 213 -11 c 0
 112 -11 51 52 51 145 c 0
 51 255 134 314 268 314 c 2
 368 314 l 1
 368 365 l 2
 368 448 334 485 247 485 c 0
 205 485 157 474 105 455 c 1
 90 499 l 1
 148 522 200 534 255 534 c 0
 374 534 426 475 426 368 c 2
 426 116 l 2
223 36 m 0
 290 36 336 69 368 130 c 1
 368 272 l 1
 277 272 l 2
 172 272 113 231 113 148 c 0
 113 76 154 36 223 36 c 0
EndSplineSet
EndChar

StartChar: uni0431
Encoding: 1073 1073 473
Width: 575
Flags: W
LayerCount: 2
Fore
SplineSet
322 491 m 0
 441 491 514 401 514 252 c 0
 514 77 428 -11 298 -11 c 0
 167 -11 77 82 77 287 c 0
 77 504 111 611 268 667 c 0
 343 694 384 712 430 742 c 1
 456 699 l 1
 420 674 371 650 294 624 c 0
 200 589 150 547 136 378 c 1
 171 439 233 491 322 491 c 0
298 38 m 0
 385 38 452 88 452 248 c 0
 452 383 400 443 314 443 c 0
 237 443 174 396 138 320 c 1
 138 270 l 2
 137 120 196 38 298 38 c 0
EndSplineSet
EndChar

StartChar: uni0432
Encoding: 1074 1074 474
Width: 548
Flags: W
LayerCount: 2
Fore
SplineSet
355 284 m 1
 436 276 484 235 484 157 c 0
 484 51 399 0 272 0 c 2
 105 0 l 1
 105 517 l 1
 154 527 210 534 263 534 c 0
 387 534 456 480 456 395 c 0
 456 334 418 295 355 284 c 1
264 487 m 0
 225 487 195 484 163 479 c 1
 163 302 l 1
 287 302 l 2
 354 302 397 331 397 394 c 0
 397 452 357 487 264 487 c 0
272 47 m 2
 359 47 423 76 423 157 c 0
 423 225 382 257 291 257 c 2
 163 257 l 1
 163 47 l 1
 272 47 l 2
EndSplineSet
EndChar

StartChar: uni0433
Encoding: 1075 1075 475
Width: 422
Flags: W
LayerCount: 2
Fore
SplineSet
163 0 m 1
 105 0 l 1
 105 523 l 1
 414 523 l 1
 406 473 l 1
 163 473 l 1
 163 0 l 1
EndSplineSet
EndChar

StartChar: uni0434
Encoding: 1076 1076 476
Width: 551
Flags: W
LayerCount: 2
Fore
SplineSet
445 49 m 1
 495 49 l 1
 495 -145 l 1
 449 -145 l 1
 436 0 l 1
 64 0 l 1
 51 -145 l 1
 5 -145 l 1
 5 49 l 1
 39 49 l 1
 83 80 112 108 127 322 c 2
 141 523 l 1
 445 523 l 1
 445 49 l 1
386 49 m 1
 386 475 l 1
 195 475 l 1
 184 329 l 2
 171 128 146 84 94 49 c 1
 386 49 l 1
EndSplineSet
EndChar

StartChar: uni0435
Encoding: 1077 1077 477
Width: 535
Flags: W
LayerCount: 2
Fore
SplineSet
477 281 m 0
 477 265 476 249 475 239 c 1
 126 239 l 1
 133 97 199 38 289 38 c 0
 346 38 384 56 430 90 c 1
 457 53 l 1
 408 13 355 -11 286 -11 c 0
 148 -11 64 89 64 257 c 0
 64 424 145 534 273 534 c 0
 409 534 477 435 477 281 c 0
420 284 m 1
 420 299 l 2
 420 413 374 486 275 486 c 0
 194 486 132 425 125 284 c 1
 420 284 l 1
EndSplineSet
EndChar

StartChar: uni0436
Encoding: 1078 1078 478
Width: 709
Flags: W
LayerCount: 2
Fore
SplineSet
651 523 m 1
 517 279 l 1
 673 0 l 1
 610 0 l 1
 470 253 l 1
 382 253 l 1
 382 0 l 1
 327 0 l 1
 327 253 l 1
 238 253 l 1
 98 0 l 1
 36 0 l 1
 192 279 l 1
 58 523 l 1
 119 523 l 1
 239 299 l 1
 327 299 l 1
 327 523 l 1
 382 523 l 1
 382 299 l 1
 471 299 l 1
 592 523 l 1
 651 523 l 1
EndSplineSet
EndChar

StartChar: uni0437
Encoding: 1079 1079 479
Width: 476
Flags: W
LayerCount: 2
Fore
SplineSet
221 534 m 0
 315 534 391 484 391 396 c 0
 391 331 353 294 282 279 c 1
 367 270 418 234 418 151 c 0
 418 43 332 -11 218 -11 c 0
 130 -11 70 18 23 57 c 1
 55 93 l 1
 98 59 144 38 216 38 c 0
 295 38 357 67 357 152 c 0
 357 227 295 251 203 251 c 2
 141 251 l 1
 145 298 l 1
 195 298 l 2
 280 298 332 331 332 395 c 0
 332 455 285 486 216 486 c 0
 152 486 114 470 69 442 c 1
 41 478 l 1
 92 514 146 534 221 534 c 0
EndSplineSet
EndChar

StartChar: uni0438
Encoding: 1080 1080 480
Width: 590
Flags: W
LayerCount: 2
Fore
SplineSet
485 523 m 1
 485 0 l 1
 427 0 l 1
 427 324 l 2
 427 384 432 433 434 456 c 1
 173 0 l 1
 105 0 l 1
 105 523 l 1
 162 523 l 1
 162 216 l 2
 162 159 159 101 157 69 c 1
 416 523 l 1
 485 523 l 1
EndSplineSet
EndChar

StartChar: uni0439
Encoding: 1081 1081 481
Width: 590
Flags: W
LayerCount: 2
Fore
SplineSet
294 653 m 0
 225 653 173 688 164 746 c 1
 204 754 l 1
 217 717 247 700 294 700 c 0
 341 700 372 717 385 754 c 1
 425 746 l 1
 416 688 363 653 294 653 c 0
485 523 m 1
 485 0 l 1
 427 0 l 1
 427 324 l 2
 427 384 432 433 434 456 c 1
 173 0 l 1
 105 0 l 1
 105 523 l 1
 162 523 l 1
 162 216 l 2
 162 159 159 101 157 69 c 1
 416 523 l 1
 485 523 l 1
EndSplineSet
EndChar

StartChar: uni043A
Encoding: 1082 1082 482
Width: 505
Flags: W
LayerCount: 2
Fore
SplineSet
454 523 m 1
 289 281 l 1
 479 0 l 1
 411 0 l 1
 241 255 l 1
 163 255 l 1
 163 0 l 1
 105 0 l 1
 105 523 l 1
 163 523 l 1
 163 301 l 1
 242 301 l 1
 390 523 l 1
 454 523 l 1
EndSplineSet
EndChar

StartChar: uni043B
Encoding: 1083 1083 483
Width: 567
Flags: W
LayerCount: 2
Fore
SplineSet
149 523 m 1
 462 523 l 1
 462 0 l 1
 404 0 l 1
 404 474 l 1
 202 474 l 1
 186 280 l 2
 169 71 159 23 61 -9 c 1
 45 38 l 1
 109 61 114 94 129 286 c 2
 149 523 l 1
EndSplineSet
EndChar

StartChar: uni043C
Encoding: 1084 1084 484
Width: 659
Flags: W
LayerCount: 2
Fore
SplineSet
544 523 m 1
 591 0 l 1
 534 0 l 1
 507 305 l 2
 502 362 500 408 499 464 c 1
 353 65 l 1
 298 65 l 1
 156 464 l 1
 155 414 153 361 149 305 c 2
 124 0 l 1
 68 0 l 1
 114 523 l 1
 188 523 l 1
 326 124 l 1
 469 523 l 1
 544 523 l 1
EndSplineSet
EndChar

StartChar: uni043D
Encoding: 1085 1085 485
Width: 585
Flags: W
LayerCount: 2
Fore
SplineSet
423 0 m 1
 423 246 l 1
 163 246 l 1
 163 0 l 1
 105 0 l 1
 105 523 l 1
 163 523 l 1
 163 295 l 1
 423 295 l 1
 423 523 l 1
 481 523 l 1
 481 0 l 1
 423 0 l 1
EndSplineSet
EndChar

StartChar: uni043E
Encoding: 1086 1086 486
Width: 571
Flags: W
LayerCount: 2
Fore
SplineSet
286 534 m 0
 425 534 507 434 507 263 c 0
 507 94 423 -11 285 -11 c 0
 146 -11 64 93 64 261 c 0
 64 429 149 534 286 534 c 0
286 485 m 0
 187 485 126 411 126 261 c 0
 126 114 185 38 285 38 c 0
 385 38 446 113 446 263 c 0
 446 410 387 485 286 485 c 0
EndSplineSet
EndChar

StartChar: uni043F
Encoding: 1087 1087 487
Width: 582
Flags: W
LayerCount: 2
Fore
SplineSet
420 0 m 1
 420 474 l 1
 163 474 l 1
 163 0 l 1
 105 0 l 1
 105 523 l 1
 478 523 l 1
 478 0 l 1
 420 0 l 1
EndSplineSet
EndChar

StartChar: uni0440
Encoding: 1088 1088 488
Width: 574
Flags: W
LayerCount: 2
Fore
SplineSet
320 534 m 0
 449 534 510 433 510 264 c 0
 510 99 442 -11 312 -11 c 0
 246 -11 196 19 163 61 c 1
 163 -197 l 1
 105 -205 l 1
 105 523 l 1
 155 523 l 1
 159 446 l 1
 197 500 252 534 320 534 c 0
301 38 m 0
 397 38 449 114 449 264 c 0
 449 413 401 486 310 486 c 0
 243 486 199 446 163 396 c 1
 163 117 l 1
 196 69 242 38 301 38 c 0
EndSplineSet
EndChar

StartChar: uni0441
Encoding: 1089 1089 489
Width: 469
Flags: W
LayerCount: 2
Fore
SplineSet
285 534 m 0
 344 534 389 519 433 481 c 1
 404 443 l 1
 370 470 336 484 288 484 c 0
 193 484 126 410 126 259 c 0
 126 109 192 40 287 40 c 0
 336 40 371 56 408 84 c 1
 436 45 l 1
 395 10 345 -11 286 -11 c 0
 152 -11 64 88 64 258 c 0
 64 426 151 534 285 534 c 0
EndSplineSet
EndChar

StartChar: uni0442
Encoding: 1090 1090 490
Width: 433
Flags: W
LayerCount: 2
Fore
SplineSet
427 523 m 1
 420 473 l 1
 246 473 l 1
 246 0 l 1
 188 0 l 1
 188 473 l 1
 8 473 l 1
 8 523 l 1
 427 523 l 1
EndSplineSet
EndChar

StartChar: uni0443
Encoding: 1091 1091 491
Width: 468
Flags: W
LayerCount: 2
Fore
SplineSet
452 523 m 1
 273 -2 l 2
 234 -116 187 -179 59 -204 c 1
 53 -159 l 1
 158 -133 184 -92 217 0 c 1
 197 0 l 1
 15 523 l 1
 78 523 l 1
 236 43 l 1
 391 523 l 1
 452 523 l 1
EndSplineSet
EndChar

StartChar: uni0444
Encoding: 1092 1092 492
Width: 788
Flags: W
LayerCount: 2
Fore
SplineSet
556 534 m 0
 681 534 724 428 724 264 c 0
 724 99 665 -11 553 -11 c 0
 497 -11 456 16 422 62 c 1
 422 -197 l 1
 366 -205 l 1
 366 61 l 1
 332 14 289 -11 233 -11 c 0
 125 -11 64 99 64 264 c 0
 64 429 116 534 235 534 c 0
 289 534 332 511 366 463 c 1
 366 743 l 1
 422 736 l 1
 422 461 l 1
 457 511 504 534 556 534 c 0
244 37 m 0
 294 37 334 66 366 116 c 1
 366 406 l 1
 333 458 294 486 244 486 c 0
 170 486 126 411 126 264 c 0
 126 117 168 37 244 37 c 0
546 37 m 0
 621 37 662 117 662 264 c 0
 662 411 626 486 548 486 c 0
 495 486 454 457 422 406 c 1
 422 116 l 1
 457 66 495 37 546 37 c 0
EndSplineSet
EndChar

StartChar: uni0445
Encoding: 1093 1093 493
Width: 459
Flags: W
LayerCount: 2
Fore
SplineSet
264 280 m 1
 448 0 l 1
 378 0 l 1
 227 243 l 1
 77 0 l 1
 10 0 l 1
 194 278 l 1
 34 523 l 1
 102 523 l 1
 230 314 l 1
 359 523 l 1
 425 523 l 1
 264 280 l 1
EndSplineSet
EndChar

StartChar: uni0446
Encoding: 1094 1094 494
Width: 579
Flags: W
LayerCount: 2
Fore
SplineSet
472 49 m 1
 542 49 l 1
 542 -145 l 1
 496 -145 l 1
 483 0 l 1
 105 0 l 1
 105 523 l 1
 163 523 l 1
 163 49 l 1
 414 49 l 1
 414 523 l 1
 472 523 l 1
 472 49 l 1
EndSplineSet
EndChar

StartChar: uni0447
Encoding: 1095 1095 495
Width: 539
Flags: W
LayerCount: 2
Fore
SplineSet
377 523 m 1
 435 523 l 1
 435 0 l 1
 377 0 l 1
 377 242 l 1
 340 203 281 174 211 174 c 0
 121 174 60 223 60 319 c 2
 60 523 l 1
 118 523 l 1
 118 326 l 2
 118 254 155 221 225 221 c 0
 285 221 345 252 377 294 c 1
 377 523 l 1
EndSplineSet
EndChar

StartChar: uni0448
Encoding: 1096 1096 496
Width: 793
Flags: W
LayerCount: 2
Fore
SplineSet
689 523 m 1
 689 0 l 1
 105 0 l 1
 105 523 l 1
 162 523 l 1
 162 49 l 1
 369 49 l 1
 369 523 l 1
 424 523 l 1
 424 49 l 1
 632 49 l 1
 632 523 l 1
 689 523 l 1
EndSplineSet
EndChar

StartChar: uni0449
Encoding: 1097 1097 497
Width: 796
Flags: W
LayerCount: 2
Fore
SplineSet
689 49 m 1
 759 49 l 1
 759 -145 l 1
 713 -145 l 1
 700 0 l 1
 105 0 l 1
 105 523 l 1
 162 523 l 1
 162 49 l 1
 369 49 l 1
 369 523 l 1
 424 523 l 1
 424 49 l 1
 632 49 l 1
 632 523 l 1
 689 523 l 1
 689 49 l 1
EndSplineSet
EndChar

StartChar: uni044A
Encoding: 1098 1098 498
Width: 583
Flags: W
LayerCount: 2
Fore
SplineSet
337 347 m 2
 487 347 545 281 545 177 c 0
 545 54 457 0 348 0 c 2
 186 0 l 1
 186 476 l 1
 8 476 l 1
 8 523 l 1
 246 523 l 1
 244 521 l 1
 244 347 l 1
 337 347 l 2
343 48 m 2
 429 48 484 82 484 177 c 0
 484 255 447 300 337 300 c 2
 244 300 l 1
 244 48 l 1
 343 48 l 2
EndSplineSet
EndChar

StartChar: uni044B
Encoding: 1099 1099 499
Width: 712
Flags: W
LayerCount: 2
Fore
SplineSet
245 347 m 2
 395 347 453 281 453 177 c 0
 453 54 365 0 256 0 c 2
 105 0 l 1
 105 523 l 1
 163 523 l 1
 163 347 l 1
 245 347 l 2
549 523 m 1
 607 523 l 1
 607 0 l 1
 549 0 l 1
 549 523 l 1
251 48 m 2
 337 48 392 82 392 177 c 0
 392 255 355 300 245 300 c 2
 163 300 l 1
 163 48 l 1
 251 48 l 2
EndSplineSet
EndChar

StartChar: uni044C
Encoding: 1100 1100 500
Width: 501
Flags: W
LayerCount: 2
Fore
SplineSet
255 347 m 2
 405 347 463 281 463 177 c 0
 463 54 375 0 266 0 c 2
 105 0 l 1
 105 523 l 1
 163 523 l 1
 163 347 l 1
 255 347 l 2
261 48 m 2
 347 48 402 82 402 177 c 0
 402 255 365 300 255 300 c 2
 163 300 l 1
 163 48 l 1
 261 48 l 2
EndSplineSet
EndChar

StartChar: uni044D
Encoding: 1101 1101 501
Width: 475
Flags: W
LayerCount: 2
Fore
SplineSet
217 534 m 0
 335 534 411 455 411 265 c 0
 411 93 338 -11 202 -11 c 0
 130 -11 80 13 38 47 c 1
 67 85 l 1
 104 57 140 38 199 38 c 0
 292 38 347 106 351 247 c 1
 117 247 l 1
 117 293 l 1
 350 293 l 1
 343 434 292 486 216 486 c 0
 162 486 124 470 83 442 c 1
 55 479 l 1
 101 514 151 534 217 534 c 0
EndSplineSet
EndChar

StartChar: uni044E
Encoding: 1102 1102 502
Width: 762
Flags: W
LayerCount: 2
Fore
SplineSet
486 534 m 0
 618 534 698 431 698 263 c 0
 698 101 619 -11 485 -11 c 0
 358 -11 282 91 276 246 c 1
 163 246 l 1
 163 0 l 1
 105 0 l 1
 105 523 l 1
 163 523 l 1
 163 294 l 1
 278 294 l 1
 288 439 366 534 486 534 c 0
485 38 m 0
 585 38 636 118 636 263 c 0
 636 405 582 485 486 485 c 0
 392 485 336 411 336 261 c 0
 336 119 390 38 485 38 c 0
EndSplineSet
EndChar

StartChar: uni044F
Encoding: 1103 1103 503
Width: 540
Flags: W
LayerCount: 2
Fore
SplineSet
270 523 m 2
 435 523 l 1
 435 0 l 1
 377 0 l 1
 377 216 l 1
 237 216 l 1
 116 0 l 1
 51 0 l 1
 181 228 l 1
 110 251 75 301 75 369 c 0
 75 470 148 523 270 523 c 2
261 262 m 2
 377 262 l 1
 377 476 l 1
 269 476 l 2
 186 477 136 444 136 370 c 0
 136 295 182 262 261 262 c 2
EndSplineSet
EndChar

StartChar: uni0450
Encoding: 1104 1104 504
Width: 535
Flags: W
LayerCount: 2
Fore
SplineSet
199 782 m 1
 387 679 l 1
 369 645 l 1
 173 730 l 1
 199 782 l 1
477 281 m 0
 477 265 476 249 475 239 c 1
 126 239 l 1
 133 97 199 38 289 38 c 0
 346 38 384 56 430 90 c 1
 457 53 l 1
 408 13 355 -11 286 -11 c 0
 148 -11 64 89 64 257 c 0
 64 424 145 534 273 534 c 0
 409 534 477 435 477 281 c 0
420 284 m 1
 420 299 l 2
 420 413 374 486 275 486 c 0
 194 486 132 425 125 284 c 1
 420 284 l 1
EndSplineSet
EndChar

StartChar: uni0451
Encoding: 1105 1105 505
Width: 535
Flags: W
LayerCount: 2
Fore
SplineSet
181 742 m 0
 204 742 221 724 221 702 c 0
 221 680 204 663 181 663 c 0
 158 663 141 680 141 702 c 0
 141 724 158 742 181 742 c 0
370 742 m 0
 393 742 410 724 410 702 c 0
 410 680 393 663 370 663 c 0
 347 663 330 680 330 702 c 0
 330 724 347 742 370 742 c 0
477 281 m 0
 477 265 476 249 475 239 c 1
 126 239 l 1
 133 97 199 38 289 38 c 0
 346 38 384 56 430 90 c 1
 457 53 l 1
 408 13 355 -11 286 -11 c 0
 148 -11 64 89 64 257 c 0
 64 424 145 534 273 534 c 0
 409 534 477 435 477 281 c 0
420 284 m 1
 420 299 l 2
 420 413 374 486 275 486 c 0
 194 486 132 425 125 284 c 1
 420 284 l 1
EndSplineSet
EndChar

StartChar: uni0452
Encoding: 1106 1106 506
Width: 586
Flags: W
LayerCount: 2
Fore
SplineSet
341 534 m 0
 435 534 487 473 487 374 c 2
 487 19 l 2
 487 -121 441 -159 347 -203 c 1
 330 -161 l 1
 399 -127 429 -99 429 17 c 2
 429 366 l 2
 429 451 393 487 330 487 c 0
 259 487 211 443 168 379 c 1
 168 0 l 1
 110 0 l 1
 110 616 l 1
 35 616 l 1
 35 663 l 1
 110 663 l 1
 110 736 l 1
 168 743 l 1
 168 663 l 1
 337 663 l 1
 337 616 l 1
 168 616 l 1
 168 436 l 1
 210 495 267 534 341 534 c 0
EndSplineSet
EndChar

StartChar: uni0453
Encoding: 1107 1107 507
Width: 422
Flags: W
LayerCount: 2
Fore
SplineSet
335 782 m 1
 361 730 l 1
 166 645 l 1
 147 679 l 1
 335 782 l 1
163 0 m 1
 105 0 l 1
 105 523 l 1
 414 523 l 1
 406 473 l 1
 163 473 l 1
 163 0 l 1
EndSplineSet
EndChar

StartChar: uni0454
Encoding: 1108 1108 508
Width: 477
Flags: W
LayerCount: 2
Fore
SplineSet
411 83 m 1
 439 43 l 1
 395 9 345 -11 287 -11 c 0
 152 -11 64 88 64 261 c 0
 64 429 154 534 287 534 c 0
 344 534 390 519 438 481 c 1
 408 444 l 1
 368 473 334 486 290 486 c 0
 199 486 132 420 125 292 c 1
 368 292 l 1
 368 246 l 1
 124 246 l 1
 128 105 195 38 287 38 c 0
 334 38 369 53 411 83 c 1
EndSplineSet
EndChar

